<svg width="24" height="24" viewBox="0 0 24 24" fill="none" xmlns="http://www.w3.org/2000/svg">
<path d="M16.19 2H7.81C4.17 2 2 4.17 2 7.81V16.18C2 19.83 4.17 22 7.81 22H16.18C19.82 22 21.99 19.83 21.99 16.19V7.81C22 4.17 19.83 2 16.19 2Z" fill="url(#paint0_linear_420_561)"/>
<path d="M17.7504 18.8281H15.9004C15.4904 18.8281 15.1504 18.4881 15.1504 18.0781C15.1504 17.6681 15.4904 17.3281 15.9004 17.3281H17.7504C18.1604 17.3281 18.5004 17.6681 18.5004 18.0781C18.5004 18.4881 18.1604 18.8281 17.7504 18.8281Z" fill="url(#paint1_linear_420_561)"/>
<path d="M13.22 18.8281H6.75C6.34 18.8281 6 18.4881 6 18.0781C6 17.6681 6.34 17.3281 6.75 17.3281H13.22C13.63 17.3281 13.97 17.6681 13.97 18.0781C13.97 18.4881 13.64 18.8281 13.22 18.8281Z" fill="url(#paint2_linear_420_561)"/>
<path d="M17.7507 16.0703H12.2207C11.8107 16.0703 11.4707 15.7303 11.4707 15.3203C11.4707 14.9103 11.8107 14.5703 12.2207 14.5703H17.7507C18.1607 14.5703 18.5007 14.9103 18.5007 15.3203C18.5007 15.7303 18.1607 16.0703 17.7507 16.0703Z" fill="url(#paint3_linear_420_561)"/>
<path d="M9.52 16.0703H6.75C6.34 16.0703 6 15.7303 6 15.3203C6 14.9103 6.34 14.5703 6.75 14.5703H9.52C9.93 14.5703 10.27 14.9103 10.27 15.3203C10.27 15.7303 9.93 16.0703 9.52 16.0703Z" fill="url(#paint4_linear_420_561)"/>
<path d="M14.9061 10.4032L14.001 8.28651C13.8362 7.89904 13.5904 7.67927 13.3099 7.66482C13.0323 7.65036 12.7634 7.8441 12.5581 8.21422L12.0087 9.20026C11.893 9.40845 11.7282 9.53279 11.5489 9.54725C11.3668 9.5646 11.1846 9.46918 11.0371 9.28122L10.9735 9.20026C10.7682 8.94291 10.5137 8.81857 10.2535 8.84459C9.99324 8.87062 9.77059 9.0499 9.62312 9.34195L9.12287 10.3396C8.94359 10.701 8.96094 11.1203 9.17203 11.4615C9.38312 11.8027 9.75035 12.008 10.1523 12.008H13.842C14.2294 12.008 14.5909 11.8143 14.8049 11.4904C15.0246 11.1666 15.0593 10.7588 14.9061 10.4032Z" fill="url(#paint5_linear_420_561)"/>
<path d="M10.5535 7.95473C11.0933 7.95473 11.5309 7.51715 11.5309 6.97736C11.5309 6.43758 11.0933 6 10.5535 6C10.0138 6 9.57617 6.43758 9.57617 6.97736C9.57617 7.51715 10.0138 7.95473 10.5535 7.95473Z" fill="white"/>
<defs>
<linearGradient id="paint0_linear_420_561" x1="11.995" y1="2" x2="11.995" y2="22" gradientUnits="userSpaceOnUse">
<stop stop-color="#02A959"/>
<stop offset="1" stop-color="#008C45"/>
</linearGradient>
<linearGradient id="paint1_linear_420_561" x1="16.0705" y1="17.2215" x2="17.231" y2="19.5404" gradientUnits="userSpaceOnUse">
<stop stop-color="#F7EF81"/>
<stop offset="1" stop-color="#FEC062"/>
</linearGradient>
<linearGradient id="paint2_linear_420_561" x1="8.18909" y1="17.2215" x2="8.77322" y2="19.9983" gradientUnits="userSpaceOnUse">
<stop stop-color="#F7EF81"/>
<stop offset="1" stop-color="#FEC062"/>
</linearGradient>
<linearGradient id="paint3_linear_420_561" x1="13.4016" y1="14.4637" x2="14.0559" y2="17.2074" gradientUnits="userSpaceOnUse">
<stop stop-color="#F7EF81"/>
<stop offset="1" stop-color="#FEC062"/>
</linearGradient>
<linearGradient id="paint4_linear_420_561" x1="7.17283" y1="14.4637" x2="8.15927" y2="16.9761" gradientUnits="userSpaceOnUse">
<stop stop-color="#F7EF81"/>
<stop offset="1" stop-color="#FEC062"/>
</linearGradient>
<linearGradient id="paint5_linear_420_561" x1="10.648" y1="7.35536" x2="14.7543" y2="12.4299" gradientUnits="userSpaceOnUse">
<stop stop-color="#F7EF81"/>
<stop offset="1" stop-color="#FEC062"/>
</linearGradient>
</defs>
</svg>
