<svg width="22" height="22" viewBox="0 0 22 22" fill="none" xmlns="http://www.w3.org/2000/svg">
<path opacity="0.2" d="M6.625 9.125V12.875H15.375V9.125H6.625Z" fill="white"/>
<path d="M1 3.1875C1 3.70703 1.41797 4.125 1.9375 4.125H20.0625C20.582 4.125 21 3.70703 21 3.1875C21 2.66797 20.582 2.25 20.0625 2.25H1.9375C1.41797 2.25 1 2.66797 1 3.1875ZM15.375 9.125V12.875H6.625V9.125H15.375ZM6.625 7.25C5.58984 7.25 4.75 8.08984 4.75 9.125V12.875C4.75 13.9102 5.58984 14.75 6.625 14.75H15.375C16.4102 14.75 17.25 13.9102 17.25 12.875V9.125C17.25 8.08984 16.4102 7.25 15.375 7.25H6.625ZM1.9375 17.875C1.41797 17.875 1 18.293 1 18.8125C1 19.332 1.41797 19.75 1.9375 19.75H20.0625C20.582 19.75 21 19.332 21 18.8125C21 18.293 20.582 17.875 20.0625 17.875H1.9375Z" fill="white"/>
</svg>
