<svg width="24" height="24" viewBox="0 0 24 24" fill="none" xmlns="http://www.w3.org/2000/svg">
<path d="M22.0005 13.9025V16.1925C22.0005 19.8325 19.8305 22.0025 16.1905 22.0025H7.81055C5.26055 22.0025 3.42055 20.9325 2.56055 19.0325L2.67055 18.9525L7.59055 15.6525C8.39055 15.1125 9.52055 15.1725 10.2305 15.7925L10.5705 16.0725C11.3505 16.7425 12.6105 16.7425 13.3905 16.0725L17.5505 12.5025C18.3305 11.8325 19.5905 11.8325 20.3705 12.5025L22.0005 13.9025Z" fill="url(#paint0_linear_420_620)"/>
<path d="M20.97 1H18.03C16.76 1 16 1.76 16 3.03V5.97C16 7.24 16.76 8 18.03 8H20.97C22.24 8 23 7.24 23 5.97V3.03C23 1.76 22.24 1 20.97 1ZM21.61 4.68C21.24 5.86 19.95 6.5 19.5 6.5C19.05 6.5 17.77 5.88 17.39 4.68C17.33 4.5 17.3 4.3 17.3 4.11C17.3 3.46 17.63 2.79 18.32 2.57C18.73 2.44 19.17 2.51 19.48 2.77C19.8 2.52 20.24 2.44 20.66 2.57C21.58 2.86 21.87 3.89 21.61 4.68Z" fill="url(#paint1_linear_420_620)"/>
<path d="M20.97 8H18.03C16.76 8 16 7.24 16 5.97V3.03C16 2.63 16.08 2.29 16.22 2C16.21 2 16.2 2 16.19 2H7.81C4.17 2 2 4.17 2 7.81V16.19C2 17.28 2.19 18.23 2.56 19.03L2.67 18.95L7.59 15.65C8.39 15.11 9.52 15.17 10.23 15.79L10.57 16.07C11.35 16.74 12.61 16.74 13.39 16.07L17.55 12.5C18.33 11.83 19.59 11.83 20.37 12.5L22 13.9V7.81C22 7.8 22 7.79 22 7.78C21.71 7.92 21.37 8 20.97 8Z" fill="url(#paint2_linear_420_620)"/>
<path d="M8.99914 10.3772C10.3136 10.3772 11.3791 9.31163 11.3791 7.99719C11.3791 6.68275 10.3136 5.61719 8.99914 5.61719C7.6847 5.61719 6.61914 6.68275 6.61914 7.99719C6.61914 9.31163 7.6847 10.3772 8.99914 10.3772Z" fill="url(#paint3_linear_420_620)"/>
<defs>
<linearGradient id="paint0_linear_420_620" x1="7.90007" y1="11.2892" x2="16.2564" y2="25.8197" gradientUnits="userSpaceOnUse">
<stop stop-color="#F7EF81"/>
<stop offset="1" stop-color="#FEC062"/>
</linearGradient>
<linearGradient id="paint1_linear_420_620" x1="19.5" y1="1" x2="19.5" y2="8" gradientUnits="userSpaceOnUse">
<stop stop-color="#02A959"/>
<stop offset="1" stop-color="#008C45"/>
</linearGradient>
<linearGradient id="paint2_linear_420_620" x1="12" y1="2" x2="12" y2="19.03" gradientUnits="userSpaceOnUse">
<stop stop-color="#02A959"/>
<stop offset="1" stop-color="#008C45"/>
</linearGradient>
<linearGradient id="paint3_linear_420_620" x1="7.92655" y1="5.27891" x2="12.4991" y2="9.36995" gradientUnits="userSpaceOnUse">
<stop stop-color="#F7EF81"/>
<stop offset="1" stop-color="#FEC062"/>
</linearGradient>
</defs>
</svg>
