<svg width="22" height="26" viewBox="0 0 22 26" fill="none" xmlns="http://www.w3.org/2000/svg">
<path opacity="0.2" d="M2.4082 18.6942C2.4082 19.0144 2.66717 19.2733 2.98734 19.2733H19.9094C20.2296 19.2733 20.4886 19.0144 20.4886 18.6942C20.4886 18.5388 20.4273 18.3929 20.3191 18.2846L20.1872 18.1527C18.4498 16.4153 17.4705 14.0564 17.4705 11.5986V10.2284C17.4705 6.89959 14.7725 4.20166 11.4437 4.20166C8.11481 4.20166 5.4216 6.9043 5.4216 10.2332V11.6033C5.4216 14.0611 4.44695 16.42 2.70483 18.1574L2.57771 18.2846C2.46941 18.3929 2.4082 18.5388 2.4082 18.6942Z" fill="#222222"/>
<path d="M10.6949 1.94622C10.6949 1.53188 11.0339 1.19287 11.4482 1.19287C11.8626 1.19287 12.2016 1.53188 12.2016 1.94622V2.73724C16.0107 3.11391 18.9817 6.32506 18.9817 10.2331V11.6032C18.9817 13.6608 19.801 15.6336 21.2559 17.0932L21.3877 17.2251C21.7785 17.6159 21.9998 18.1479 21.9998 18.6988C21.9998 19.8524 21.0676 20.7846 19.914 20.7846L2.9872 20.7799C1.83364 20.7799 0.901367 19.8477 0.901367 18.6941C0.901367 18.1432 1.12266 17.6112 1.51346 17.2204L1.6453 17.0885C3.09549 15.6336 3.91476 13.6608 3.91476 11.6032V10.2331C3.91476 6.32506 6.88578 3.11391 10.6949 2.73724V1.94622ZM11.4482 4.20626C8.11938 4.20626 5.42146 6.90419 5.42146 10.2331V11.6032C5.42146 14.061 4.44681 16.4199 2.70469 18.1573L2.57757 18.2845C2.46927 18.3928 2.40806 18.5387 2.40806 18.6941C2.40806 19.0143 2.66703 19.2732 2.9872 19.2732H19.9093C20.2295 19.2732 20.4884 19.0143 20.4884 18.6941C20.4884 18.5387 20.4272 18.3928 20.3189 18.2845L20.1871 18.1526C18.4497 16.4152 17.4703 14.0563 17.4703 11.5985V10.2283C17.4703 6.89948 14.7724 4.20156 11.4435 4.20156L11.4482 4.20626ZM10.0263 22.7904C10.2335 23.3743 10.7938 23.7933 11.4482 23.7933C12.1027 23.7933 12.663 23.3743 12.8702 22.7904C13.0067 22.3996 13.4399 22.1925 13.8307 22.329C14.2215 22.4655 14.4287 22.8987 14.2921 23.2895C13.8778 24.4619 12.7619 25.3 11.4482 25.3C10.1346 25.3 9.01869 24.4619 8.60435 23.2895C8.46781 22.8987 8.67027 22.4655 9.06578 22.329C9.46129 22.1925 9.88975 22.3949 10.0263 22.7904Z" fill="#222222"/>
<path d="M19.2942 5.72416C19.2942 7.38841 17.945 8.73755 16.2808 8.73755C14.6165 8.73755 13.2674 7.38841 13.2674 5.72416C13.2674 4.0599 14.6165 2.71076 16.2808 2.71076C17.945 2.71076 19.2942 4.0599 19.2942 5.72416Z" fill="#00674E"/>
<path fill-rule="evenodd" clip-rule="evenodd" d="M21.7049 5.72416C21.7049 8.71981 19.2764 11.1483 16.2808 11.1483C13.2851 11.1483 10.8567 8.71981 10.8567 5.72416C10.8567 2.7285 13.2851 0.300049 16.2808 0.300049C19.2764 0.300049 21.7049 2.7285 21.7049 5.72416ZM16.2808 8.73755C17.945 8.73755 19.2942 7.38841 19.2942 5.72416C19.2942 4.0599 17.945 2.71076 16.2808 2.71076C14.6165 2.71076 13.2674 4.0599 13.2674 5.72416C13.2674 7.38841 14.6165 8.73755 16.2808 8.73755Z" fill="#F9EC81"/>
</svg>
