<svg width="22" height="22" viewBox="0 0 22 22" fill="none" xmlns="http://www.w3.org/2000/svg">
<path opacity="0.2" d="M4.88696 9.22238V17.1106C4.88696 17.7251 5.38345 18.2216 5.99797 18.2216H15.9971C16.6116 18.2216 17.1081 17.7251 17.1081 17.1106V9.22238L10.9975 4.03882L4.88696 9.22238ZM8.21999 9.61123C8.21999 8.84394 8.84147 8.22247 9.60876 8.22247H12.3863C13.1536 8.22247 13.775 8.84394 13.775 9.61123V12.3888C13.775 13.156 13.1536 13.7775 12.3863 13.7775H9.60876C8.84147 13.7775 8.21999 13.156 8.21999 12.3888V9.61123Z" fill="white"/>
<path d="M10.4594 2.30984C10.7719 2.04597 11.2267 2.04597 11.5392 2.30984L20.705 10.0869C21.0557 10.3855 21.1008 10.9098 20.8022 11.2604C20.5036 11.6111 19.9794 11.6527 19.6287 11.3576L18.7746 10.6355V17.1106C18.7746 18.6452 17.5317 19.8881 15.9971 19.8881H5.998C4.46342 19.8881 3.22048 18.6452 3.22048 17.1106V10.6355L2.36986 11.3576C2.0192 11.6562 1.49147 11.6111 1.19635 11.2604C0.901242 10.9098 0.942905 10.382 1.29357 10.0869L10.4594 2.30984ZM10.9976 4.03885L4.88699 9.22241V17.1106C4.88699 17.7251 5.38348 18.2216 5.998 18.2216H15.9971C16.6116 18.2216 17.1081 17.7251 17.1081 17.1106V9.22241L10.9976 4.03885ZM9.88654 12.111H12.1086V9.88901H9.88654V12.111ZM8.22002 9.61126C8.22002 8.84397 8.8415 8.2225 9.60879 8.2225H12.3863C13.1536 8.2225 13.7751 8.84397 13.7751 9.61126V12.3888C13.7751 13.1561 13.1536 13.7775 12.3863 13.7775H9.60879C8.8415 13.7775 8.22002 13.1561 8.22002 12.3888V9.61126Z" fill="white"/>
</svg>
