<svg width="24" height="24" viewBox="0 0 24 24" fill="none" xmlns="http://www.w3.org/2000/svg">
<path d="M10.0693 2.82377L3.13929 8.37375C2.35929 8.99375 1.85929 10.3038 2.02929 11.2838L3.35929 19.2437C3.59929 20.6637 4.95928 21.8138 6.39928 21.8138H17.5993C19.0293 21.8138 20.3993 20.6537 20.6393 19.2437L21.9693 11.2838C22.1293 10.3038 21.6293 8.99375 20.8593 8.37375L13.9293 2.83375C12.8593 1.97375 11.1293 1.97377 10.0693 2.82377Z" fill="url(#paint0_linear_420_1189)"/>
<path d="M12 15.5C13.3807 15.5 14.5 14.3807 14.5 13C14.5 11.6193 13.3807 10.5 12 10.5C10.6193 10.5 9.5 11.6193 9.5 13C9.5 14.3807 10.6193 15.5 12 15.5Z" fill="url(#paint1_linear_420_1189)"/>
<defs>
<linearGradient id="paint0_linear_420_1189" x1="11.9976" y1="2.1875" x2="11.9976" y2="21.8138" gradientUnits="userSpaceOnUse">
<stop stop-color="#02A959"/>
<stop offset="1" stop-color="#008C45"/>
</linearGradient>
<linearGradient id="paint1_linear_420_1189" x1="10.8733" y1="10.1447" x2="15.6764" y2="14.442" gradientUnits="userSpaceOnUse">
<stop stop-color="#F7EF81"/>
<stop offset="1" stop-color="#FEC062"/>
</linearGradient>
</defs>
</svg>
