<svg width="21" height="20" viewBox="0 0 21 20" fill="none" xmlns="http://www.w3.org/2000/svg">
<g id="Group 1000003044">
<path id="Vector" opacity="0.2" d="M2.31812 3.18187V16.8182C2.31812 17.5725 2.92749 18.1819 3.68175 18.1819H17.3181C18.0724 18.1819 18.6818 17.5725 18.6818 16.8182V3.18187C18.6818 2.42761 18.0724 1.81824 17.3181 1.81824H3.68175C2.92749 1.81824 2.31812 2.42761 2.31812 3.18187ZM5.72721 10.0001C5.72721 9.62506 6.03402 9.31824 6.40902 9.31824H9.81812V5.90915C9.81812 5.53415 10.1249 5.22733 10.4999 5.22733C10.8749 5.22733 11.1818 5.53415 11.1818 5.90915V9.31824H14.5908C14.9658 9.31824 15.2727 9.62506 15.2727 10.0001C15.2727 10.3751 14.9658 10.6819 14.5908 10.6819H11.1818V14.091C11.1818 14.466 10.8749 14.7728 10.4999 14.7728C10.1249 14.7728 9.81812 14.466 9.81812 14.091V10.6819H6.40902C6.03402 10.6819 5.72721 10.3751 5.72721 10.0001Z" fill="#00674E"/>
<path id="Vector_2" d="M3.68186 1.81823C2.9276 1.81823 2.31823 2.4276 2.31823 3.18186V16.8182C2.31823 17.5725 2.9276 18.1819 3.68186 18.1819H17.3182C18.0725 18.1819 18.6819 17.5725 18.6819 16.8182V3.18186C18.6819 2.4276 18.0725 1.81823 17.3182 1.81823H3.68186ZM0.95459 3.18186C0.95459 1.6776 2.1776 0.45459 3.68186 0.45459H17.3182C18.8225 0.45459 20.0455 1.6776 20.0455 3.18186V16.8182C20.0455 18.3225 18.8225 19.5455 17.3182 19.5455H3.68186C2.1776 19.5455 0.95459 18.3225 0.95459 16.8182V3.18186ZM9.81823 14.091V10.6819H6.40913C6.03413 10.6819 5.72732 10.375 5.72732 10C5.72732 9.62504 6.03413 9.31823 6.40913 9.31823H9.81823V5.90913C9.81823 5.53413 10.125 5.22732 10.5 5.22732C10.875 5.22732 11.1819 5.53413 11.1819 5.90913V9.31823H14.591C14.966 9.31823 15.2728 9.62504 15.2728 10C15.2728 10.375 14.966 10.6819 14.591 10.6819H11.1819V14.091C11.1819 14.466 10.875 14.7728 10.5 14.7728C10.125 14.7728 9.81823 14.466 9.81823 14.091Z" fill="#00674E"/>
</g>
</svg>
