<svg width="12" height="12" viewBox="0 0 12 12" fill="none" xmlns="http://www.w3.org/2000/svg">
<path id="Vector" d="M6.30841 1.54534C6.30877 1.35324 6.15105 1.19492 5.95895 1.19455C5.76685 1.19419 5.60853 1.35191 5.60816 1.54401L5.60037 5.64943L1.49495 5.64163C1.30285 5.64127 1.14453 5.79899 1.14417 5.99109C1.1438 6.18319 1.30152 6.34151 1.49362 6.34188L5.59904 6.34967L5.5897 10.4535C5.58933 10.6456 5.74705 10.804 5.93916 10.8043C6.13126 10.8047 6.28958 10.647 6.28994 10.4549L6.29928 6.351L10.4047 6.35879C10.5968 6.35916 10.7551 6.20144 10.7555 6.00934C10.7559 5.81723 10.5981 5.65891 10.406 5.65855L6.30061 5.65075L6.30841 1.54534Z" fill="#00674E" stroke="#00674E"/>
</svg>
