<svg width="20" height="16" viewBox="0 0 20 16" fill="none" xmlns="http://www.w3.org/2000/svg">
<path opacity="0.2" d="M1.81824 14.3637H12.7273C12.6932 12.0995 10.8466 10.2728 8.57108 10.2728H5.97449C3.70176 10.2728 1.85517 12.0995 1.81824 14.3637ZM4.54551 4.36375C4.54551 4.7219 4.61605 5.07654 4.75311 5.40743C4.89017 5.73832 5.09106 6.03897 5.34431 6.29222C5.59756 6.54547 5.89821 6.74636 6.2291 6.88342C6.55999 7.02048 6.91463 7.09102 7.27278 7.09102C7.63093 7.09102 7.98558 7.02048 8.31646 6.88342C8.64735 6.74636 8.94801 6.54547 9.20126 6.29222C9.45451 6.03897 9.6554 5.73832 9.79245 5.40743C9.92951 5.07654 10.0001 4.7219 10.0001 4.36375C10.0001 4.0056 9.92951 3.65095 9.79245 3.32007C9.6554 2.98918 9.45451 2.68852 9.20126 2.43527C8.94801 2.18202 8.64735 1.98113 8.31646 1.84408C7.98558 1.70702 7.63093 1.63647 7.27278 1.63647C6.91463 1.63647 6.55999 1.70702 6.2291 1.84408C5.89821 1.98113 5.59756 2.18202 5.34431 2.43527C5.09106 2.68852 4.89017 2.98918 4.75311 3.32007C4.61605 3.65095 4.54551 4.0056 4.54551 4.36375Z" fill="#00674E"/>
<path d="M7.27269 1.63639C7.63084 1.63639 7.98549 1.70693 8.31638 1.84399C8.64726 1.98105 8.94792 2.18193 9.20117 2.43519C9.45442 2.68844 9.65531 2.98909 9.79237 3.31998C9.92942 3.65086 9.99997 4.00551 9.99997 4.36366C9.99997 4.72181 9.92942 5.07645 9.79237 5.40734C9.65531 5.73823 9.45442 6.03888 9.20117 6.29213C8.94792 6.54538 8.64726 6.74627 8.31638 6.88333C7.98549 7.02039 7.63084 7.09093 7.27269 7.09093C6.91454 7.09093 6.5599 7.02039 6.22901 6.88333C5.89812 6.74627 5.59747 6.54538 5.34422 6.29213C5.09097 6.03888 4.89008 5.73823 4.75302 5.40734C4.61596 5.07645 4.54542 4.72181 4.54542 4.36366C4.54542 4.00551 4.61596 3.65086 4.75302 3.31998C4.89008 2.98909 5.09097 2.68844 5.34422 2.43519C5.59747 2.18193 5.89812 1.98105 6.22901 1.84399C6.5599 1.70693 6.91454 1.63639 7.27269 1.63639ZM7.27269 8.00002C8.23712 8.00002 9.16204 7.61691 9.84399 6.93496C10.5259 6.25301 10.9091 5.32808 10.9091 4.36366C10.9091 3.39924 10.5259 2.47431 9.84399 1.79236C9.16204 1.11041 8.23712 0.727295 7.27269 0.727295C6.30827 0.727295 5.38335 1.11041 4.7014 1.79236C4.01945 2.47431 3.63633 3.39924 3.63633 4.36366C3.63633 5.32808 4.01945 6.25301 4.7014 6.93496C5.38335 7.61691 6.30827 8.00002 7.27269 8.00002ZM5.9744 10.2727H8.57099C10.8437 10.2727 12.6903 12.0995 12.7272 14.3637H1.81815C1.85224 12.0995 3.69883 10.2727 5.9744 10.2727ZM5.9744 9.36366C3.1761 9.36366 0.909058 11.6307 0.909058 14.429C0.909058 14.8949 1.2869 15.2727 1.75281 15.2727H12.7926C13.2585 15.2727 13.6363 14.8949 13.6363 14.429C13.6363 11.6307 11.3693 9.36366 8.57099 9.36366H5.9744ZM15.4545 9.36366C15.4545 9.61366 15.6591 9.8182 15.9091 9.8182C16.1591 9.8182 16.3636 9.61366 16.3636 9.36366V7.09093H18.6363C18.8863 7.09093 19.0909 6.88639 19.0909 6.63639C19.0909 6.38639 18.8863 6.18184 18.6363 6.18184H16.3636V3.90911C16.3636 3.65911 16.1591 3.45457 15.9091 3.45457C15.6591 3.45457 15.4545 3.65911 15.4545 3.90911V6.18184H13.1818C12.9318 6.18184 12.7272 6.38639 12.7272 6.63639C12.7272 6.88639 12.9318 7.09093 13.1818 7.09093H15.4545V9.36366Z" fill="#00674E"/>
</svg>
