<svg width="22" height="22" viewBox="0 0 22 22" fill="none" xmlns="http://www.w3.org/2000/svg">
<path fill-rule="evenodd" clip-rule="evenodd" d="M10.943 0.251H11.057C13.366 0.251 15.175 0.251 16.587 0.441C18.031 0.635 19.171 1.041 20.066 1.935C20.961 2.83 21.366 3.97 21.56 5.415C21.75 6.826 21.75 8.635 21.75 10.944V11.032C21.75 12.941 21.75 14.503 21.646 15.775C21.542 17.055 21.329 18.122 20.851 19.01C20.6417 19.4007 20.38 19.753 20.066 20.067C19.171 20.962 18.031 21.367 16.586 21.561C15.175 21.751 13.366 21.751 11.057 21.751H10.943C8.634 21.751 6.825 21.751 5.413 21.561C3.969 21.367 2.829 20.961 1.934 20.067C1.141 19.274 0.731 18.287 0.514 17.061C0.299 15.858 0.26 14.361 0.252 12.503C0.250667 12.0297 0.25 11.529 0.25 11.001V10.943C0.25 8.634 0.25 6.825 0.44 5.413C0.634 3.969 1.04 2.829 1.934 1.934C2.829 1.039 3.969 0.634 5.414 0.44C6.825 0.25 8.634 0.25 10.943 0.25M5.613 1.926C4.335 2.098 3.564 2.426 2.995 2.995C2.425 3.565 2.098 4.335 1.926 5.614C1.752 6.914 1.75 8.622 1.75 11V11.844L2.751 10.968C3.19007 10.5837 3.75882 10.3806 4.34203 10.3999C4.92524 10.4192 5.47931 10.6594 5.892 11.072L10.182 15.362C10.5149 15.6948 10.9546 15.8996 11.4235 15.9402C11.8925 15.9808 12.3608 15.8547 12.746 15.584L13.044 15.374C13.5997 14.9835 14.2714 14.7932 14.9493 14.834C15.6273 14.8749 16.2713 15.1446 16.776 15.599L19.606 18.146C19.892 17.548 20.061 16.762 20.151 15.653C20.249 14.448 20.25 12.946 20.25 11C20.25 8.622 20.248 6.914 20.074 5.614C19.902 4.335 19.574 3.564 19.005 2.994C18.435 2.425 17.665 2.098 16.386 1.926C15.086 1.752 13.378 1.75 11 1.75C8.622 1.75 6.913 1.752 5.613 1.926Z" fill="#008C45"/>
</svg>
