<svg width="21" height="21" viewBox="0 0 21 21" fill="none" xmlns="http://www.w3.org/2000/svg">
<g id="house-duotone-light 1" clip-path="url(#clip0_1104_522)">
<g id="Group 1000003048">
<path id="Vector" opacity="0.2" d="M2.31812 3.68187V17.3182C2.31812 18.0725 2.92749 18.6819 3.68175 18.6819H17.3181C18.0724 18.6819 18.6818 18.0725 18.6818 17.3182V3.68187C18.6818 2.92761 18.0724 2.31824 17.3181 2.31824H3.68175C2.92749 2.31824 2.31812 2.92761 2.31812 3.68187ZM4.36357 9.81824C4.36357 8.68898 5.27976 7.77278 6.40902 7.77278H9.81812V6.67761C9.81812 5.77846 10.5468 5.04551 11.4502 5.04551C11.9062 5.04551 12.3408 5.23727 12.6477 5.56966L16.2272 9.4475C16.4914 9.73301 16.6406 10.1123 16.6406 10.5001C16.6406 10.8878 16.4914 11.2671 16.2272 11.5526L12.6477 15.4305C12.3408 15.7628 11.9062 15.9546 11.4502 15.9546C10.5511 15.9546 9.81812 15.2259 9.81812 14.3225V13.2273H6.40902C5.27976 13.2273 4.36357 12.3111 4.36357 11.1819V9.81824Z" fill="#00674E"/>
<path id="Vector_2" d="M18.6819 3.68186C18.6819 2.9276 18.0725 2.31823 17.3182 2.31823H3.68186C2.9276 2.31823 2.31823 2.9276 2.31823 3.68186V17.3182C2.31823 18.0725 2.9276 18.6819 3.68186 18.6819H17.3182C18.0725 18.6819 18.6819 18.0725 18.6819 17.3182V3.68186ZM17.3182 0.95459C18.8225 0.95459 20.0455 2.1776 20.0455 3.68186V17.3182C20.0455 18.8225 18.8225 20.0455 17.3182 20.0455H3.68186C2.1776 20.0455 0.95459 18.8225 0.95459 17.3182V3.68186C0.95459 2.1776 2.1776 0.95459 3.68186 0.95459H17.3182ZM16.6364 10.5C16.6364 10.8921 16.4873 11.2671 16.2231 11.5526L12.6435 15.4304C12.3367 15.7628 11.902 15.9546 11.4461 15.9546C10.5469 15.9546 9.81396 15.2259 9.81396 14.3225V13.2273H6.40487C5.27561 13.2273 4.35942 12.3111 4.35942 11.1819V9.81823C4.35942 8.68896 5.27561 7.77277 6.40487 7.77277H9.81396V6.6776C9.81396 5.77845 10.5427 5.0455 11.4461 5.0455C11.902 5.0455 12.3367 5.23726 12.6435 5.56965L16.2231 9.44749C16.4873 9.733 16.6364 10.1123 16.6364 10.5ZM11.6463 14.5057L15.2259 10.6279C15.26 10.5938 15.277 10.5469 15.277 10.5C15.277 10.4532 15.26 10.4063 15.2259 10.3722L11.6463 6.49436C11.5952 6.43896 11.5228 6.40913 11.4503 6.40913C11.3012 6.40913 11.1819 6.52845 11.1819 6.6776V8.45459C11.1819 8.82959 10.875 9.13641 10.5 9.13641H6.40913C6.03413 9.13641 5.72732 9.44323 5.72732 9.81823V11.1819C5.72732 11.5569 6.03413 11.8637 6.40913 11.8637H10.5C10.875 11.8637 11.1819 12.1705 11.1819 12.5455V14.3225C11.1819 14.4716 11.3012 14.591 11.4503 14.591C11.5228 14.591 11.5952 14.5611 11.6463 14.5057Z" fill="#00674E"/>
</g>
</g>
<defs>
<clipPath id="clip0_1104_522">
<rect width="21" height="21" fill="white"/>
</clipPath>
</defs>
</svg>
