<svg width="54" height="54" viewBox="0 0 54 54" fill="none" xmlns="http://www.w3.org/2000/svg">
<rect x="0.5" y="0.5" width="53" height="53" rx="6.85943" fill="white"/>
<rect x="0.5" y="0.5" width="53" height="53" rx="6.85943" stroke="#A1ABB8"/>
<path d="M32.1703 27.7559C32.159 25.571 33.0998 23.9219 35.0042 22.7074C33.9387 21.1059 32.329 20.2248 30.2036 20.0521C28.1916 19.8854 25.9925 21.2845 25.1877 21.2845C24.3375 21.2845 22.3878 20.1117 20.8575 20.1117C17.6949 20.1652 14.334 22.761 14.334 28.0417C14.334 29.6015 14.606 31.2129 15.1501 32.8759C15.8756 35.0608 18.4941 40.4189 21.2259 40.3296C22.6542 40.2939 23.6631 39.264 25.5221 39.264C27.3244 39.264 28.2596 40.3296 29.8522 40.3296C32.6067 40.288 34.9759 35.418 35.6673 33.2271C31.972 31.3994 32.1703 27.869 32.1703 27.7559ZM28.9624 17.9803C30.5097 16.0514 30.368 14.2951 30.3226 13.6641C28.9567 13.7474 27.3754 14.6404 26.4743 15.7418C25.4824 16.9206 24.8986 18.3792 25.0233 20.0224C26.5026 20.1414 27.8515 19.3437 28.9624 17.9803Z" fill="#222222"/>
</svg>
