<svg width="22" height="22" viewBox="0 0 22 22" fill="none" xmlns="http://www.w3.org/2000/svg">
<g opacity="0.6">
<path opacity="0.2" d="M2.87476 10.9999C2.87476 15.4873 6.51076 19.1233 10.9982 19.1233C11.1114 19.1233 11.2247 19.1194 11.334 19.1155C11.3653 19.1155 11.3809 19.1077 11.3965 19.0999C11.4122 19.092 11.4395 19.0725 11.4746 19.0296C11.5488 18.9397 11.623 18.7757 11.623 18.5687C11.623 18.5023 11.5996 18.35 11.4043 17.9009C11.3848 17.854 11.3575 17.7954 11.3301 17.7329C11.1661 17.3619 10.8966 16.7566 10.7677 16.1473C10.7131 15.8974 10.6857 15.6357 10.6857 15.374C10.6857 13.3041 12.3651 11.6248 14.435 11.6248H18.2585C18.5592 11.6248 18.8091 11.5193 18.9536 11.3982C19.0825 11.2928 19.1177 11.1912 19.1177 11.0858C19.1177 11.0585 19.1177 11.0311 19.1177 10.9999C19.1177 6.51247 15.4817 2.87646 10.9943 2.87646C6.50686 2.87646 2.87476 6.51247 2.87476 10.9999ZM7.2489 10.9999C7.2489 11.3313 7.11723 11.6492 6.88286 11.8836C6.64848 12.118 6.3306 12.2496 5.99915 12.2496C5.66769 12.2496 5.34981 12.118 5.11543 11.8836C4.88106 11.6492 4.74939 11.3313 4.74939 10.9999C4.74939 10.6684 4.88106 10.3505 5.11543 10.1162C5.34981 9.88179 5.66769 9.75012 5.99915 9.75012C6.3306 9.75012 6.64848 9.88179 6.88286 10.1162C7.11723 10.3505 7.2489 10.6684 7.2489 10.9999ZM8.49866 7.25061C8.49866 7.58207 8.36699 7.89995 8.13261 8.13432C7.89824 8.3687 7.58036 8.50037 7.2489 8.50037C6.91745 8.50037 6.59957 8.3687 6.36519 8.13432C6.13082 7.89995 5.99915 7.58207 5.99915 7.25061C5.99915 6.91915 6.13082 6.60127 6.36519 6.3669C6.59957 6.13253 6.91745 6.00085 7.2489 6.00085C7.58036 6.00085 7.89824 6.13253 8.13261 6.3669C8.36699 6.60127 8.49866 6.91915 8.49866 7.25061ZM12.2479 6.00085C12.2479 6.33231 12.1163 6.65019 11.8819 6.88457C11.6475 7.11894 11.3296 7.25061 10.9982 7.25061C10.6667 7.25061 10.3488 7.11894 10.1145 6.88457C9.88008 6.65019 9.74841 6.33231 9.74841 6.00085C9.74841 5.6694 9.88008 5.35152 10.1145 5.11714C10.3488 4.88277 10.6667 4.7511 10.9982 4.7511C11.3296 4.7511 11.6475 4.88277 11.8819 5.11714C12.1163 5.35152 12.2479 5.6694 12.2479 6.00085ZM15.9972 7.25061C15.9972 7.58207 15.8655 7.89995 15.6311 8.13432C15.3968 8.3687 15.0789 8.50037 14.7474 8.50037C14.416 8.50037 14.0981 8.3687 13.8637 8.13432C13.6294 7.89995 13.4977 7.58207 13.4977 7.25061C13.4977 6.91915 13.6294 6.60127 13.8637 6.3669C14.0981 6.13253 14.416 6.00085 14.7474 6.00085C15.0789 6.00085 15.3968 6.13253 15.6311 6.3669C15.8655 6.60127 15.9972 6.91915 15.9972 7.25061Z" fill="#E6F6EE"/>
<path d="M19.1215 11.0859C19.1215 11.1914 19.0824 11.289 18.9574 11.3984C18.809 11.5194 18.563 11.6249 18.2623 11.6249H14.4349C12.365 11.6249 10.6856 13.3042 10.6856 15.3741C10.6856 15.6397 10.7129 15.8975 10.7676 16.1474C10.8965 16.7606 11.166 17.362 11.33 17.7331C11.3574 17.7955 11.3847 17.8502 11.4042 17.901C11.5995 18.3501 11.6229 18.5024 11.6229 18.5688C11.6229 18.7758 11.5487 18.9399 11.4745 19.0297C11.4394 19.0726 11.412 19.0922 11.3964 19.1C11.3847 19.1078 11.3652 19.1117 11.3339 19.1156C11.2207 19.1195 11.1113 19.1234 10.998 19.1234C6.51064 19.1234 2.87463 15.4874 2.87463 11C2.87463 6.5126 6.51064 2.87659 10.998 2.87659C15.4855 2.87659 19.1215 6.5126 19.1215 11C19.1215 11.0273 19.1215 11.0547 19.1215 11.0859ZM20.9961 11.1054C20.9961 11.0703 20.9961 11.0352 20.9961 11C20.9961 5.47764 16.5204 1.00195 10.998 1.00195C5.47569 1.00195 1 5.47764 1 11C1 16.5224 5.47569 20.998 10.998 20.998C11.1347 20.998 11.2753 20.9941 11.412 20.9902C12.654 20.9395 13.4976 19.8147 13.4976 18.5688C13.4976 18.0025 13.2593 17.4636 13.025 16.9285C12.8571 16.5458 12.6852 16.1591 12.6032 15.7608C12.5759 15.6358 12.5641 15.5069 12.5641 15.3741C12.5641 14.3392 13.4038 13.4995 14.4388 13.4995H18.2623C19.6878 13.4995 20.9844 12.531 21 11.1054H20.9961ZM7.24878 11C7.24878 10.6685 7.11711 10.3507 6.88273 10.1163C6.64836 9.88192 6.33048 9.75025 5.99902 9.75025C5.66757 9.75025 5.34969 9.88192 5.11531 10.1163C4.88094 10.3507 4.74927 10.6685 4.74927 11C4.74927 11.3315 4.88094 11.6493 5.11531 11.8837C5.34969 12.1181 5.66757 12.2498 5.99902 12.2498C6.33048 12.2498 6.64836 12.1181 6.88273 11.8837C7.11711 11.6493 7.24878 11.3315 7.24878 11ZM7.24878 8.50049C7.58024 8.50049 7.89812 8.36882 8.13249 8.13444C8.36687 7.90007 8.49854 7.58219 8.49854 7.25073C8.49854 6.91928 8.36687 6.6014 8.13249 6.36702C7.89812 6.13265 7.58024 6.00098 7.24878 6.00098C6.91732 6.00098 6.59944 6.13265 6.36507 6.36702C6.13069 6.6014 5.99902 6.91928 5.99902 7.25073C5.99902 7.58219 6.13069 7.90007 6.36507 8.13444C6.59944 8.36882 6.91732 8.50049 7.24878 8.50049ZM12.2478 6.00098C12.2478 5.66952 12.1161 5.35164 11.8818 5.11727C11.6474 4.88289 11.3295 4.75122 10.998 4.75122C10.6666 4.75122 10.3487 4.88289 10.1143 5.11727C9.87996 5.35164 9.74829 5.66952 9.74829 6.00098C9.74829 6.33243 9.87996 6.65031 10.1143 6.88469C10.3487 7.11906 10.6666 7.25073 10.998 7.25073C11.3295 7.25073 11.6474 7.11906 11.8818 6.88469C12.1161 6.65031 12.2478 6.33243 12.2478 6.00098ZM14.7473 8.50049C15.0788 8.50049 15.3967 8.36882 15.631 8.13444C15.8654 7.90007 15.9971 7.58219 15.9971 7.25073C15.9971 6.91928 15.8654 6.6014 15.631 6.36702C15.3967 6.13265 15.0788 6.00098 14.7473 6.00098C14.4159 6.00098 14.098 6.13265 13.8636 6.36702C13.6292 6.6014 13.4976 6.91928 13.4976 7.25073C13.4976 7.58219 13.6292 7.90007 13.8636 8.13444C14.098 8.36882 14.4159 8.50049 14.7473 8.50049Z" fill="#E6F6EE"/>
</g>
</svg>
