<svg width="22" height="21" viewBox="0 0 22 21" fill="none" xmlns="http://www.w3.org/2000/svg">
<path opacity="0.2" d="M2.64771 3.34089C2.64771 2.68091 3.18091 2.14771 3.84089 2.14771H8.61361V6.32384C8.61361 7.31194 9.41528 8.11361 10.4034 8.11361H14.5795V12.2898H6.52555C5.37338 12.2898 4.43748 13.2257 4.43748 14.3778V18.8522H3.84089C3.18091 18.8522 2.64771 18.319 2.64771 17.6591V3.34089Z" fill="#00674E"/>
<path d="M3.84095 18.8523H4.43754V20.0455H3.84095C2.52472 20.0455 1.45459 18.9754 1.45459 17.6591V3.34095C1.45459 2.02472 2.52472 0.95459 3.84095 0.95459H9.66144C10.135 0.95459 10.5899 1.14475 10.9255 1.48034L15.247 5.79816C15.5826 6.13374 15.7728 6.58864 15.7728 7.06219V12.2898H14.5796V8.11368H10.4035C9.41535 8.11368 8.61368 7.31201 8.61368 6.32391V2.14777H3.84095C3.18097 2.14777 2.64777 2.68097 2.64777 3.34095V17.6591C2.64777 18.3191 3.18097 18.8523 3.84095 18.8523ZM14.5609 6.9205C14.5348 6.8161 14.4826 6.71915 14.4043 6.64458L10.0828 2.32302C10.0045 2.24472 9.91127 2.19252 9.80686 2.16642V6.32391C9.80686 6.65203 10.0753 6.9205 10.4035 6.9205H14.5609ZM6.66357 14.102C6.92085 14.0311 7.19678 14.1392 7.33474 14.3704L8.61368 16.4995L9.89262 14.3704C10.0306 14.1392 10.3065 14.0311 10.5638 14.102C10.8211 14.1728 11 14.4077 11 14.6762V19.4489C11 19.777 10.7316 20.0455 10.4035 20.0455C10.0753 20.0455 9.80686 19.777 9.80686 19.4489V16.8314L9.12451 17.9686C9.01638 18.1476 8.82249 18.2595 8.61368 18.2595C8.40487 18.2595 8.21098 18.1476 8.10285 17.9686L7.4205 16.8314V19.4489C7.4205 19.777 7.15203 20.0455 6.82391 20.0455C6.49578 20.0455 6.22732 19.777 6.22732 19.4489V14.6762C6.22732 14.4077 6.40629 14.1728 6.66357 14.102ZM12.1932 14.6762C12.1932 14.3481 12.4617 14.0796 12.7898 14.0796H13.983C15.1352 14.0796 16.0711 15.0155 16.0711 16.1677C16.0711 17.3198 15.1352 18.2557 13.983 18.2557H13.3864V19.4489C13.3864 19.777 13.1179 20.0455 12.7898 20.0455C12.4617 20.0455 12.1932 19.777 12.1932 19.4489V17.6591V14.6762ZM13.3864 17.0625H13.983C14.4789 17.0625 14.8779 16.6636 14.8779 16.1677C14.8779 15.6717 14.4789 15.2728 13.983 15.2728H13.3864V17.0625ZM18.7557 20.0455H17.5625C17.2344 20.0455 16.966 19.777 16.966 19.4489C16.966 19.1208 17.2344 18.8523 17.5625 18.8523H18.7557C19.0839 18.8523 19.3523 18.5839 19.3523 18.2557C19.3523 17.9276 19.0839 17.6591 18.7557 17.6591H17.8608C17.5327 17.6591 17.2642 17.3907 17.2642 17.0625C17.2642 17.0402 17.2642 17.0215 17.268 17.0029C17.2978 16.7009 17.5514 16.466 17.8608 16.466H18.7557C19.0839 16.466 19.3523 16.1975 19.3523 15.8694C19.3523 15.5412 19.0839 15.2728 18.7557 15.2728H17.5625C17.2344 15.2728 16.966 15.0043 16.966 14.6762C16.966 14.3481 17.2344 14.0796 17.5625 14.0796H18.7557C19.7438 14.0796 20.5455 14.8813 20.5455 15.8694C20.5455 16.328 20.374 16.7456 20.0906 17.0625C20.374 17.3795 20.5455 17.7971 20.5455 18.2557C20.5455 19.2438 19.7438 20.0455 18.7557 20.0455Z" fill="#00674E"/>
</svg>
