<svg width="38" height="37" viewBox="0 0 38 37" fill="none" xmlns="http://www.w3.org/2000/svg">
<rect x="1.61313" y="0.757664" width="34.8525" height="35.2394" rx="5.30365" stroke="#555555" stroke-width="1.51533"/>
<path d="M21.1391 10.7266H15.4098C15.2189 10.7265 15.0727 10.7265 14.9448 10.739C14.0355 10.8279 13.2912 11.3746 12.9756 12.1111H23.5732C23.2576 11.3746 22.5134 10.8279 21.6041 10.739C21.4762 10.7265 21.3299 10.7265 21.1391 10.7266Z" fill="#555555"/>
<path d="M22.9441 12.9531C24.0855 12.9531 25.0215 13.6424 25.3338 14.5568C25.3403 14.5759 25.3466 14.595 25.3525 14.6143C25.0257 14.5153 24.6856 14.4507 24.3413 14.4065C23.4545 14.2928 22.3339 14.2929 21.0321 14.293H20.9348H15.375C14.0732 14.2929 12.9525 14.2928 12.0657 14.4065C11.7215 14.4507 11.3813 14.5153 11.0546 14.6143C11.0605 14.595 11.0667 14.5759 11.0733 14.5568C11.3856 13.6424 12.3216 12.9531 13.463 12.9531H22.9441Z" fill="#555555"/>
<path fill-rule="evenodd" clip-rule="evenodd" d="M21.0116 15.2812H15.549C12.7789 15.2812 11.3939 15.2812 10.6158 16.0912C9.83789 16.9012 10.0209 18.1526 10.387 20.6555L10.7342 23.0289C11.0213 24.9916 11.1648 25.973 11.9012 26.5607C12.6377 27.1484 13.7238 27.1484 15.8962 27.1484H20.6644C22.8367 27.1484 23.9228 27.1484 24.6593 26.5607C25.3957 25.973 25.5392 24.9916 25.8263 23.0289L26.1735 20.6555C26.5396 18.1526 26.7226 16.9012 25.9446 16.0912C25.1666 15.2812 23.7816 15.2812 21.0116 15.2812ZM21.5635 23.8653C21.5635 23.5253 21.2572 23.2496 20.8795 23.2496H15.681C15.3033 23.2496 14.997 23.5253 14.997 23.8653C14.997 24.2053 15.3033 24.4809 15.681 24.4809H20.8795C21.2572 24.4809 21.5635 24.2053 21.5635 23.8653Z" fill="#555555"/>
</svg>
