<svg width="22" height="21" viewBox="0 0 22 21" fill="none" xmlns="http://www.w3.org/2000/svg">
<path opacity="0.2" d="M2.64771 6.68184V16.2273C2.64771 16.8873 3.18091 17.4205 3.84089 17.4205H18.1591C18.819 17.4205 19.3522 16.8873 19.3522 16.2273V6.68184C19.3522 6.02186 18.819 5.48866 18.1591 5.48866H15.0754C14.8182 5.48866 14.5907 5.3246 14.5087 5.08223L13.9867 3.51245C13.9046 3.27009 13.6772 3.10602 13.4199 3.10602L8.58006 3.10229C8.32278 3.10229 8.09533 3.26636 8.01329 3.50872L7.49128 5.0785C7.40925 5.32087 7.1818 5.48493 6.92452 5.48493L3.84089 5.48866C3.18091 5.48866 2.64771 6.02186 2.64771 6.68184ZM15.1761 11.4546C15.1761 12.5621 14.7361 13.6244 13.953 14.4075C13.1698 15.1907 12.1076 15.6307 11 15.6307C9.8924 15.6307 8.83018 15.1907 8.047 14.4075C7.26383 13.6244 6.82384 12.5621 6.82384 11.4546C6.82384 10.347 7.26383 9.28477 8.047 8.50159C8.83018 7.71842 9.8924 7.27843 11 7.27843C12.1076 7.27843 13.1698 7.71842 13.953 8.50159C14.7361 9.28477 15.1761 10.347 15.1761 11.4546Z" fill="#00674E"/>
<path d="M8.58012 1.90906C7.80828 1.90906 7.12593 2.40125 6.88357 3.13207L6.49205 4.29542H3.84095C2.52472 4.29542 1.45459 5.36556 1.45459 6.68179V16.2272C1.45459 17.5435 2.52472 18.6136 3.84095 18.6136H18.1591C19.4754 18.6136 20.5455 17.5435 20.5455 16.2272V6.68179C20.5455 5.36556 19.4754 4.29542 18.1591 4.29542H15.508L15.1202 3.13207C14.8742 2.40125 14.1918 1.90906 13.42 1.90906H8.58012ZM8.01336 3.50867C8.09539 3.2663 8.32284 3.10224 8.58012 3.10224H13.4237C13.681 3.10224 13.9084 3.2663 13.9905 3.50867L14.5125 5.07845C14.5945 5.32081 14.822 5.48487 15.0792 5.48487H18.1629C18.8228 5.48487 19.356 6.01808 19.356 6.67806V16.2235C19.356 16.8835 18.8228 17.4167 18.1629 17.4167L3.84095 17.4204C3.18097 17.4204 2.64777 16.8872 2.64777 16.2272V6.68179C2.64777 6.02181 3.18097 5.4886 3.84095 5.4886H6.92458C7.18186 5.4886 7.40931 5.32454 7.49134 5.08218L8.01336 3.5124V3.50867ZM11 15.6306C11.5485 15.6306 12.0915 15.5226 12.5982 15.3128C13.1049 15.1029 13.5652 14.7953 13.953 14.4075C14.3408 14.0197 14.6484 13.5593 14.8583 13.0527C15.0682 12.546 15.1762 12.0029 15.1762 11.4545C15.1762 10.9061 15.0682 10.363 14.8583 9.85637C14.6484 9.3497 14.3408 8.88933 13.953 8.50154C13.5652 8.11375 13.1049 7.80614 12.5982 7.59627C12.0915 7.38639 11.5485 7.27838 11 7.27838C10.4516 7.27838 9.90858 7.38639 9.40191 7.59627C8.89523 7.80614 8.43486 8.11375 8.04707 8.50154C7.65928 8.88933 7.35167 9.3497 7.1418 9.85637C6.93193 10.363 6.82391 10.9061 6.82391 11.4545C6.82391 12.0029 6.93193 12.546 7.1418 13.0527C7.35167 13.5593 7.65928 14.0197 8.04707 14.4075C8.43486 14.7953 8.89523 15.1029 9.40191 15.3128C9.90858 15.5226 10.4516 15.6306 11 15.6306ZM8.01709 11.4545C8.01709 10.6634 8.33136 9.90466 8.89078 9.34524C9.45019 8.78583 10.2089 8.47156 11 8.47156C11.7912 8.47156 12.5499 8.78583 13.1093 9.34524C13.6687 9.90466 13.983 10.6634 13.983 11.4545C13.983 12.2456 13.6687 13.0044 13.1093 13.5638C12.5499 14.1232 11.7912 14.4375 11 14.4375C10.2089 14.4375 9.45019 14.1232 8.89078 13.5638C8.33136 13.0044 8.01709 12.2456 8.01709 11.4545Z" fill="#00674E"/>
</svg>
