<svg width="50" height="51" viewBox="0 0 50 51" fill="none" xmlns="http://www.w3.org/2000/svg">
<path d="M0 8.30005C0 3.88177 3.58172 0.300049 8 0.300049H42C46.4183 0.300049 50 3.88177 50 8.30005V42.3C50 46.7183 46.4183 50.3 42 50.3H8C3.58172 50.3 0 46.7183 0 42.3V8.30005Z" fill="#FFF6AD"/>
<path d="M18.3646 17.5329C18.0541 17.2224 17.5433 17.2224 17.2329 17.5329C16.9224 17.8434 16.9224 18.3542 17.2329 18.6647L23.8682 25.3L17.2329 31.9354C16.9224 32.2459 16.9224 32.7567 17.2329 33.0672C17.5433 33.3777 18.0541 33.3777 18.3646 33.0672L25 26.4318L31.6304 33.0672C31.9408 33.3777 32.4516 33.3777 32.7621 33.0672C33.0726 32.7567 33.0726 32.2459 32.7621 31.9354L26.1318 25.3L32.7671 18.6647C33.0776 18.3542 33.0776 17.8434 32.7671 17.5329C32.4567 17.2224 31.9459 17.2224 31.6354 17.5329L25 24.1683L18.3646 17.5329Z" fill="#7B7B7B"/>
</svg>
