<svg width="16" height="16" viewBox="0 0 16 16" fill="none" xmlns="http://www.w3.org/2000/svg">
<g id="Group 1000003051">
<path id="Vector" d="M1.36463 0.232863C1.05415 -0.0776215 0.543349 -0.0776215 0.232863 0.232863C-0.0776215 0.543349 -0.0776215 1.05415 0.232863 1.36463L6.86823 8L0.232863 14.6354C-0.0776215 14.9459 -0.0776215 15.4567 0.232863 15.7671C0.543349 16.0776 1.05415 16.0776 1.36463 15.7671L8 9.13177L14.6304 15.7671C14.9408 16.0776 15.4516 16.0776 15.7621 15.7671C16.0726 15.4567 16.0726 14.9459 15.7621 14.6354L9.13177 8L15.7671 1.36463C16.0776 1.05415 16.0776 0.543349 15.7671 0.232863C15.4567 -0.0776215 14.9459 -0.0776215 14.6354 0.232863L8 6.86823L1.36463 0.232863Z" fill="black"/>
</g>
</svg>
