<svg width="19" height="19" viewBox="0 0 19 19" fill="none" xmlns="http://www.w3.org/2000/svg">
<path opacity="0.2" d="M1.94531 3.02283V12.7392C1.94531 13.3363 2.42868 13.8187 3.02697 13.8187H6.27194C6.87024 13.8187 7.3536 14.3012 7.3536 14.8983V16.5177L10.6696 14.0347C10.8555 13.893 11.0853 13.8187 11.3186 13.8187H16.0069C16.6052 13.8187 17.0885 13.3363 17.0885 12.7392V3.02283C17.0885 2.42568 16.6052 1.94324 16.0069 1.94324H3.02697C2.42868 1.94324 1.94531 2.42568 1.94531 3.02283ZM5.19029 6.26161C5.19029 5.96472 5.43366 5.72181 5.73112 5.72181H13.3027C13.6002 5.72181 13.8436 5.96472 13.8436 6.26161C13.8436 6.55849 13.6002 6.8014 13.3027 6.8014H5.73112C5.43366 6.8014 5.19029 6.55849 5.19029 6.26161ZM5.19029 9.50038C5.19029 9.20349 5.43366 8.96059 5.73112 8.96059H10.0577C10.3552 8.96059 10.5986 9.20349 10.5986 9.50038C10.5986 9.79727 10.3552 10.0402 10.0577 10.0402H5.73112C5.43366 10.0402 5.19029 9.79727 5.19029 9.50038Z" fill="#00674E"/>
<path d="M7.35347 14.8983C7.35347 14.3012 6.87011 13.8188 6.27182 13.8188H3.02684C2.42855 13.8188 1.94518 13.3363 1.94518 12.7392V3.02283C1.94518 2.42568 2.42855 1.94324 3.02684 1.94324H16.0067C16.605 1.94324 17.0884 2.42568 17.0884 3.02283V12.7392C17.0884 13.3363 16.605 13.8188 16.0067 13.8188H11.3184C11.0852 13.8188 10.8553 13.893 10.6694 14.0347L7.35347 16.5177V14.8983ZM3.02684 0.863647C1.83364 0.863647 0.863525 1.83191 0.863525 3.02283V12.7392C0.863525 13.9301 1.83364 14.8983 3.02684 14.8983H5.19016H6.27182V15.9779V17.5973C6.27182 17.8031 6.38674 17.9887 6.56927 18.0798C6.7518 18.1709 6.97151 18.1506 7.13714 18.0292L11.3184 14.8983H16.0067C17.1999 14.8983 18.1701 13.9301 18.1701 12.7392V3.02283C18.1701 1.83191 17.1999 0.863647 16.0067 0.863647H3.02684ZM5.73099 5.72181C5.43353 5.72181 5.19016 5.96472 5.19016 6.26161C5.19016 6.5585 5.43353 6.8014 5.73099 6.8014H13.3026C13.6 6.8014 13.8434 6.5585 13.8434 6.26161C13.8434 5.96472 13.6 5.72181 13.3026 5.72181H5.73099ZM5.73099 8.96059C5.43353 8.96059 5.19016 9.2035 5.19016 9.50038C5.19016 9.79727 5.43353 10.0402 5.73099 10.0402H10.0576C10.3551 10.0402 10.5984 9.79727 10.5984 9.50038C10.5984 9.2035 10.3551 8.96059 10.0576 8.96059H5.73099Z" fill="#00674E"/>
</svg>
