<svg width="21" height="21" viewBox="0 0 21 21" fill="none" xmlns="http://www.w3.org/2000/svg">
<path opacity="0.2" d="M2.14771 6.2049V7.69265L9.44103 13.0396C10.0712 13.502 10.9288 13.502 11.5589 13.0396L18.8522 7.69265V6.2049C18.8522 5.54492 18.319 5.01172 17.6591 5.01172H3.34089C2.68091 5.01172 2.14771 5.54492 2.14771 6.2049ZM2.14771 9.17294V15.7504C2.14771 16.4103 2.68091 16.9435 3.34089 16.9435H17.6591C18.319 16.9435 18.8522 16.4103 18.8522 15.7504V9.17294L12.2636 14.0016C11.2122 14.7697 9.78407 14.7697 8.73631 14.0016L2.14771 9.17294Z" fill="#00674E"/>
<path d="M3.34095 5.01154C2.68097 5.01154 2.14777 5.54474 2.14777 6.20472V7.69247L9.4411 13.0394C10.0712 13.5018 10.9288 13.5018 11.559 13.0394L18.8523 7.69247V6.20472C18.8523 5.54474 18.3191 5.01154 17.6591 5.01154H3.34095ZM2.14777 9.17276V15.7502C2.14777 16.4102 2.68097 16.9434 3.34095 16.9434H17.6591C18.3191 16.9434 18.8523 16.4102 18.8523 15.7502V9.17276L12.2637 14.0014C11.2122 14.7695 9.78413 14.7695 8.73637 14.0014L2.14777 9.17276ZM0.95459 6.20472C0.95459 4.88849 2.02472 3.81836 3.34095 3.81836H17.6591C18.9754 3.81836 20.0455 4.88849 20.0455 6.20472V15.7502C20.0455 17.0664 18.9754 18.1365 17.6591 18.1365H3.34095C2.02472 18.1365 0.95459 17.0664 0.95459 15.7502V6.20472Z" fill="#00674E"/>
</svg>
