<svg width="18" height="20" viewBox="0 0 18 20" fill="none" xmlns="http://www.w3.org/2000/svg">
<g id="calendar-duotone-light 1" clip-path="url(#clip0_1104_519)">
<path id="Vector" opacity="0.2" d="M1.25 7.50012V17.5001C1.25 18.1915 1.80859 18.7501 2.5 18.7501H15C15.6914 18.7501 16.25 18.1915 16.25 17.5001V7.50012H1.25Z" fill="#00674E"/>
<path id="Vector_2" d="M4.375 0.00012207C4.71875 0.00012207 5 0.281372 5 0.625122V2.50012H12.5V0.625122C12.5 0.281372 12.7812 0.00012207 13.125 0.00012207C13.4688 0.00012207 13.75 0.281372 13.75 0.625122V2.50012H15C16.3789 2.50012 17.5 3.62122 17.5 5.00012V6.25012V7.50012V17.5001C17.5 18.879 16.3789 20.0001 15 20.0001H2.5C1.12109 20.0001 0 18.879 0 17.5001V7.50012V6.25012V5.00012C0 3.62122 1.12109 2.50012 2.5 2.50012H3.75V0.625122C3.75 0.281372 4.03125 0.00012207 4.375 0.00012207ZM16.25 7.50012H1.25V17.5001C1.25 18.1915 1.80859 18.7501 2.5 18.7501H15C15.6914 18.7501 16.25 18.1915 16.25 17.5001V7.50012ZM15 3.75012H2.5C1.80859 3.75012 1.25 4.30872 1.25 5.00012V6.25012H16.25V5.00012C16.25 4.30872 15.6914 3.75012 15 3.75012Z" fill="#00674E"/>
</g>
<defs>
<clipPath id="clip0_1104_519">
<rect width="17.5" height="20" fill="white"/>
</clipPath>
</defs>
</svg>
