<svg width="12" height="13" viewBox="0 0 12 13" fill="none" xmlns="http://www.w3.org/2000/svg">
<path opacity="0.2" d="M2.12524 3.25L2.72954 11.4055C2.74478 11.6188 2.92251 11.7812 3.13579 11.7812H8.24185C8.45513 11.7812 8.63032 11.6162 8.6481 11.4055L9.24985 3.25H2.12524ZM3.84673 2.03125H7.52837L7.04595 1.31016C7.00786 1.2543 6.94438 1.21875 6.87583 1.21875H4.49673C4.42817 1.21875 4.3647 1.25176 4.32661 1.31016L3.84673 2.03125Z" fill="#FF4343"/>
<path d="M4.49668 1.21875H6.87578C6.94434 1.21875 7.00781 1.25176 7.0459 1.31016L7.52832 2.03125H3.84668L4.3291 1.31016C4.36719 1.2543 4.43066 1.21875 4.49922 1.21875H4.49668ZM8.99336 2.03125L8.06152 0.632227C7.79746 0.238672 7.35313 0 6.87832 0H4.49668C4.02187 0 3.57754 0.238672 3.31348 0.632227L2.38164 2.03125H2.03379H0.8125H0.609375C0.27168 2.03125 0 2.30293 0 2.64062C0 2.97832 0.27168 3.25 0.609375 3.25H0.903906L1.51328 11.4943C1.57676 12.3424 2.28262 13 3.1332 13H8.23926C9.08984 13 9.7957 12.3424 9.85918 11.4943L10.4711 3.25H10.7656C11.1033 3.25 11.375 2.97832 11.375 2.64062C11.375 2.30293 11.1033 2.03125 10.7656 2.03125H10.5625H9.34121H8.99336ZM9.2498 3.25L8.64551 11.4055C8.63027 11.6188 8.45254 11.7812 8.23926 11.7812H3.1332C2.91992 11.7812 2.74473 11.6162 2.72695 11.4055L2.1252 3.25H9.2498Z" fill="#FF4343"/>
</svg>
