<svg width="21" height="21" viewBox="0 0 21 21" fill="none" xmlns="http://www.w3.org/2000/svg">
<path opacity="0.2" d="M2.38647 4.77268V13.3636C2.38647 13.6261 2.60125 13.8409 2.86375 13.8409H18.1365C18.399 13.8409 18.6137 13.6261 18.6137 13.3636V4.77268C18.6137 4.51018 18.399 4.29541 18.1365 4.29541H2.86375C2.60125 4.29541 2.38647 4.51018 2.38647 4.77268Z" fill="#00674E"/>
<path d="M2.86368 4.29534C2.60118 4.29534 2.38641 4.51012 2.38641 4.77262V13.3635C2.38641 13.626 2.60118 13.8408 2.86368 13.8408H18.1364C18.3989 13.8408 18.6137 13.626 18.6137 13.3635V4.77262C18.6137 4.51012 18.3989 4.29534 18.1364 4.29534H2.86368ZM0.95459 4.77262C0.95459 3.71963 1.8107 2.86353 2.86368 2.86353H18.1364C19.1894 2.86353 20.0455 3.71963 20.0455 4.77262V13.3635C20.0455 14.4165 19.1894 15.2726 18.1364 15.2726H2.86368C1.8107 15.2726 0.95459 14.4165 0.95459 13.3635V4.77262ZM4.53414 16.7044H16.466C16.8627 16.7044 17.1819 17.0236 17.1819 17.4203C17.1819 17.8171 16.8627 18.1363 16.466 18.1363H4.53414C4.1374 18.1363 3.81823 17.8171 3.81823 17.4203C3.81823 17.0236 4.1374 16.7044 4.53414 16.7044Z" fill="#00674E"/>
</svg>
