<svg width="16" height="21" viewBox="0 0 16 21" fill="none" xmlns="http://www.w3.org/2000/svg">
<path d="M8.02288 5.72699C8.49753 5.72699 8.95273 5.53844 9.28836 5.20281C9.62399 4.86718 9.81254 4.41198 9.81254 3.93733C9.81254 3.46268 9.62399 3.00747 9.28836 2.67185C8.95273 2.33622 8.49753 2.14767 8.02288 2.14767C7.54823 2.14767 7.09302 2.33622 6.7574 2.67185C6.42177 3.00747 6.23322 3.46268 6.23322 3.93733C6.23322 4.41198 6.42177 4.86718 6.7574 5.20281C7.09302 5.53844 7.54823 5.72699 8.02288 5.72699ZM8.02288 0.954559C8.81396 0.954559 9.57264 1.26881 10.132 1.82819C10.6914 2.38757 11.0056 3.14625 11.0056 3.93733C11.0056 4.72841 10.6914 5.48709 10.132 6.04647C9.57264 6.60584 8.81396 6.9201 8.02288 6.9201C7.2318 6.9201 6.47312 6.60584 5.91374 6.04647C5.35437 5.48709 5.04011 4.72841 5.04011 3.93733C5.04011 3.14625 5.35437 2.38757 5.91374 1.82819C6.47312 1.26881 7.2318 0.954559 8.02288 0.954559ZM1.38995 6.42794C2.15428 5.56667 3.47416 5.48837 4.33916 6.2527L5.24145 7.05432C6.00578 7.73663 6.99755 8.11321 8.02288 8.11321C9.04821 8.11321 10.04 7.73663 10.8043 7.05432L11.7066 6.2527C12.5679 5.48837 13.8878 5.56294 14.6558 6.42794C15.4239 7.29294 15.3456 8.60909 14.4806 9.37715L13.5783 10.175C12.978 10.7082 12.3143 11.1444 11.6022 11.4837V12.688L13.4627 14.7797C14.0928 15.4881 14.1674 16.5358 13.6379 17.3262L12.4448 19.1159C11.8035 20.0741 10.5098 20.3351 9.54782 19.6938C8.58588 19.0525 8.32861 17.7587 8.96991 16.7968L9.26819 16.3494L8.57842 15.5701H7.47107L6.77757 16.3494L7.07585 16.7968C7.71715 17.755 7.45615 19.0525 6.49794 19.6938C5.53972 20.3351 4.24222 20.0741 3.60092 19.1159L2.40782 17.3262C1.8821 16.5358 1.95294 15.4918 2.58305 14.7797L4.44356 12.688V11.6925C4.44356 11.6925 4.44356 11.6925 4.44356 11.6888C4.44356 11.6851 4.44356 11.6888 4.44356 11.6851V11.48C3.73142 11.1444 3.06403 10.7045 2.46747 10.1713L1.56518 9.37715C0.703909 8.61282 0.625611 7.29294 1.38995 6.42794ZM5.63666 12.2891V12.9155C5.63666 12.9229 5.63666 12.9304 5.63666 12.9378L7.08704 14.3882C7.12432 14.3808 7.1616 14.377 7.19889 14.377H8.84314C8.88043 14.377 8.91771 14.3808 8.955 14.3882L10.4091 12.9378C10.4091 12.9304 10.4091 12.9229 10.4091 12.9155V12.2891H5.63666ZM10.4091 11.096C10.4091 10.8536 10.5545 10.6374 10.7782 10.5479C11.509 10.2459 12.1876 9.82084 12.7879 9.28767L13.6901 8.48605C14.0593 8.15795 14.0928 7.59122 13.7647 7.2221C13.4366 6.85299 12.8699 6.81943 12.5008 7.14753L11.5985 7.94915C10.6142 8.82161 9.33903 9.30631 8.02288 9.30631C6.70673 9.30631 5.4316 8.82161 4.44729 7.94543L3.545 7.14381C3.17588 6.8157 2.60915 6.84926 2.28105 7.21838C1.95294 7.58749 1.9865 8.15422 2.35562 8.48232L3.25791 9.28394C3.85819 9.81711 4.5405 10.2422 5.26755 10.5442C5.49125 10.6374 5.63294 10.8536 5.63666 11.0922H10.4091V11.096ZM11.1063 13.9259L9.83864 15.1936L10.465 15.902C10.644 16.1033 10.6664 16.4016 10.5172 16.629L9.96168 17.4605C9.68577 17.8706 9.79763 18.4261 10.2115 18.702C10.6253 18.9779 11.1772 18.8661 11.4531 18.4522L12.6462 16.6626C12.8736 16.3233 12.8401 15.8759 12.5716 15.5701L11.11 13.9259H11.1063ZM6.20712 15.1936L4.93944 13.9259L3.47788 15.5701C3.20944 15.8759 3.17588 16.3233 3.40332 16.6626L4.59642 18.4522C4.87233 18.8624 5.42787 18.9742 5.838 18.702C6.24813 18.4299 6.35999 17.8706 6.08781 17.4605L5.53227 16.629C5.38313 16.4016 5.40177 16.1033 5.58447 15.902L6.21085 15.1936H6.20712Z" fill="#00674E"/>
</svg>
