<svg width="14" height="13" viewBox="0 0 14 13" fill="none" xmlns="http://www.w3.org/2000/svg">
<path opacity="0.2" d="M4.96973 8.21779L6.46655 7.79049C6.56634 7.76234 6.65845 7.70861 6.73266 7.63441L10.169 4.1981L8.98941 3.01855L5.55566 6.45486C5.48146 6.52906 5.42773 6.62117 5.39958 6.72096L4.97229 8.21779H4.96973Z" fill="#00674E"/>
<path d="M11.4713 1.40663L11.7809 1.71623C12.0214 1.95675 12.0214 2.34567 11.7809 2.58362L11.0363 3.33076L9.85674 2.15121L10.6013 1.40663C10.8418 1.16612 11.2308 1.16612 11.4687 1.40663H11.4713ZM5.5556 6.4549L8.98935 3.0186L10.1689 4.19815L6.7326 7.6319C6.65839 7.7061 6.56628 7.75983 6.46649 7.78797L4.96967 8.21527L5.39697 6.71845C5.42511 6.61866 5.47884 6.52655 5.55305 6.45234L5.5556 6.4549ZM9.73392 0.539241L4.68565 5.58495C4.46305 5.80756 4.30185 6.08134 4.21742 6.3807L3.48563 8.93938C3.42423 9.15431 3.48308 9.38459 3.64171 9.54323C3.80035 9.70186 4.03063 9.76071 4.24556 9.69931L6.80424 8.96752C7.10616 8.88053 7.37994 8.71933 7.59999 8.49929L12.6483 3.45357C13.3672 2.73459 13.3672 1.56783 12.6483 0.848841L12.3387 0.539241C11.6197 -0.179747 10.4529 -0.179747 9.73392 0.539241ZM2.43914 1.53713C1.19562 1.53713 0.1875 2.54524 0.1875 3.78876V10.7484C0.1875 11.9919 1.19562 13 2.43914 13H9.39874C10.6423 13 11.6504 11.9919 11.6504 10.7484V7.88265C11.6504 7.54234 11.3766 7.26856 11.0363 7.26856C10.696 7.26856 10.4222 7.54234 10.4222 7.88265V10.7484C10.4222 11.3138 9.96421 11.7718 9.39874 11.7718H2.43914C1.87367 11.7718 1.41567 11.3138 1.41567 10.7484V3.78876C1.41567 3.22329 1.87367 2.76529 2.43914 2.76529H5.30485C5.64516 2.76529 5.91894 2.49151 5.91894 2.15121C5.91894 1.8109 5.64516 1.53713 5.30485 1.53713H2.43914Z" fill="#00674E"/>
</svg>
