<svg width="23" height="23" viewBox="0 0 23 23" fill="none" xmlns="http://www.w3.org/2000/svg">
<path d="M19.5475 11.3594C19.4438 11.3609 19.3476 11.4023 19.2759 11.4738C18.8122 11.9369 18.3492 12.4008 17.8856 12.8641L21.2179 16.1965C21.6813 15.733 22.145 15.2697 22.6083 14.8061C22.7601 14.653 22.7601 14.4061 22.6083 14.2529L19.8291 11.4738C19.7539 11.3988 19.6512 11.3576 19.5475 11.3594ZM17.3301 13.4196C15.4779 15.2711 13.6259 17.1228 11.7741 18.9748C11.6999 19.0485 11.6582 19.1488 11.6582 19.2534V22.0318C11.659 22.2476 11.8338 22.4223 12.0495 22.4231H14.8279C14.932 22.4239 15.0322 22.3833 15.1064 22.3102C16.959 20.4578 18.8105 18.6046 20.6624 16.7519L17.3301 13.4196Z" fill="#222222"/>
<path d="M8.97376 0.421875C6.59155 0.421875 4.65234 2.3611 4.65234 4.74331C4.65234 7.12551 6.59155 9.0647 8.97376 9.0647C11.356 9.0647 13.2952 7.12551 13.2952 4.74331C13.2952 2.3611 11.356 0.421875 8.97376 0.421875Z" fill="#222222"/>
<path d="M7.40121 9.85156C3.70835 9.85156 0.722659 12.8364 0.722659 16.5286V19.6714C0.722451 19.723 0.732408 19.7741 0.751962 19.8219C0.771515 19.8696 0.800282 19.913 0.83662 19.9497C0.872958 19.9863 0.916155 20.0154 0.963745 20.0353C1.01133 20.0552 1.06238 20.0656 1.11398 20.0658H10.8725V19.2517C10.8725 18.9393 10.9985 18.641 11.22 18.4199C12.9373 16.7025 14.654 14.9844 16.3709 13.2668C15.2285 11.2288 13.0512 9.85156 10.5448 9.85156H7.40121Z" fill="#222222"/>
</svg>
