<svg width="20" height="20" viewBox="0 0 20 20" fill="none" xmlns="http://www.w3.org/2000/svg">
<path d="M10.3468 10.9595L18.0938 4.39445C17.8162 4.25046 17.5006 4.16406 17.1677 4.16406L2.83046 4.16522C2.49755 4.16522 2.18192 4.24816 1.9043 4.39561L9.65134 10.9595C9.85178 11.13 10.1467 11.13 10.3471 10.9595L10.3468 10.9595Z" fill="#A1ABB8"/>
<path d="M13.0938 10.1854L18.9561 15.4429C19.0886 15.1745 19.168 14.8739 19.168 14.5548V6.16632C19.168 5.82996 19.0828 5.51432 18.9353 5.23438L13.0938 10.1854Z" fill="#A1ABB8"/>
<path d="M8.88733 11.8565L7.81372 10.9453L1.85938 16.2916C2.14506 16.4505 2.47914 16.545 2.82933 16.545H17.1677C17.519 16.545 17.852 16.454 18.1377 16.2916L12.1842 10.9477L11.1106 11.8589C10.7892 12.1307 10.3941 12.2689 9.99896 12.2689C9.60385 12.2655 9.20871 12.1307 8.88733 11.8565Z" fill="#A1ABB8"/>
<path d="M1.06668 5.22656C0.919229 5.50419 0.833984 5.82211 0.833984 6.15851V14.5481C0.833984 14.8661 0.911166 15.1679 1.04594 15.4363L6.90828 10.1788L1.06668 5.22656Z" fill="#A1ABB8"/>
</svg>
