<svg width="21" height="16" viewBox="0 0 21 16" fill="none" xmlns="http://www.w3.org/2000/svg">
<path opacity="0.2" d="M2.14771 3.20453V4.69228L9.44103 10.0392C10.0712 10.5016 10.9288 10.5016 11.5589 10.0392L18.8522 4.69228V3.20453C18.8522 2.54456 18.319 2.01135 17.6591 2.01135H3.34089C2.68091 2.01135 2.14771 2.54456 2.14771 3.20453ZM2.14771 6.17257V12.75C2.14771 13.41 2.68091 13.9432 3.34089 13.9432H17.6591C18.319 13.9432 18.8522 13.41 18.8522 12.75V6.17257L12.2636 11.0012C11.2122 11.7693 9.78407 11.7693 8.73631 11.0012L2.14771 6.17257Z" fill="#00674E"/>
<path d="M3.34095 2.01136C2.68097 2.01136 2.14777 2.54456 2.14777 3.20454V4.69229L9.4411 10.0392C10.0712 10.5016 10.9288 10.5016 11.559 10.0392L18.8523 4.69229V3.20454C18.8523 2.54456 18.3191 2.01136 17.6591 2.01136H3.34095ZM2.14777 6.17258V12.75C2.14777 13.41 2.68097 13.9432 3.34095 13.9432H17.6591C18.3191 13.9432 18.8523 13.41 18.8523 12.75V6.17258L12.2637 11.0012C11.2122 11.7693 9.78413 11.7693 8.73637 11.0012L2.14777 6.17258ZM0.95459 3.20454C0.95459 1.88831 2.02472 0.818176 3.34095 0.818176H17.6591C18.9754 0.818176 20.0455 1.88831 20.0455 3.20454V12.75C20.0455 14.0662 18.9754 15.1364 17.6591 15.1364H3.34095C2.02472 15.1364 0.95459 14.0662 0.95459 12.75V3.20454Z" fill="#00674E"/>
</svg>
