<svg width="21" height="21" viewBox="0 0 21 21" fill="none" xmlns="http://www.w3.org/2000/svg">
<g opacity="0.3">
<path opacity="0.2" d="M2.14771 6.20466V7.6924L9.44103 13.0393C10.0712 13.5017 10.9288 13.5017 11.5589 13.0393L18.8522 7.6924V6.20466C18.8522 5.54468 18.319 5.01147 17.6591 5.01147H3.34089C2.68091 5.01147 2.14771 5.54468 2.14771 6.20466ZM2.14771 9.1727V15.7501C2.14771 16.4101 2.68091 16.9433 3.34089 16.9433H17.6591C18.319 16.9433 18.8522 16.4101 18.8522 15.7501V9.1727L12.2636 14.0014C11.2122 14.7695 9.78407 14.7695 8.73631 14.0014L2.14771 9.1727Z" fill="#00674E"/>
<path d="M3.34095 5.0113C2.68097 5.0113 2.14777 5.5445 2.14777 6.20448V7.69223L9.4411 13.0392C10.0712 13.5015 10.9288 13.5015 11.559 13.0392L18.8523 7.69223V6.20448C18.8523 5.5445 18.3191 5.0113 17.6591 5.0113H3.34095ZM2.14777 9.17252V15.7499C2.14777 16.4099 2.68097 16.9431 3.34095 16.9431H17.6591C18.3191 16.9431 18.8523 16.4099 18.8523 15.7499V9.17252L12.2637 14.0012C11.2122 14.7693 9.78413 14.7693 8.73637 14.0012L2.14777 9.17252ZM0.95459 6.20448C0.95459 4.88825 2.02472 3.81812 3.34095 3.81812H17.6591C18.9754 3.81812 20.0455 4.88825 20.0455 6.20448V15.7499C20.0455 17.0662 18.9754 18.1363 17.6591 18.1363H3.34095C2.02472 18.1363 0.95459 17.0662 0.95459 15.7499V6.20448Z" fill="#00674E"/>
</g>
</svg>
