<svg width="25" height="19" viewBox="0 0 25 19" fill="none" xmlns="http://www.w3.org/2000/svg">
<path d="M3.125 2.46875C2.69531 2.46875 2.34375 2.82031 2.34375 3.25V4.3291L10.7666 11.2432C11.7773 12.0732 13.2275 12.0732 14.2383 11.2432L22.6562 4.3291V3.25C22.6562 2.82031 22.3047 2.46875 21.875 2.46875H3.125ZM2.34375 7.36133V15.75C2.34375 16.1797 2.69531 16.5312 3.125 16.5312H21.875C22.3047 16.5312 22.6562 16.1797 22.6562 15.75V7.36133L15.7227 13.0547C13.8477 14.5928 11.1475 14.5928 9.27734 13.0547L2.34375 7.36133ZM0 3.25C0 1.52637 1.40137 0.125 3.125 0.125H21.875C23.5986 0.125 25 1.52637 25 3.25V15.75C25 17.4736 23.5986 18.875 21.875 18.875H3.125C1.40137 18.875 0 17.4736 0 15.75V3.25Z" fill="#222222"/>
</svg>
