<svg width="54" height="54" viewBox="0 0 54 54" fill="none" xmlns="http://www.w3.org/2000/svg">
<rect x="0.5" y="0.5" width="53" height="53" rx="6.85943" fill="white"/>
<rect x="0.5" y="0.5" width="53" height="53" rx="6.85943" stroke="#A1ABB8"/>
<path d="M27.2666 18.8196C29.7703 18.8196 31.4592 19.9011 32.4221 20.8048L36.1851 17.1307C33.874 14.9826 30.8666 13.6641 27.2666 13.6641C22.0518 13.6641 17.5481 16.6567 15.3555 21.0122L19.6666 24.3604C20.7481 21.1455 23.7407 18.8196 27.2666 18.8196Z" fill="#F14336"/>
<path d="M40.0676 27.2962C40.0676 26.1999 39.9787 25.3999 39.7861 24.5703H27.2676V29.5185H34.6157C34.4676 30.7481 33.6676 32.5999 31.8898 33.8444L36.0972 37.1036C38.6157 34.7777 40.0676 31.3555 40.0676 27.2962Z" fill="#518EF8"/>
<path d="M19.6817 29.6378C19.4003 28.8082 19.2373 27.9193 19.2373 27.0008C19.2373 26.0823 19.4003 25.1934 19.6669 24.3638L15.3558 21.0156C14.4521 22.823 13.9336 24.8527 13.9336 27.0008C13.9336 29.149 14.4521 31.1786 15.3558 32.986L19.6817 29.6378Z" fill="#FBBB00"/>
<path d="M27.2674 40.3291C30.8674 40.3291 33.8896 39.1439 36.097 37.0995L31.8896 33.8402C30.7637 34.6254 29.2526 35.1736 27.2674 35.1736C23.7415 35.1736 20.7489 32.8476 19.6822 29.6328L15.3711 32.981C17.5637 37.3365 22.0526 40.3291 27.2674 40.3291Z" fill="#28B446"/>
</svg>
