<svg width="21" height="21" viewBox="0 0 21 21" fill="none" xmlns="http://www.w3.org/2000/svg">
<g id="Group 1000003045">
<path id="Vector" d="M0.5 1.21429C0.5 0.821429 0.821429 0.5 1.21429 0.5H4.07143H6.92857C7.32143 0.5 7.64286 0.821429 7.64286 1.21429C7.64286 1.60714 7.32143 1.92857 6.92857 1.92857H4.78571V9.07143H16.2143V1.92857H14.0714C13.6786 1.92857 13.3571 1.60714 13.3571 1.21429C13.3571 0.821429 13.6786 0.5 14.0714 0.5H16.9286H19.7857C20.1786 0.5 20.5 0.821429 20.5 1.21429C20.5 1.60714 20.1786 1.92857 19.7857 1.92857H17.6429V9.78571V19.0714H19.7857C20.1786 19.0714 20.5 19.3929 20.5 19.7857C20.5 20.1786 20.1786 20.5 19.7857 20.5H14.0714C13.6786 20.5 13.3571 20.1786 13.3571 19.7857C13.3571 19.3929 13.6786 19.0714 14.0714 19.0714H16.2143V10.5H4.78571V19.0714H6.92857C7.32143 19.0714 7.64286 19.3929 7.64286 19.7857C7.64286 20.1786 7.32143 20.5 6.92857 20.5H1.21429C0.821429 20.5 0.5 20.1786 0.5 19.7857C0.5 19.3929 0.821429 19.0714 1.21429 19.0714H3.35714V9.78571V1.92857H1.21429C0.821429 1.92857 0.5 1.60714 0.5 1.21429Z" fill="#00674E"/>
</g>
</svg>
