<svg width="24" height="24" viewBox="0 0 24 24" fill="none" xmlns="http://www.w3.org/2000/svg">
<path d="M15 22.75H9C3.57 22.75 1.25 20.43 1.25 15V9C1.25 3.57 3.57 1.25 9 1.25H15C20.43 1.25 22.75 3.57 22.75 9V15C22.75 20.43 20.43 22.75 15 22.75ZM9 2.75C4.39 2.75 2.75 4.39 2.75 9V15C2.75 19.61 4.39 21.25 9 21.25H15C19.61 21.25 21.25 19.61 21.25 15V9C21.25 4.39 19.61 2.75 15 2.75H9Z" fill="#008C45"/>
<path d="M14.0898 10.4946H9.75869C9.04182 10.3747 8.96217 9.74796 9.01195 9.44956L9.75869 7.80673C10.1948 7.16034 10.6548 7.65739 11.1028 7.95608C11.4613 8.19504 11.7316 8.16255 11.8496 7.95608C12.0487 7.60746 12.5341 6.88846 12.8084 6.46216C13.0324 6.11396 13.6298 6.16216 13.7911 6.46216C14.1396 7.10934 14.8664 8.5829 14.9859 9.29977C15.1053 10.0166 14.4383 10.395 14.0898 10.4946Z" stroke="#008C45"/>
<circle cx="11.0807" cy="5.74674" r="0.413405" fill="#008C45" stroke="#008C45" stroke-width="0.666667"/>
<path d="M17.5004 17.8281H15.6504C15.2404 17.8281 14.9004 17.4881 14.9004 17.0781C14.9004 16.6681 15.2404 16.3281 15.6504 16.3281H17.5004C17.9104 16.3281 18.2504 16.6681 18.2504 17.0781C18.2504 17.4881 17.9104 17.8281 17.5004 17.8281Z" fill="#008C45"/>
<path d="M12.97 17.8281H6.5C6.09 17.8281 5.75 17.4881 5.75 17.0781C5.75 16.6681 6.09 16.3281 6.5 16.3281H12.97C13.38 16.3281 13.72 16.6681 13.72 17.0781C13.72 17.4881 13.39 17.8281 12.97 17.8281Z" fill="#008C45"/>
<path d="M17.5007 15.0703H11.9707C11.5607 15.0703 11.2207 14.7303 11.2207 14.3203C11.2207 13.9103 11.5607 13.5703 11.9707 13.5703H17.5007C17.9107 13.5703 18.2507 13.9103 18.2507 14.3203C18.2507 14.7303 17.9107 15.0703 17.5007 15.0703Z" fill="#008C45"/>
<path d="M9.27 15.0703H6.5C6.09 15.0703 5.75 14.7303 5.75 14.3203C5.75 13.9103 6.09 13.5703 6.5 13.5703H9.27C9.68 13.5703 10.02 13.9103 10.02 14.3203C10.02 14.7303 9.68 15.0703 9.27 15.0703Z" fill="#008C45"/>
</svg>
