<svg width="20" height="18" viewBox="0 0 20 18" fill="none" xmlns="http://www.w3.org/2000/svg">
<path d="M9.45941 0.309715C9.77188 0.0458502 10.2267 0.0458502 10.5392 0.309715L19.705 8.08679C20.0557 8.38537 20.1008 8.90963 19.8022 9.26029C19.5036 9.61096 18.9794 9.65262 18.6287 9.35751L17.7746 8.63535V15.1105C17.7746 16.645 16.5317 17.888 14.9971 17.888H4.998C3.46342 17.888 2.22048 16.645 2.22048 15.1105V8.63535L1.36986 9.35751C1.0192 9.65609 0.491467 9.61096 0.196354 9.26029C-0.0987577 8.90963 -0.0570948 8.3819 0.293568 8.08679L9.45941 0.309715ZM9.99755 2.03873L3.88699 7.22228V15.1105C3.88699 15.725 4.38348 16.2215 4.998 16.2215H14.9971C15.6116 16.2215 16.1081 15.725 16.1081 15.1105V7.22228L9.99755 2.03873ZM8.88654 10.1109H11.1086V7.88889H8.88654V10.1109ZM7.22002 7.61114C7.22002 6.84385 7.8415 6.22237 8.60879 6.22237H11.3863C12.1536 6.22237 12.7751 6.84385 12.7751 7.61114V10.3887C12.7751 11.156 12.1536 11.7774 11.3863 11.7774H8.60879C7.8415 11.7774 7.22002 11.156 7.22002 10.3887V7.61114Z" fill="#E6F6EE"/>
</svg>
