<svg width="22" height="22" viewBox="0 0 22 22" fill="none" xmlns="http://www.w3.org/2000/svg">
<g opacity="0.6">
<path d="M10.4594 2.30972C10.7719 2.04585 11.2267 2.04585 11.5392 2.30972L20.705 10.0868C21.0557 10.3854 21.1008 10.9096 20.8022 11.2603C20.5036 11.611 19.9794 11.6526 19.6287 11.3575L18.7746 10.6354V17.1105C18.7746 18.645 17.5317 19.888 15.9971 19.888H5.998C4.46342 19.888 3.22048 18.645 3.22048 17.1105V10.6354L2.36986 11.3575C2.0192 11.6561 1.49147 11.611 1.19635 11.2603C0.901242 10.9096 0.942905 10.3819 1.29357 10.0868L10.4594 2.30972ZM10.9976 4.03873L4.88699 9.22228V17.1105C4.88699 17.725 5.38348 18.2215 5.998 18.2215H15.9971C16.6116 18.2215 17.1081 17.725 17.1081 17.1105V9.22228L10.9976 4.03873ZM9.88654 12.1109H12.1086V9.88889H9.88654V12.1109ZM8.22002 9.61114C8.22002 8.84385 8.8415 8.22237 9.60879 8.22237H12.3863C13.1536 8.22237 13.7751 8.84385 13.7751 9.61114V12.3887C13.7751 13.156 13.1536 13.7774 12.3863 13.7774H9.60879C8.8415 13.7774 8.22002 13.156 8.22002 12.3887V9.61114Z" fill="#E6F6EE"/>
</g>
</svg>
