<svg width="24" height="24" viewBox="0 0 24 24" fill="none" xmlns="http://www.w3.org/2000/svg">
<path d="M9 10.75C7.48 10.75 6.25 9.52 6.25 8C6.25 6.48 7.48 5.25 9 5.25C10.52 5.25 11.75 6.48 11.75 8C11.75 9.52 10.52 10.75 9 10.75ZM9 6.75C8.31 6.75 7.75 7.31 7.75 8C7.75 8.69 8.31 9.25 9 9.25C9.69 9.25 10.25 8.69 10.25 8C10.25 7.31 9.69 6.75 9 6.75Z" fill="#008C45"/>
<path d="M15 22.75H9C3.57 22.75 1.25 20.43 1.25 15V9C1.25 3.57 3.57 1.25 9 1.25H12C12.41 1.25 12.75 1.59 12.75 2C12.75 2.41 12.41 2.75 12 2.75H9C4.39 2.75 2.75 4.39 2.75 9V15C2.75 19.61 4.39 21.25 9 21.25H15C19.61 21.25 21.25 19.61 21.25 15V11C21.25 10.59 21.59 10.25 22 10.25C22.41 10.25 22.75 10.59 22.75 11V15C22.75 20.43 20.43 22.75 15 22.75Z" fill="#008C45"/>
<path d="M18.9395 8.35848C18.0695 8.35848 16.0295 7.28848 15.3995 5.33848C14.9695 3.98848 15.4695 2.21848 17.0295 1.71848C17.6895 1.50848 18.3795 1.59848 18.9295 1.93848C19.4695 1.59848 20.1795 1.49848 20.8495 1.71848C22.4095 2.21848 22.9095 3.98848 22.4795 5.33848C21.8495 7.32848 19.7095 8.35848 18.9395 8.35848ZM16.8295 4.87848C17.2595 6.20848 18.6995 6.82848 18.9595 6.85848C19.2495 6.82848 20.6595 6.12848 21.0495 4.87848C21.2595 4.20848 21.0495 3.35848 20.3895 3.13848C20.1095 3.04848 19.7395 3.09848 19.5695 3.35848C19.4295 3.56848 19.1995 3.69848 18.9595 3.69848C18.7295 3.69848 18.4795 3.58848 18.3395 3.38848C18.1295 3.09848 17.7595 3.05848 17.4995 3.13848C16.8295 3.35848 16.6195 4.20848 16.8295 4.87848Z" fill="#008C45"/>
<path d="M2.67075 19.7025C2.43075 19.7025 2.19075 19.5825 2.05075 19.3725C1.82075 19.0325 1.91075 18.5625 2.26075 18.3325L7.19075 15.0225C8.27075 14.2925 9.76075 14.3825 10.7407 15.2125L11.0707 15.5025C11.5707 15.9325 12.4207 15.9325 12.9107 15.5025L17.0707 11.9325C18.1307 11.0225 19.8007 11.0225 20.8707 11.9325L22.5007 13.3325C22.8107 13.6025 22.8507 14.0725 22.5807 14.3925C22.3107 14.7025 21.8407 14.7425 21.5207 14.4725L19.8907 13.0725C19.3907 12.6425 18.5407 12.6425 18.0407 13.0725L13.8807 16.6425C12.8207 17.5525 11.1507 17.5525 10.0807 16.6425L9.75075 16.3525C9.29075 15.9625 8.53075 15.9225 8.02075 16.2725L3.09075 19.5825C2.96075 19.6625 2.81075 19.7025 2.67075 19.7025Z" fill="#008C45"/>
</svg>
