<svg width="24" height="24" viewBox="0 0 24 24" fill="none" xmlns="http://www.w3.org/2000/svg">
<path d="M17.5999 22.5569H6.39985C4.57984 22.5569 2.91985 21.1569 2.61985 19.3569L1.28984 11.3969C1.07984 10.1569 1.67985 8.56694 2.66985 7.77694L9.59986 2.22689C10.9399 1.14689 13.0498 1.1569 14.3998 2.2369L21.3299 7.77694C22.3099 8.56694 22.9099 10.1569 22.7099 11.3969L21.3799 19.3569C21.0799 21.1269 19.3899 22.5569 17.5999 22.5569ZM11.9899 2.93691C11.4599 2.93691 10.9298 3.09688 10.5398 3.40688L3.60985 8.95693C3.03985 9.41693 2.64986 10.4369 2.76986 11.1569L4.09986 19.1169C4.27986 20.1669 5.32984 21.0569 6.39985 21.0569H17.5999C18.6699 21.0569 19.7198 20.1669 19.8998 19.1069L21.2298 11.1469C21.3498 10.4269 20.9499 9.39692 20.3899 8.94692L13.4599 3.40688C13.0599 3.09688 12.5299 2.93691 11.9899 2.93691Z" fill="#555555"/>
<path d="M12 16.25C10.21 16.25 8.75 14.79 8.75 13C8.75 11.21 10.21 9.75 12 9.75C13.79 9.75 15.25 11.21 15.25 13C15.25 14.79 13.79 16.25 12 16.25ZM12 11.25C11.04 11.25 10.25 12.04 10.25 13C10.25 13.96 11.04 14.75 12 14.75C12.96 14.75 13.75 13.96 13.75 13C13.75 12.04 12.96 11.25 12 11.25Z" fill="#555555"/>
</svg>
