<svg width="21" height="21" viewBox="0 0 21 21" fill="none" xmlns="http://www.w3.org/2000/svg">
<g clip-path="url(#clip0_557_1282)">
<path opacity="0.2" d="M9.5 6.625C9.5 7.19953 9.61316 7.76844 9.83303 8.29924C10.0529 8.83004 10.3752 9.31234 10.7814 9.71859C11.1877 10.1248 11.67 10.4471 12.2008 10.667C12.7316 10.8868 13.3005 11 13.875 11C14.4495 11 15.0184 10.8868 15.5492 10.667C16.08 10.4471 16.5623 10.1248 16.9686 9.71859C17.3748 9.31234 17.6971 8.83004 17.917 8.29924C18.1368 7.76844 18.25 7.19953 18.25 6.625C18.25 6.05047 18.1368 5.48156 17.917 4.95076C17.6971 4.41996 17.3748 3.93766 16.9686 3.53141C16.5623 3.12515 16.08 2.80289 15.5492 2.58303C15.0184 2.36316 14.4495 2.25 13.875 2.25C13.3005 2.25 12.7316 2.36316 12.2008 2.58303C11.67 2.80289 11.1877 3.12515 10.7814 3.53141C10.3752 3.93766 10.0529 4.41996 9.83303 4.95076C9.61316 5.48156 9.5 6.05047 9.5 6.625Z" fill="#00674E"/>
<path d="M13.8752 2.25C15.0356 2.25 16.1484 2.71094 16.9688 3.53141C17.7893 4.35188 18.2502 5.46468 18.2502 6.625C18.2502 7.78532 17.7893 8.89812 16.9688 9.71859C16.1484 10.5391 15.0356 11 13.8752 11C12.7149 11 11.6021 10.5391 10.7817 9.71859C9.96118 8.89812 9.50024 7.78532 9.50024 6.625C9.50024 5.46468 9.96118 4.35188 10.7817 3.53141C11.6021 2.71094 12.7149 2.25 13.8752 2.25ZM13.8752 12.25C16.9807 12.25 19.5002 9.73047 19.5002 6.625C19.5002 3.51953 16.9807 1 13.8752 1C10.7698 1 8.25024 3.51953 8.25024 6.625C8.25024 7.95312 8.71118 9.17187 9.48071 10.1367L2.18384 17.4336C1.94165 17.6758 1.94165 18.0742 2.18384 18.3164L4.68384 20.8164C4.92603 21.0586 5.32446 21.0586 5.56665 20.8164C5.80884 20.5742 5.80884 20.1758 5.56665 19.9336L3.50806 17.875L5.12524 16.2578L7.18384 18.3164C7.42602 18.5586 7.82446 18.5586 8.06665 18.3164C8.30884 18.0742 8.30884 17.6758 8.06665 17.4336L6.00806 15.375L10.3635 11.0195C11.3284 11.7891 12.5471 12.25 13.8752 12.25Z" fill="#00674E"/>
</g>
<defs>
<clipPath id="clip0_557_1282">
<rect width="17.5" height="20" fill="white" transform="translate(2 1)"/>
</clipPath>
</defs>
</svg>
