<svg width="21" height="21" viewBox="0 0 21 21" fill="none" xmlns="http://www.w3.org/2000/svg">
<path d="M10.4997 0.500018C16.0224 0.500018 20.5001 4.97698 20.5003 10.4997C20.5003 16.0225 16.0225 20.5003 10.4997 20.5003C4.97698 20.5001 0.500018 16.0224 0.500018 10.4997C0.500203 4.97709 4.97709 0.500206 10.4997 0.500018Z" fill="white" stroke="#A8A8A8"/>
<path d="M4.14575 10.838C4.14575 14.3495 6.9925 17.1959 10.5037 17.1959C14.0152 17.1959 16.8616 14.3492 16.8616 10.838H4.14575Z" fill="#4B4B4B"/>
<path d="M10.5037 12.0607C8.41278 12.0607 6.55769 13.0703 5.39893 14.6284C6.55769 16.1864 8.41278 17.196 10.5037 17.196C12.5947 17.196 14.4498 16.1864 15.6085 14.6284C14.4494 13.0703 12.5947 12.0607 10.5037 12.0607Z" fill="#00674E"/>
<path d="M7.13721 2.28072C6.26681 2.47739 5.6459 3.18501 5.51434 4.01555C5.03827 3.32222 4.17318 2.95113 3.30278 3.1478C2.16262 3.4056 1.44737 4.53912 1.70516 5.67928C2.32773 8.43201 6.74885 9.4745 6.74885 9.4745C6.74885 9.4745 10.2909 6.63107 9.66835 3.87834C9.41088 2.73785 8.27737 2.02259 7.13721 2.28072Z" fill="#00674E"/>
<path d="M13.8694 2.28072C14.7398 2.47739 15.3608 3.18501 15.4923 4.01555C15.9684 3.32222 16.8335 2.95113 17.7039 3.1478C18.844 3.4056 19.5593 4.53912 19.3015 5.67928C18.6789 8.43201 14.2578 9.4745 14.2578 9.4745C14.2578 9.4745 10.7157 6.63107 11.3383 3.87834C11.5958 2.73785 12.7293 2.02259 13.8694 2.28072Z" fill="#00674E"/>
</svg>
