<svg width="16" height="21" viewBox="0 0 16 21" fill="none" xmlns="http://www.w3.org/2000/svg">
<path opacity="0.2" d="M2.05994 8.13224C2.05994 8.71542 2.26181 9.51543 2.68051 10.5024C3.08799 11.4706 3.65996 12.5211 4.31043 13.5716C5.58522 15.6389 7.09178 17.6165 8.04506 18.8053C8.99461 17.6165 10.5049 15.6389 11.7797 13.5716C12.4264 12.5211 13.0021 11.4669 13.4096 10.5024C13.8208 9.51543 14.0227 8.71542 14.0227 8.13224C14.0227 4.82752 11.346 2.15085 8.04132 2.15085C4.73661 2.15085 2.05994 4.82752 2.05994 8.13224ZM11.032 8.13224C11.032 8.92542 10.7169 9.68611 10.1561 10.247C9.5952 10.8078 8.83451 11.1229 8.04132 11.1229C7.24814 11.1229 6.48745 10.8078 5.92658 10.247C5.36572 9.68611 5.05063 8.92542 5.05063 8.13224C5.05063 7.33905 5.36572 6.57836 5.92658 6.0175C6.48745 5.45663 7.24814 5.14154 8.04132 5.14154C8.83451 5.14154 9.5952 5.45663 10.1561 6.0175C10.7169 6.57836 11.032 7.33905 11.032 8.13224Z" fill="#00674E"/>
<path d="M14.0227 8.13222C14.0227 4.82751 11.346 2.15084 8.04131 2.15084C4.7366 2.15084 2.05993 4.82751 2.05993 8.13222C2.05993 8.71541 2.2618 9.51542 2.68049 10.5023C3.08798 11.4706 3.65995 12.5211 4.31042 13.5715C5.58521 15.6389 7.09177 17.6165 8.04505 18.8053C8.9946 17.6165 10.5049 15.6389 11.7797 13.5715C12.4264 12.5211 13.0021 11.4668 13.4096 10.5023C13.8208 9.51542 14.0227 8.71541 14.0227 8.13222ZM15.219 8.13222C15.219 11.3996 10.8451 17.2165 8.92731 19.6165C8.46749 20.1885 7.61514 20.1885 7.15532 19.6165C5.23754 17.2165 0.863647 11.3996 0.863647 8.13222C0.863647 4.16956 4.07864 0.954559 8.04131 0.954559C12.004 0.954559 15.219 4.16956 15.219 8.13222ZM6.2469 8.13222C6.2469 8.60813 6.43595 9.06455 6.77247 9.40107C7.10899 9.73759 7.5654 9.92664 8.04131 9.92664C8.51722 9.92664 8.97364 9.73759 9.31016 9.40107C9.64668 9.06455 9.83573 8.60813 9.83573 8.13222C9.83573 7.65632 9.64668 7.1999 9.31016 6.86338C8.97364 6.52686 8.51722 6.33781 8.04131 6.33781C7.5654 6.33781 7.10899 6.52686 6.77247 6.86338C6.43595 7.1999 6.2469 7.65632 6.2469 8.13222ZM8.04131 11.1229C7.24813 11.1229 6.48744 10.8078 5.92657 10.247C5.36571 9.6861 5.05062 8.92541 5.05062 8.13222C5.05062 7.33904 5.36571 6.57835 5.92657 6.01748C6.48744 5.45662 7.24813 5.14153 8.04131 5.14153C8.83449 5.14153 9.59519 5.45662 10.1561 6.01748C10.7169 6.57835 11.032 7.33904 11.032 8.13222C11.032 8.92541 10.7169 9.6861 10.1561 10.247C9.59519 10.8078 8.83449 11.1229 8.04131 11.1229Z" fill="#00674E"/>
</svg>
