<svg width="20" height="21" viewBox="0 0 20 21" fill="none" xmlns="http://www.w3.org/2000/svg">
<path d="M9.99935 2.53125C6.77435 2.53125 4.16602 5.13958 4.16602 8.36458C4.16602 12.7396 9.99935 19.1979 9.99935 19.1979C9.99935 19.1979 15.8327 12.7396 15.8327 8.36458C15.8327 5.13958 13.2243 2.53125 9.99935 2.53125ZM9.99935 10.4479C9.44681 10.4479 8.91691 10.2284 8.52621 9.83772C8.13551 9.44702 7.91602 8.91712 7.91602 8.36458C7.91602 7.81205 8.13551 7.28215 8.52621 6.89144C8.91691 6.50074 9.44681 6.28125 9.99935 6.28125C10.5519 6.28125 11.0818 6.50074 11.4725 6.89144C11.8632 7.28215 12.0827 7.81205 12.0827 8.36458C12.0827 8.91712 11.8632 9.44702 11.4725 9.83772C11.0818 10.2284 10.5519 10.4479 9.99935 10.4479Z" fill="#A1ABB8"/>
</svg>
