<svg width="21" height="21" viewBox="0 0 21 21" fill="none" xmlns="http://www.w3.org/2000/svg">
<path opacity="0.2" d="M8.11353 8.76953V11.7525C8.11353 11.9165 8.24776 12.0508 8.41182 12.0508H12.8863C13.2144 12.0508 13.4828 12.3192 13.4828 12.6474V14.7839C13.4828 14.9219 13.5947 15.0337 13.7327 15.0337C13.7961 15.0337 13.8557 15.0114 13.9042 14.9666L18.8223 10.3281C18.841 10.3095 18.8522 10.2871 18.8522 10.261C18.8522 10.2349 18.841 10.2088 18.8223 10.1939L13.9042 5.5554C13.8594 5.51065 13.7961 5.48828 13.7327 5.48828C13.5947 5.48828 13.4828 5.60014 13.4828 5.7381V7.87464C13.4828 8.20277 13.2144 8.47124 12.8863 8.47124H8.41182C8.24776 8.47124 8.11353 8.60547 8.11353 8.76953Z" fill="#00674E"/>
<path d="M18.8225 10.1943C18.8411 10.213 18.8523 10.2354 18.8523 10.2615C18.8523 10.2876 18.8411 10.3137 18.8225 10.3286L13.9043 14.9671C13.8596 15.0118 13.7962 15.0342 13.7328 15.0342C13.5949 15.0342 13.483 14.9223 13.483 14.7844V12.6478C13.483 12.3197 13.2145 12.0512 12.8864 12.0512H8.41198C8.24791 12.0512 8.11368 11.917 8.11368 11.7529V8.76998C8.11368 8.60591 8.24791 8.47168 8.41198 8.47168H12.8864C13.2145 8.47168 13.483 8.20321 13.483 7.87509V5.73855C13.483 5.60059 13.5949 5.48873 13.7328 5.48873C13.7962 5.48873 13.8559 5.51483 13.9043 5.55584L18.8225 10.1943ZM20.0455 10.2615C20.0455 9.90723 19.9001 9.56792 19.6428 9.32555L14.7209 4.68706C14.4525 4.43723 14.0982 4.29554 13.7328 4.29554C12.9349 4.29554 12.2898 4.94061 12.2898 5.73855V7.2785H8.41198C7.58793 7.2785 6.9205 7.94593 6.9205 8.76998V11.7529C6.9205 12.577 7.58793 13.2444 8.41198 13.2444H12.2898V14.7844C12.2898 15.5823 12.9349 16.2274 13.7328 16.2274C14.102 16.2274 14.4562 16.0857 14.7209 15.8358L19.6428 11.1974C19.9001 10.955 20.0455 10.6157 20.0455 10.2615ZM7.51709 3.10236C7.84521 3.10236 8.11368 2.8339 8.11368 2.50577C8.11368 2.17765 7.84521 1.90918 7.51709 1.90918H3.93754C2.28946 1.90918 0.95459 3.24405 0.95459 4.89213V15.6308C0.95459 17.2789 2.28946 18.6137 3.93754 18.6137H7.51709C7.84521 18.6137 8.11368 18.3453 8.11368 18.0171C8.11368 17.689 7.84521 17.4205 7.51709 17.4205H3.93754C2.94944 17.4205 2.14777 16.6189 2.14777 15.6308V4.89213C2.14777 3.90403 2.94944 3.10236 3.93754 3.10236H7.51709Z" fill="#00674E"/>
</svg>
