<svg width="21" height="21" viewBox="0 0 21 21" fill="none" xmlns="http://www.w3.org/2000/svg">
<path opacity="0.2" d="M2.14771 4.29548V12.9982L4.67203 10.4739C5.25371 9.89225 6.19707 9.89225 6.78247 10.4739L9.3068 12.9982L14.2175 8.08756C14.7992 7.50588 15.7425 7.50588 16.3279 8.08756L18.8522 10.6119V4.29548C18.8522 3.6355 18.319 3.10229 17.6591 3.10229H3.34089C2.68091 3.10229 2.14771 3.6355 2.14771 4.29548ZM8.11361 6.08525C8.11361 6.55993 7.92505 7.01516 7.5894 7.35081C7.25375 7.68646 6.79852 7.87502 6.32384 7.87502C5.84916 7.87502 5.39393 7.68646 5.05828 7.35081C4.72263 7.01516 4.53407 6.55993 4.53407 6.08525C4.53407 5.61057 4.72263 5.15534 5.05828 4.81969C5.39393 4.48404 5.84916 4.29548 6.32384 4.29548C6.79852 4.29548 7.25375 4.48404 7.5894 4.81969C7.92505 5.15534 8.11361 5.61057 8.11361 6.08525Z" fill="#00674E"/>
<path d="M3.34095 3.10236C2.68097 3.10236 2.14777 3.63556 2.14777 4.29554V12.9983L4.6721 10.474C5.25377 9.89231 6.19713 9.89231 6.78254 10.474L9.30686 12.9983L14.2176 8.08762C14.7992 7.50595 15.7426 7.50595 16.328 8.08762L18.8523 10.6119V4.29554C18.8523 3.63556 18.3191 3.10236 17.6591 3.10236H3.34095ZM2.14777 14.6837V16.2274C2.14777 16.8873 2.68097 17.4205 3.34095 17.4205H4.88463L8.46418 13.841L5.93985 11.3167C5.82426 11.2011 5.6341 11.2011 5.51851 11.3167L2.14777 14.6837ZM15.4853 8.93031C15.3697 8.81472 15.1796 8.81472 15.064 8.93031L6.57 17.4205H17.6591C18.3191 17.4205 18.8523 16.8873 18.8523 16.2274V12.2973L15.4853 8.93031ZM0.95459 4.29554C0.95459 2.97931 2.02472 1.90918 3.34095 1.90918H17.6591C18.9754 1.90918 20.0455 2.97931 20.0455 4.29554V16.2274C20.0455 17.5436 18.9754 18.6137 17.6591 18.6137H3.34095C2.02472 18.6137 0.95459 17.5436 0.95459 16.2274V4.29554ZM6.9205 6.08532C6.9205 5.92709 6.85764 5.77535 6.74576 5.66346C6.63388 5.55158 6.48213 5.48873 6.32391 5.48873C6.16568 5.48873 6.01394 5.55158 5.90205 5.66346C5.79017 5.77535 5.72732 5.92709 5.72732 6.08532C5.72732 6.24354 5.79017 6.39529 5.90205 6.50717C6.01394 6.61905 6.16568 6.68191 6.32391 6.68191C6.48213 6.68191 6.63388 6.61905 6.74576 6.50717C6.85764 6.39529 6.9205 6.24354 6.9205 6.08532ZM4.53414 6.08532C4.53414 5.61064 4.7227 5.1554 5.05835 4.81976C5.39399 4.48411 5.84923 4.29554 6.32391 4.29554C6.79858 4.29554 7.25382 4.48411 7.58947 4.81976C7.92512 5.1554 8.11368 5.61064 8.11368 6.08532C8.11368 6.55999 7.92512 7.01523 7.58947 7.35088C7.25382 7.68652 6.79858 7.87509 6.32391 7.87509C5.84923 7.87509 5.39399 7.68652 5.05835 7.35088C4.7227 7.01523 4.53414 6.55999 4.53414 6.08532Z" fill="#00674E"/>
</svg>
