<svg width="22" height="23" viewBox="0 0 22 23" fill="none" xmlns="http://www.w3.org/2000/svg">
<path opacity="0.2" d="M2.2522 4.3001V15.5506C2.2522 16.242 2.81188 16.8006 3.50464 16.8006H7.26198C7.95474 16.8006 8.51443 17.3593 8.51443 18.0507V19.9258L12.354 17.0507C12.5692 16.8866 12.8354 16.8006 13.1054 16.8006H18.534C19.2268 16.8006 19.7864 16.242 19.7864 15.5506V4.3001C19.7864 3.60867 19.2268 3.05005 18.534 3.05005H3.50464C2.81188 3.05005 2.2522 3.60867 2.2522 4.3001ZM6.00954 8.05026C6.00954 7.7065 6.29134 7.42524 6.63576 7.42524H15.4029C15.7473 7.42524 16.0291 7.7065 16.0291 8.05026C16.0291 8.39403 15.7473 8.67529 15.4029 8.67529H6.63576C6.29134 8.67529 6.00954 8.39403 6.00954 8.05026ZM6.00954 11.8004C6.00954 11.4567 6.29134 11.1754 6.63576 11.1754H11.6455C11.99 11.1754 12.2718 11.4567 12.2718 11.8004C12.2718 12.1442 11.99 12.4255 11.6455 12.4255H6.63576C6.29134 12.4255 6.00954 12.1442 6.00954 11.8004Z" fill="#222222"/>
<path d="M8.51443 18.0507C8.51443 17.3593 7.95475 16.8007 7.26199 16.8007H3.50465C2.81189 16.8007 2.2522 16.2421 2.2522 15.5506V4.30016C2.2522 3.60872 2.81189 3.0501 3.50465 3.0501H18.534C19.2268 3.0501 19.7864 3.60872 19.7864 4.30016V15.5506C19.7864 16.2421 19.2268 16.8007 18.534 16.8007H13.1054C12.8354 16.8007 12.5692 16.8866 12.354 17.0507L8.51443 19.9258V18.0507ZM3.50465 1.80005C2.12304 1.80005 0.999756 2.92119 0.999756 4.30016V15.5506C0.999756 16.9296 2.12304 18.0507 3.50465 18.0507H6.00954H7.26199V19.3008V21.1759C7.26199 21.4142 7.39506 21.629 7.60641 21.7345C7.81776 21.84 8.07216 21.8165 8.26394 21.6759L13.1054 18.0507H18.534C19.9156 18.0507 21.0389 16.9296 21.0389 15.5506V4.30016C21.0389 2.92119 19.9156 1.80005 18.534 1.80005H3.50465ZM6.63576 7.42529C6.29134 7.42529 6.00954 7.70655 6.00954 8.05032C6.00954 8.39408 6.29134 8.67535 6.63576 8.67535H15.4029C15.7473 8.67535 16.0291 8.39408 16.0291 8.05032C16.0291 7.70655 15.7473 7.42529 15.4029 7.42529H6.63576ZM6.63576 11.1755C6.29134 11.1755 6.00954 11.4567 6.00954 11.8005C6.00954 12.1442 6.29134 12.4255 6.63576 12.4255H11.6455C11.99 12.4255 12.2718 12.1442 12.2718 11.8005C12.2718 11.4567 11.99 11.1755 11.6455 11.1755H6.63576Z" fill="#222222"/>
</svg>
