<svg width="19" height="21" viewBox="0 0 19 21" fill="none" xmlns="http://www.w3.org/2000/svg">
<path d="M1.39922 9.99844C1.39922 9.83931 1.336 9.68669 1.22348 9.57417C1.11096 9.46165 0.958349 9.39844 0.799219 9.39844C0.640089 9.39844 0.487477 9.46165 0.374955 9.57417C0.262433 9.68669 0.199219 9.83931 0.199219 9.99844C0.198987 11.6452 0.81435 13.2325 1.92448 14.4487C3.03462 15.665 4.55932 16.4223 6.19922 16.572V18.9984C6.19922 19.1576 6.26243 19.3102 6.37495 19.4227C6.48748 19.5352 6.64009 19.5984 6.79922 19.5984C6.95835 19.5984 7.11096 19.5352 7.22348 19.4227C7.33601 19.3102 7.39922 19.1576 7.39922 18.9984V18.1512C7.00341 17.2875 6.79875 16.3485 6.79922 15.3984C5.36705 15.3984 3.99354 14.8295 2.98084 13.8168C1.96815 12.8041 1.39922 11.4306 1.39922 9.99844ZM10.3992 3.99844V9.51844C9.59136 9.93065 8.87712 10.5049 8.30108 11.2055C7.72505 11.906 7.29958 12.7178 7.05122 13.59C6.96642 13.5956 6.88242 13.5984 6.79922 13.5984C5.84444 13.5984 4.92877 13.2192 4.25363 12.544C3.5785 11.8689 3.19922 10.9532 3.19922 9.99844V3.99844C3.19922 3.04366 3.5785 2.12798 4.25363 1.45285C4.92877 0.777722 5.84444 0.398438 6.79922 0.398438C7.754 0.398438 8.66967 0.777722 9.3448 1.45285C10.0199 2.12798 10.3992 3.04366 10.3992 3.99844ZM16.3992 15.3984C16.3992 16.1941 16.0831 16.9571 15.5205 17.5198C14.9579 18.0824 14.1949 18.3984 13.3992 18.3984C12.6036 18.3984 11.8405 18.0824 11.2779 17.5198C10.7153 16.9571 10.3992 16.1941 10.3992 15.3984C10.3992 14.6028 10.7153 13.8397 11.2779 13.2771C11.8405 12.7145 12.6036 12.3984 13.3992 12.3984C14.1949 12.3984 14.9579 12.7145 15.5205 13.2771C16.0831 13.8397 16.3992 14.6028 16.3992 15.3984ZM18.7992 15.3984C18.7992 16.8306 18.2303 18.2041 17.2176 19.2168C16.2049 20.2295 14.8314 20.7984 13.3992 20.7984C11.9671 20.7984 10.5935 20.2295 9.58084 19.2168C8.56815 18.2041 7.99922 16.8306 7.99922 15.3984C7.99922 13.9663 8.56815 12.5928 9.58084 11.5801C10.5935 10.5674 11.9671 9.99844 13.3992 9.99844C14.8314 9.99844 16.2049 10.5674 17.2176 11.5801C18.2303 12.5928 18.7992 13.9663 18.7992 15.3984ZM9.19922 15.3984C9.19922 15.95 9.30785 16.4961 9.51892 17.0057C9.72999 17.5153 10.0394 17.9783 10.4294 18.3683C10.8194 18.7583 11.2824 19.0677 11.7919 19.2787C12.3015 19.4898 12.8477 19.5984 13.3992 19.5984C13.9508 19.5984 14.4969 19.4898 15.0065 19.2787C15.5161 19.0677 15.9791 18.7583 16.3691 18.3683C16.7591 17.9783 17.0684 17.5153 17.2795 17.0057C17.4906 16.4961 17.5992 15.95 17.5992 15.3984C17.5992 14.2845 17.1567 13.2162 16.3691 12.4286C15.5814 11.6409 14.5131 11.1984 13.3992 11.1984C12.2853 11.1984 11.217 11.6409 10.4294 12.4286C9.64172 13.2162 9.19922 14.2845 9.19922 15.3984Z" fill="#008C45"/>
</svg>
