<svg width="132" height="34" viewBox="0 0 132 34" fill="none" xmlns="http://www.w3.org/2000/svg">
<path d="M37.035 1.275V33H28.215V15.495L22.23 33H14.85L8.82 15.36V33H0V1.275H10.665L18.63 21.885L26.415 1.275H37.035Z" fill="url(#paint0_linear_523_687)"/>
<path d="M50.1957 1.275V19.68C50.1957 21.39 50.5857 22.71 51.3657 23.64C52.1757 24.57 53.3907 25.035 55.0107 25.035C56.6307 25.035 57.8457 24.57 58.6557 23.64C59.4957 22.68 59.9157 21.36 59.9157 19.68V1.275H68.7357V19.68C68.7357 22.59 68.1207 25.08 66.8907 27.15C65.6607 29.19 63.9807 30.735 61.8507 31.785C59.7507 32.805 57.4107 33.315 54.8307 33.315C52.2507 33.315 49.9407 32.805 47.9007 31.785C45.8907 30.735 44.3007 29.19 43.1307 27.15C41.9907 25.11 41.4207 22.62 41.4207 19.68V1.275H50.1957Z" fill="url(#paint1_linear_523_687)"/>
<path d="M85.0618 33.315C81.3718 33.315 78.3418 32.445 75.9718 30.705C73.6018 28.935 72.3268 26.415 72.1468 23.145H81.5518C81.6418 24.255 81.9718 25.065 82.5418 25.575C83.1118 26.085 83.8468 26.34 84.7468 26.34C85.5568 26.34 86.2168 26.145 86.7268 25.755C87.2668 25.335 87.5368 24.765 87.5368 24.045C87.5368 23.115 87.1018 22.395 86.2318 21.885C85.3618 21.375 83.9518 20.805 82.0018 20.175C79.9318 19.485 78.2518 18.825 76.9618 18.195C75.7018 17.535 74.5918 16.59 73.6318 15.36C72.7018 14.1 72.2368 12.465 72.2368 10.455C72.2368 8.415 72.7468 6.675 73.7668 5.235C74.7868 3.765 76.1968 2.655 77.9968 1.905C79.7968 1.155 81.8368 0.779999 84.1168 0.779999C87.8068 0.779999 90.7468 1.65 92.9368 3.39C95.1568 5.1 96.3418 7.515 96.4918 10.635H86.9068C86.8768 9.675 86.5768 8.955 86.0068 8.475C85.4668 7.995 84.7618 7.755 83.8918 7.755C83.2318 7.755 82.6918 7.95 82.2718 8.34C81.8518 8.73 81.6418 9.285 81.6418 10.005C81.6418 10.605 81.8668 11.13 82.3168 11.58C82.7968 12 83.3818 12.375 84.0718 12.705C84.7618 13.005 85.7818 13.395 87.1318 13.875C89.1418 14.565 90.7918 15.255 92.0818 15.945C93.4018 16.605 94.5268 17.55 95.4568 18.78C96.4168 19.98 96.8968 21.51 96.8968 23.37C96.8968 25.26 96.4168 26.955 95.4568 28.455C94.5268 29.955 93.1618 31.14 91.3618 32.01C89.5918 32.88 87.4918 33.315 85.0618 33.315Z" fill="url(#paint2_linear_523_687)"/>
<path d="M120.567 27.825H109.317L107.607 33H98.3371L109.902 1.275H120.072L131.592 33H122.277L120.567 27.825ZM118.362 21.075L114.942 10.815L111.567 21.075H118.362Z" fill="url(#paint3_linear_523_687)"/>
<defs>
<linearGradient id="paint0_linear_523_687" x1="70.6479" y1="1.67764" x2="63.4582" y2="46.87" gradientUnits="userSpaceOnUse">
<stop stop-color="#E0CC03"/>
<stop offset="1" stop-color="#00674E"/>
</linearGradient>
<linearGradient id="paint1_linear_523_687" x1="70.6479" y1="1.67764" x2="63.4582" y2="46.87" gradientUnits="userSpaceOnUse">
<stop stop-color="#E0CC03"/>
<stop offset="1" stop-color="#00674E"/>
</linearGradient>
<linearGradient id="paint2_linear_523_687" x1="70.6479" y1="1.67764" x2="63.4582" y2="46.87" gradientUnits="userSpaceOnUse">
<stop stop-color="#E0CC03"/>
<stop offset="1" stop-color="#00674E"/>
</linearGradient>
<linearGradient id="paint3_linear_523_687" x1="70.6479" y1="1.67764" x2="63.4582" y2="46.87" gradientUnits="userSpaceOnUse">
<stop stop-color="#E0CC03"/>
<stop offset="1" stop-color="#00674E"/>
</linearGradient>
</defs>
</svg>
