<svg width="14" height="21" viewBox="0 0 14 21" fill="none" xmlns="http://www.w3.org/2000/svg">
<path opacity="0.2" d="M4.14773 3.96618V10.5003C4.14773 11.9418 5.31978 13.1139 6.76136 13.1139C8.20295 13.1139 9.375 11.9418 9.375 10.5003V3.96618C9.375 2.52459 8.20295 1.35254 6.76136 1.35254C5.31978 1.35254 4.14773 2.52459 4.14773 3.96618Z" fill="#00674E"/>
<path d="M9.375 3.96635V10.5004C9.375 11.942 8.20295 13.1141 6.76136 13.1141C5.31978 13.1141 4.14773 11.942 4.14773 10.5004V3.96635C4.14773 2.52477 5.31978 1.35272 6.76136 1.35272C8.20295 1.35272 9.375 2.52477 9.375 3.96635ZM2.84091 3.96635V10.5004C2.84091 12.6649 4.59695 14.4209 6.76136 14.4209C8.92578 14.4209 10.6818 12.6649 10.6818 10.5004V3.96635C10.6818 1.80194 8.92578 0.0458984 6.76136 0.0458984C4.59695 0.0458984 2.84091 1.80194 2.84091 3.96635ZM1.53409 8.54022C1.53409 8.18084 1.24006 7.88681 0.880681 7.88681C0.521306 7.88681 0.227272 8.18084 0.227272 8.54022V10.5004C0.227272 13.89 2.80415 16.6752 6.10795 17.0019V19.6482H3.49432C3.13494 19.6482 2.84091 19.9422 2.84091 20.3016C2.84091 20.661 3.13494 20.955 3.49432 20.955H6.76136H10.0284C10.3878 20.955 10.6818 20.661 10.6818 20.3016C10.6818 19.9422 10.3878 19.6482 10.0284 19.6482H7.41477V17.0019C10.7186 16.6752 13.2955 13.89 13.2955 10.5004V8.54022C13.2955 8.18084 13.0014 7.88681 12.642 7.88681C12.2827 7.88681 11.9886 8.18084 11.9886 8.54022V10.5004C11.9886 13.3877 9.64861 15.7277 6.76136 15.7277C3.87411 15.7277 1.53409 13.3877 1.53409 10.5004V8.54022Z" fill="#00674E"/>
</svg>
