<svg width="21" height="19" viewBox="0 0 21 19" fill="none" xmlns="http://www.w3.org/2000/svg">
<path d="M0.183721 2.03782C-0.0613144 1.53368 0.0244479 0.924524 0.400168 0.512816C0.775889 0.101108 1.35989 -0.0207241 1.8663 0.197733L20.1623 8.26385C20.6442 8.47391 20.9545 8.96124 20.9545 9.49898C20.9545 10.0367 20.6442 10.524 20.1623 10.7341L1.8663 18.8002C1.36397 19.0229 0.775889 18.8968 0.400168 18.4851C0.0244479 18.0734 -0.0613144 17.4643 0.183721 16.9601L3.81024 9.50318L0.183721 2.03782ZM4.94557 10.1754L1.35172 17.5693L18.1244 10.1754H4.94557ZM18.1244 8.831L1.35172 1.43706L4.94557 8.831H18.1244Z" fill="white"/>
</svg>
