<svg width="22" height="22" viewBox="0 0 22 22" fill="none" xmlns="http://www.w3.org/2000/svg">
<g opacity="0.6">
<path d="M18.2222 9.88889C18.2222 9.58333 17.9722 9.33333 17.6667 9.33333L4.33336 9.33333C4.0278 9.33333 3.7778 9.58333 3.7778 9.88889L3.7778 18.7778C3.7778 19.0833 4.0278 19.3333 4.33336 19.3333L17.6667 19.3333C17.9722 19.3333 18.2222 19.0833 18.2222 18.7778L18.2222 9.88889ZM17.6667 7.66667C18.8924 7.66667 19.8889 8.66319 19.8889 9.88889L19.8889 18.7778C19.8889 20.0035 18.8924 21 17.6667 21L4.33336 21C3.10767 21 2.11114 20.0035 2.11114 18.7778L2.11114 9.88889C2.11114 8.66319 3.10767 7.66667 4.33336 7.66667L17.6667 7.66667ZM17.3889 4.33333C17.8507 4.33333 18.2222 4.70486 18.2222 5.16667C18.2222 5.62847 17.8507 6 17.3889 6L4.61114 6C4.14933 6 3.7778 5.62847 3.7778 5.16667C3.7778 4.70486 4.14933 4.33333 4.61114 4.33333L17.3889 4.33333ZM15.7222 1C16.1841 1 16.5556 1.37153 16.5556 1.83333C16.5556 2.29514 16.1841 2.66667 15.7222 2.66667L6.2778 2.66667C5.816 2.66667 5.44447 2.29514 5.44447 1.83333C5.44447 1.37153 5.816 0.999999 6.2778 0.999999L15.7222 1Z" fill="#E6F6EE"/>
</g>
</svg>
