<svg width="22" height="21" viewBox="0 0 22 21" fill="none" xmlns="http://www.w3.org/2000/svg">
<g clip-path="url(#clip0_523_1296)">
<path opacity="0.2" d="M1.83618 9C1.83618 8.44687 2.29118 8 2.85436 8H15.0725C15.6357 8 16.0907 8.44687 16.0907 9V9.02187C13.2366 9.275 10.9998 11.6312 10.9998 14.5C10.9998 15.8281 11.4803 17.05 12.2789 18H2.85436C2.29118 18 1.83618 17.5531 1.83618 17V9Z" fill="#00674E"/>
<path d="M16.0908 9V9.02187C16.2595 9.00625 16.4281 9 16.5999 9C16.7718 9 16.9404 9.00625 17.109 9.02187V9C17.109 7.89687 16.1958 7 15.0727 7H2.85448C1.7313 7 0.818115 7.89687 0.818115 9V17C0.818115 18.1031 1.7313 19 2.85448 19H13.3799C12.9695 18.7156 12.6004 18.3781 12.279 18H2.85448C2.2913 18 1.8363 17.5531 1.8363 17V9C1.8363 8.44688 2.2913 8 2.85448 8H15.0727C15.6358 8 16.0908 8.44688 16.0908 9ZM15.0727 5H2.85448C2.57448 5 2.34539 5.225 2.34539 5.5C2.34539 5.775 2.57448 6 2.85448 6H15.0727C15.3527 6 15.5818 5.775 15.5818 5.5C15.5818 5.225 15.3527 5 15.0727 5ZM13.5454 3H4.38175C4.10175 3 3.87266 3.225 3.87266 3.5C3.87266 3.775 4.10175 4 4.38175 4H13.5454C13.8254 4 14.0545 3.775 14.0545 3.5C14.0545 3.225 13.8254 3 13.5454 3ZM18.509 17.4563C17.9586 17.8 17.3031 18 16.5999 18C15.8968 18 15.2413 17.8 14.6908 17.4563C14.939 17.1719 15.3081 17 15.7027 17H17.4972C17.8918 17 18.2577 17.1719 18.509 17.4563ZM19.2822 16.8062C18.8431 16.3031 18.194 16 17.4972 16H15.7027C15.009 16 14.3599 16.3 13.9177 16.8062C13.3704 16.1906 13.0363 15.3813 13.0363 14.5C13.0363 12.5656 14.6304 11 16.5999 11C18.5695 11 20.1636 12.5656 20.1636 14.5C20.1636 15.3813 19.8295 16.1906 19.2822 16.8062ZM21.1818 14.5C21.1818 13.3065 20.699 12.1619 19.8398 11.318C18.9805 10.4741 17.8151 10 16.5999 10C15.3848 10 14.2194 10.4741 13.3601 11.318C12.5008 12.1619 12.0181 13.3065 12.0181 14.5C12.0181 15.6935 12.5008 16.8381 13.3601 17.682C14.2194 18.5259 15.3848 19 16.5999 19C17.8151 19 18.9805 18.5259 19.8398 17.682C20.699 16.8381 21.1818 15.6935 21.1818 14.5ZM16.5999 13C16.8025 13 16.9967 13.079 17.1399 13.2197C17.2831 13.3603 17.3636 13.5511 17.3636 13.75C17.3636 13.9489 17.2831 14.1397 17.1399 14.2803C16.9967 14.421 16.8025 14.5 16.5999 14.5C16.3974 14.5 16.2032 14.421 16.06 14.2803C15.9168 14.1397 15.8363 13.9489 15.8363 13.75C15.8363 13.5511 15.9168 13.3603 16.06 13.2197C16.2032 13.079 16.3974 13 16.5999 13ZM16.5999 15.5C17.0725 15.5 17.5257 15.3156 17.8599 14.9874C18.194 14.6592 18.3818 14.2141 18.3818 13.75C18.3818 13.2859 18.194 12.8408 17.8599 12.5126C17.5257 12.1844 17.0725 12 16.5999 12C16.1274 12 15.6742 12.1844 15.34 12.5126C15.0058 12.8408 14.8181 13.2859 14.8181 13.75C14.8181 14.2141 15.0058 14.6592 15.34 14.9874C15.6742 15.3156 16.1274 15.5 16.5999 15.5Z" fill="#00674E"/>
</g>
<defs>
<clipPath id="clip0_523_1296">
<rect width="20.3636" height="16" fill="white" transform="translate(0.818115 3)"/>
</clipPath>
</defs>
</svg>
