<svg width="21" height="16" viewBox="0 0 21 16" fill="none" xmlns="http://www.w3.org/2000/svg">
<path d="M4.83789 4.3103C6.26627 2.98466 8.16526 1.92415 10.4984 1.92415C12.8315 1.92415 14.7305 2.98466 16.1589 4.3103C17.5873 5.63594 18.5417 7.22672 18.9825 8.28723C18.5417 9.34774 17.5873 10.9385 16.1589 12.2642C14.7305 13.5898 12.8315 14.6503 10.4984 14.6503C8.16526 14.6503 6.26627 13.5898 4.83789 12.2642C3.40951 10.9385 2.45505 9.34774 2.01428 8.28723C2.45505 7.22672 3.40951 5.63594 4.83789 4.3103ZM10.4984 0.863632C7.82059 0.863632 5.67636 2.08322 4.11542 3.5348C2.56442 4.97312 1.5271 6.69646 1.03661 7.87959C0.927248 8.14141 0.927248 8.43305 1.03661 8.69486C1.5271 9.878 2.56442 11.6013 4.11542 13.0397C5.67636 14.4912 7.82059 15.7108 10.4984 15.7108C13.1762 15.7108 15.3204 14.4912 16.8814 13.0397C18.4324 11.598 19.4697 9.878 19.9635 8.69486C20.0728 8.43305 20.0728 8.14141 19.9635 7.87959C19.4697 6.69646 18.4324 4.97312 16.8814 3.5348C15.3204 2.08322 13.1762 0.863632 10.4984 0.863632ZM7.31685 8.28723C7.31685 7.44343 7.65204 6.63419 8.2487 6.03754C8.84535 5.44089 9.65459 5.10569 10.4984 5.10569C11.3422 5.10569 12.1514 5.44089 12.7481 6.03754C13.3447 6.63419 13.6799 7.44343 13.6799 8.28723C13.6799 9.13103 13.3447 9.94026 12.7481 10.5369C12.1514 11.1336 11.3422 11.4688 10.4984 11.4688C9.65459 11.4688 8.84535 11.1336 8.2487 10.5369C7.65204 9.94026 7.31685 9.13103 7.31685 8.28723ZM14.7404 8.28723C14.7404 7.16217 14.2935 6.08318 13.498 5.28764C12.7024 4.4921 11.6235 4.04517 10.4984 4.04517C9.37332 4.04517 8.29434 4.4921 7.4988 5.28764C6.70326 6.08318 6.25633 7.16217 6.25633 8.28723C6.25633 9.41229 6.70326 10.4913 7.4988 11.2868C8.29434 12.0824 9.37332 12.5293 10.4984 12.5293C11.6235 12.5293 12.7024 12.0824 13.498 11.2868C14.2935 10.4913 14.7404 9.41229 14.7404 8.28723Z" fill="#00674E"/>
</svg>
