<?xml version="1.0" encoding="iso-8859-1"?>
<!-- Uploaded to: SVG Repo, www.svgrepo.com, Generator: SVG Repo Mixer Tools -->
<svg height="800px" width="800px" version="1.1" id="Layer_1" xmlns="http://www.w3.org/2000/svg" xmlns:xlink="http://www.w3.org/1999/xlink" 
	 viewBox="0 0 512.001 512.001" xml:space="preserve">
<g>
	<path style="fill:#748993;" d="M114.417,505.408c8.79,8.79,23.039,8.79,31.827,0c8.788-8.788,8.79-23.039,0-31.827l-23.87-23.87
		l31.827-31.827l23.87,23.87c8.79,8.79,23.039,8.79,31.828,0c8.788-8.788,8.79-23.039,0-31.827l-47.741-47.741l-95.483,95.483
		L114.417,505.408z"/>
	<path style="fill:#748993;" d="M450.958,89.298c20.389,34.521,15.753,79.73-13.908,109.39
		c-29.66,29.66-74.869,34.297-109.39,13.908l-32.167,0.339l-0.339,32.167c52.735,37.581,126.413,32.724,173.724-14.586
		c47.311-47.311,52.167-120.99,14.586-173.724l-32.167,0.339L450.958,89.298z"/>
</g>
<path style="fill:#A2B1B7;" d="M309.741,198.688c-35.156-35.156-35.156-92.154,0-127.31s92.154-35.156,127.31,0
	c5.495,5.495,10.131,11.524,13.908,17.92l32.506-32.506c-4.308-6.045-9.163-11.819-14.586-17.241
	c-52.734-52.734-138.232-52.734-190.966,0c-47.311,47.311-52.167,120.99-14.586,173.724L10.169,466.432
	c-8.788,8.788-8.79,23.039,0,31.827c8.788,8.788,23.038,8.79,31.827,0l253.158-253.158l32.506-32.506
	C321.264,208.82,315.236,204.184,309.741,198.688z"/>
</svg>