<svg width="18" height="20" viewBox="0 0 18 20" fill="none" xmlns="http://www.w3.org/2000/svg">
<g clip-path="url(#clip0_1217_95)">
<path opacity="0.2" d="M7.5 5.625C7.5 6.19953 7.61316 6.76844 7.83303 7.29924C8.05289 7.83004 8.37515 8.31234 8.78141 8.71859C9.18766 9.12485 9.66996 9.44711 10.2008 9.66697C10.7316 9.88684 11.3005 10 11.875 10C12.4495 10 13.0184 9.88684 13.5492 9.66697C14.08 9.44711 14.5623 9.12485 14.9686 8.71859C15.3748 8.31234 15.6971 7.83004 15.917 7.29924C16.1368 6.76844 16.25 6.19953 16.25 5.625C16.25 5.05047 16.1368 4.48156 15.917 3.95076C15.6971 3.41996 15.3748 2.93766 14.9686 2.53141C14.5623 2.12515 14.08 1.80289 13.5492 1.58303C13.0184 1.36316 12.4495 1.25 11.875 1.25C11.3005 1.25 10.7316 1.36316 10.2008 1.58303C9.66996 1.80289 9.18766 2.12515 8.78141 2.53141C8.37515 2.93766 8.05289 3.41996 7.83303 3.95076C7.61316 4.48156 7.5 5.05047 7.5 5.625Z" fill="#00674E"/>
<path d="M11.8752 1.25C13.0356 1.25 14.1484 1.71094 14.9688 2.53141C15.7893 3.35188 16.2502 4.46468 16.2502 5.625C16.2502 6.78532 15.7893 7.89812 14.9688 8.71859C14.1484 9.53906 13.0356 10 11.8752 10C10.7149 10 9.60212 9.53906 8.78165 8.71859C7.96118 7.89812 7.50024 6.78532 7.50024 5.625C7.50024 4.46468 7.96118 3.35188 8.78165 2.53141C9.60212 1.71094 10.7149 1.25 11.8752 1.25ZM11.8752 11.25C14.9807 11.25 17.5002 8.73047 17.5002 5.625C17.5002 2.51953 14.9807 0 11.8752 0C8.76978 0 6.25024 2.51953 6.25024 5.625C6.25024 6.95312 6.71118 8.17187 7.48071 9.13672L0.183838 16.4336C-0.0583496 16.6758 -0.0583496 17.0742 0.183838 17.3164L2.68384 19.8164C2.92603 20.0586 3.32446 20.0586 3.56665 19.8164C3.80884 19.5742 3.80884 19.1758 3.56665 18.9336L1.50806 16.875L3.12524 15.2578L5.18384 17.3164C5.42602 17.5586 5.82446 17.5586 6.06665 17.3164C6.30884 17.0742 6.30884 16.6758 6.06665 16.4336L4.00806 14.375L8.36353 10.0195C9.32837 10.7891 10.5471 11.25 11.8752 11.25Z" fill="#00674E"/>
</g>
<defs>
<clipPath id="clip0_1217_95">
<rect width="17.5" height="20" fill="white"/>
</clipPath>
</defs>
</svg>
