<svg width="20" height="20" viewBox="0 0 20 20" fill="none" xmlns="http://www.w3.org/2000/svg">
<path opacity="0.2" d="M4.24243 3.1814V16.8178C4.24243 17.2344 4.58334 17.5753 5.00001 17.5753H7.27273C7.6894 17.5753 8.03031 17.2344 8.03031 16.8178V3.1814C8.03031 2.76474 7.6894 2.42383 7.27273 2.42383H5.00001C4.58334 2.42383 4.24243 2.76474 4.24243 3.1814ZM12.5758 3.1814V16.8178C12.5758 17.2344 12.9167 17.5753 13.3333 17.5753H15.6061C16.0227 17.5753 16.3636 17.2344 16.3636 16.8178V3.1814C16.3636 2.76474 16.0227 2.42383 15.6061 2.42383H13.3333C12.9167 2.42383 12.5758 2.76474 12.5758 3.1814Z" fill="#00674E"/>
<path d="M4.99999 2.42433C4.58333 2.42433 4.24242 2.76524 4.24242 3.18191V16.8183C4.24242 17.2349 4.58333 17.5758 4.99999 17.5758H7.27272C7.68939 17.5758 8.03029 17.2349 8.03029 16.8183V3.18191C8.03029 2.76524 7.68939 2.42433 7.27272 2.42433H4.99999ZM2.72726 3.18191C2.72726 1.92717 3.74526 0.90918 4.99999 0.90918H7.27272C8.52745 0.90918 9.54545 1.92717 9.54545 3.18191V16.8183C9.54545 18.073 8.52745 19.091 7.27272 19.091H4.99999C3.74526 19.091 2.72726 18.073 2.72726 16.8183V3.18191ZM13.3333 2.42433C12.9167 2.42433 12.5757 2.76524 12.5757 3.18191V16.8183C12.5757 17.2349 12.9167 17.5758 13.3333 17.5758H15.6061C16.0227 17.5758 16.3636 17.2349 16.3636 16.8183V3.18191C16.3636 2.76524 16.0227 2.42433 15.6061 2.42433H13.3333ZM11.0606 3.18191C11.0606 1.92717 12.0786 0.90918 13.3333 0.90918H15.6061C16.8608 0.90918 17.8788 1.92717 17.8788 3.18191V16.8183C17.8788 18.073 16.8608 19.091 15.6061 19.091H13.3333C12.0786 19.091 11.0606 18.073 11.0606 16.8183V3.18191Z" fill="#00674E"/>
</svg>
