<svg width="21" height="21" viewBox="0 0 21 21" fill="none" xmlns="http://www.w3.org/2000/svg">
<path opacity="0.2" d="M2.14758 3.35081C2.14758 11.9141 9.08548 18.852 17.6451 18.8595C17.7979 18.8595 17.9172 18.7626 17.947 18.6246L18.8418 14.4492C18.8716 14.3113 18.797 14.1696 18.6666 14.1137L14.4911 12.3242C14.3681 12.272 14.2265 12.3056 14.1444 12.41L12.9067 13.9235C12.5377 14.3746 11.8927 14.4939 11.3857 14.1994C9.48811 13.0996 7.90742 11.519 6.81137 9.62511C6.51685 9.1181 6.63615 8.47314 7.08725 8.10407L8.60083 6.86635C8.70522 6.78061 8.73877 6.63894 8.68658 6.51965L6.89711 2.34423C6.84119 2.21375 6.69953 2.13919 6.56159 2.16902L2.38618 3.06375C2.24451 3.08984 2.14758 3.20914 2.14758 3.35081Z" fill="#00674E"/>
<path d="M14.9646 11.2244C14.3532 10.9635 13.6449 11.135 13.2236 11.6494L11.9859 13.163C10.271 12.1676 8.83941 10.7361 7.84402 9.02116L9.35388 7.78718C9.86835 7.36591 10.0436 6.65758 9.77888 6.04618L7.98941 1.87077C7.70981 1.21463 7.00521 0.849282 6.30806 0.998404L2.13265 1.89314C1.44669 2.03853 0.95459 2.6462 0.95459 3.3508C0.95459 12.1751 7.79556 19.4 16.4633 20.0114C16.631 20.0226 16.8025 20.0338 16.974 20.0413C16.974 20.0413 16.974 20.0413 16.9777 20.0413C17.2051 20.0487 17.4288 20.0562 17.66 20.0562C18.3646 20.0562 18.9722 19.5641 19.1176 18.8781L20.0124 14.7027C20.1615 14.0056 19.7961 13.301 19.14 13.0214L14.9646 11.2319V11.2244ZM17.6451 18.8595C9.08546 18.852 2.14756 11.9141 2.14756 3.3508C2.14756 3.20914 2.24449 3.08984 2.38243 3.06001L6.55784 2.16528C6.69578 2.13546 6.83745 2.21002 6.89337 2.3405L8.68283 6.51591C8.73502 6.63894 8.70147 6.7806 8.59709 6.86262L7.0835 8.10033C6.6324 8.46941 6.51311 9.11436 6.80762 9.62138C7.9074 11.519 9.48809 13.0996 11.3819 14.1957C11.889 14.4902 12.5339 14.3709 12.903 13.9198L14.1407 12.4062C14.2264 12.3018 14.3681 12.2683 14.4874 12.3205L18.6628 14.1099C18.7933 14.1659 18.8679 14.3075 18.838 14.4455L17.9433 18.6209C17.9135 18.7588 17.7904 18.8557 17.6525 18.8557C17.6488 18.8557 17.6451 18.8557 17.6413 18.8557L17.6451 18.8595Z" fill="#00674E"/>
</svg>
