<svg width="20" height="21" viewBox="0 0 20 21" fill="none" xmlns="http://www.w3.org/2000/svg">
<path d="M5.51667 9.85885C6.71667 12.2172 8.65 14.1422 11.0083 15.3505L12.8417 13.5172C13.0667 13.2922 13.4 13.2172 13.6917 13.3172C14.625 13.6255 15.6333 13.7922 16.6667 13.7922C17.125 13.7922 17.5 14.1672 17.5 14.6255V17.5339C17.5 17.9922 17.125 18.3672 16.6667 18.3672C8.84167 18.3672 2.5 12.0255 2.5 4.20052C2.5 3.74219 2.875 3.36719 3.33333 3.36719H6.25C6.70833 3.36719 7.08333 3.74219 7.08333 4.20052C7.08333 5.24219 7.25 6.24219 7.55833 7.17552C7.65 7.46719 7.58333 7.79219 7.35 8.02552L5.51667 9.85885Z" fill="#A1ABB8"/>
</svg>
