<svg width="21" height="21" viewBox="0 0 21 21" fill="none" xmlns="http://www.w3.org/2000/svg">
<path opacity="0.2" d="M2.14771 10.4997C2.14771 11.555 2.74057 12.4759 3.61681 12.9383C3.87036 13.0725 3.99341 13.3671 3.90765 13.6393C3.61681 14.5864 3.84799 15.6565 4.59373 16.4023C5.33947 17.148 6.4096 17.3792 7.35669 17.0883C7.62888 17.0026 7.92345 17.1256 8.05768 17.3792C8.52377 18.2591 9.44476 18.852 10.5 18.852C11.5552 18.852 12.4762 18.2591 12.9385 17.3829C13.0728 17.1293 13.3673 17.0063 13.6395 17.0921C14.5866 17.3829 15.6568 17.1517 16.4025 16.406C17.1482 15.6602 17.3794 14.5901 17.0886 13.643C17.0028 13.3708 17.1259 13.0763 17.3794 12.942C18.2594 12.4759 18.8522 11.555 18.8522 10.4997C18.8522 9.44451 18.2594 8.52353 17.3831 8.06117C17.1296 7.92694 17.0065 7.63237 17.0923 7.36017C17.3831 6.41309 17.152 5.34295 16.4062 4.59721C15.6605 3.85147 14.5904 3.62029 13.6433 3.91113C13.3711 3.99689 13.0765 3.87385 12.9423 3.62029C12.4762 2.74032 11.5552 2.14746 10.5 2.14746C9.44476 2.14746 8.52377 2.74032 8.06141 3.61657C7.92718 3.87012 7.63261 3.99316 7.36042 3.9074C6.41333 3.61657 5.34319 3.84774 4.59746 4.59348C3.85172 5.33922 3.62054 6.40936 3.91138 7.35644C3.99714 7.62864 3.87409 7.92321 3.62054 8.05744C2.74057 8.52353 2.14771 9.44451 2.14771 10.4997ZM6.49909 10.0784C6.73027 9.84721 7.1106 9.84721 7.34177 10.0784L9.3068 12.0434L13.6582 7.69203C13.8894 7.46085 14.2697 7.46085 14.5009 7.69203C14.732 7.92321 14.732 8.30353 14.5009 8.53471L9.72814 13.3074C9.49696 13.5386 9.11663 13.5386 8.88545 13.3074L6.49909 10.9211C6.26791 10.6899 6.26791 10.3096 6.49909 10.0784Z" fill="#00674E"/>
<path d="M8.06148 3.61639C8.52384 2.74015 9.44482 2.14728 10.5 2.14728C11.5553 2.14728 12.4763 2.74015 12.9386 3.61639C13.0728 3.86994 13.3674 3.99299 13.6396 3.90723C14.5867 3.61639 15.6568 3.84757 16.4026 4.59331C17.1483 5.33904 17.3795 6.40918 17.0886 7.35627C17.0029 7.62846 17.1259 7.92303 17.3795 8.05726C18.2595 8.52335 18.8523 9.44434 18.8523 10.4996C18.8523 11.5548 18.2595 12.4758 17.3832 12.9381C17.1297 13.0724 17.0066 13.3669 17.0924 13.6391C17.3832 14.5862 17.152 15.6563 16.4063 16.4021C15.6606 17.1478 14.5904 17.379 13.6433 17.0882C13.3711 17.0024 13.0766 17.1254 12.9423 17.379C12.4763 18.259 11.5553 18.8518 10.5 18.8518C9.44482 18.8518 8.52384 18.259 8.06148 17.3827C7.92725 17.1292 7.63268 17.0061 7.36048 17.0919C6.4134 17.3827 5.34326 17.1515 4.59752 16.4058C3.85178 15.6601 3.62061 14.5899 3.91144 13.6428C3.9972 13.3706 3.87416 13.0761 3.62061 12.9418C2.74063 12.4758 2.14777 11.5548 2.14777 10.4996C2.14777 9.44434 2.74063 8.52335 3.61688 8.06099C3.87043 7.92676 3.99347 7.63219 3.90771 7.36C3.61688 6.41291 3.84806 5.34277 4.59379 4.59703C5.33953 3.8513 6.40967 3.62012 7.35676 3.91096C7.62895 3.99672 7.92352 3.87367 8.05775 3.62012L8.06148 3.61639ZM10.5 0.954102C9.15399 0.954102 7.96453 1.62899 7.25235 2.65439C6.02188 2.43066 4.70566 2.79608 3.75111 3.75062C2.79656 4.70517 2.43488 6.0214 2.65487 7.25186C1.62948 7.96404 0.95459 9.1535 0.95459 10.4996C0.95459 11.8456 1.62948 13.0351 2.65487 13.7472C2.43115 14.9777 2.79656 16.2939 3.75111 17.2485C4.70566 18.203 6.02188 18.5647 7.25235 18.3447C7.96453 19.3701 9.15399 20.045 10.5 20.045C11.8461 20.045 13.0356 19.3701 13.7477 18.3447C14.9782 18.5684 16.2944 18.203 17.249 17.2485C18.2035 16.2939 18.5652 14.9777 18.3452 13.7472C19.3706 13.0351 20.0455 11.8456 20.0455 10.4996C20.0455 9.1535 19.3706 7.96404 18.3452 7.25186C18.5689 6.0214 18.2035 4.70517 17.249 3.75062C16.2944 2.79608 14.9782 2.43439 13.7477 2.65439C13.0356 1.62899 11.8461 0.954102 10.5 0.954102ZM14.5009 8.53453C14.7321 8.30336 14.7321 7.92303 14.5009 7.69185C14.2698 7.46067 13.8894 7.46067 13.6582 7.69185L9.30686 12.0432L7.34184 10.0782C7.11066 9.84703 6.73034 9.84703 6.49916 10.0782C6.26798 10.3094 6.26798 10.6897 6.49916 10.9209L8.88552 13.3073C9.1167 13.5384 9.49703 13.5384 9.7282 13.3073L14.5009 8.53453Z" fill="#00674E"/>
</svg>
