<svg width="20" height="20" viewBox="0 0 20 20" fill="none" xmlns="http://www.w3.org/2000/svg">
<path opacity="0.2" d="M3.1167 2.8381V17.1213C3.1167 17.3566 3.24249 17.5717 3.44943 17.6894C3.65638 17.807 3.9039 17.7989 4.10678 17.6772L15.793 10.5356C15.9878 10.4179 16.1055 10.2069 16.1055 9.97969C16.1055 9.75246 15.9878 9.54552 15.793 9.42379L4.10678 2.28219C3.90796 2.16046 3.65638 2.1564 3.44943 2.27002C3.24249 2.38363 3.1167 2.60275 3.1167 2.8381Z" fill="#00674E"/>
<path d="M4.10261 2.2822C3.90379 2.16047 3.65221 2.15641 3.44526 2.27003C3.23832 2.38364 3.11253 2.60276 3.11253 2.83811V17.1213C3.11253 17.3566 3.23832 17.5717 3.44526 17.6894C3.65221 17.8071 3.89973 17.7989 4.10261 17.6772L15.7889 10.5356C15.9836 10.4179 16.1013 10.2069 16.1013 9.9797C16.1013 9.75247 15.9836 9.54553 15.7889 9.42379L4.10261 2.2822ZM2.81226 1.13792C3.42903 0.793015 4.17971 0.809246 4.78025 1.17444L16.4665 8.31604C17.0468 8.66906 17.3998 9.29801 17.3998 9.9797C17.3998 10.6614 17.0468 11.2863 16.4665 11.6434L4.78025 18.785C4.17971 19.1542 3.42497 19.1664 2.81226 18.8215C2.19954 18.4766 1.81812 17.8273 1.81812 17.1213V2.83811C1.81812 2.13206 2.19954 1.48283 2.81226 1.13792Z" fill="#00674E"/>
</svg>
