<svg width="21" height="21" viewBox="0 0 21 21" fill="none" xmlns="http://www.w3.org/2000/svg">
<path d="M11.2343 1.68886C11.2343 1.28501 10.9039 0.95459 10.5 0.95459C10.0962 0.95459 9.76578 1.28501 9.76578 1.68886V9.76578H1.68886C1.28501 9.76578 0.95459 10.0962 0.95459 10.5C0.95459 10.9039 1.28501 11.2343 1.68886 11.2343H9.76578V19.3112C9.76578 19.7151 10.0962 20.0455 10.5 20.0455C10.9039 20.0455 11.2343 19.7151 11.2343 19.3112V11.2343H19.3112C19.7151 11.2343 20.0455 10.9039 20.0455 10.5C20.0455 10.0962 19.7151 9.76578 19.3112 9.76578H11.2343V1.68886Z" fill="#00674E"/>
</svg>
