<svg width="21" height="21" viewBox="0 0 21 21" fill="none" xmlns="http://www.w3.org/2000/svg">
<path opacity="0.2" d="M3.11478 5.83617C3.13363 9.35282 4.57723 15.5343 10.3516 18.38V2.0293L3.82339 4.79965C3.39747 4.9768 3.11101 5.3801 3.11478 5.83617Z" fill="#00674E"/>
<path d="M10.3517 2.02864V18.3794C4.57729 15.5336 3.13369 9.35594 3.11485 5.83552C3.11108 5.37945 3.39754 4.97614 3.82345 4.79522L10.3517 2.02864ZM11.5578 18.3794V2.02487L18.086 4.79522C18.512 4.97614 18.7984 5.37945 18.7946 5.83552C18.7758 9.35217 17.3322 15.5336 11.5578 18.3794ZM11.897 0.860197C11.294 0.603893 10.6155 0.603893 10.0125 0.860197L3.35231 3.68708C2.52309 4.03762 1.90494 4.85553 1.90871 5.84306C1.92755 9.58209 3.46538 16.4232 9.95968 19.5327C10.5891 19.8343 11.3204 19.8343 11.9498 19.5327C18.4441 16.4232 19.9819 9.58209 20.0008 5.84306C20.0046 4.85553 19.3864 4.03762 18.5572 3.68708L11.897 0.860197Z" fill="#00674E"/>
</svg>
