<svg width="21" height="21" viewBox="0 0 21 21" fill="none" xmlns="http://www.w3.org/2000/svg">
<g clip-path="url(#clip0_457_973)">
<path opacity="0.2" d="M2.25 11C2.25 13.4609 3.26562 15.6836 4.90234 17.2734C5.44922 15.1055 7.41406 13.5 9.75 13.5H12.25C14.5898 13.5 16.5508 15.1055 17.0977 17.2734C18.7344 15.6836 19.75 13.4609 19.75 11C19.75 6.16797 15.832 2.25 11 2.25C6.16797 2.25 2.25 6.16797 2.25 11ZM14.125 9.125C14.125 9.9538 13.7958 10.7487 13.2097 11.3347C12.6237 11.9208 11.8288 12.25 11 12.25C10.1712 12.25 9.37634 11.9208 8.79029 11.3347C8.20424 10.7487 7.875 9.9538 7.875 9.125C7.875 8.2962 8.20424 7.50134 8.79029 6.91529C9.37634 6.32924 10.1712 6 11 6C11.8288 6 12.6237 6.32924 13.2097 6.91529C13.7958 7.50134 14.125 8.2962 14.125 9.125Z" fill="#00674E"/>
<path d="M17.0977 17.2734C16.5508 15.1055 14.5898 13.5 12.25 13.5H9.75C7.41016 13.5 5.44922 15.1055 4.90234 17.2734C3.26562 15.6836 2.25 13.4609 2.25 11C2.25 6.16797 6.16797 2.25 11 2.25C15.832 2.25 19.75 6.16797 19.75 11C19.75 13.4609 18.7344 15.6836 17.0977 17.2734ZM15.9844 18.1875C14.5742 19.1719 12.8555 19.75 11 19.75C9.14453 19.75 7.42578 19.1719 6.01172 18.1914C6.16797 16.2656 7.78125 14.75 9.75 14.75H12.25C14.2188 14.75 15.8281 16.2656 15.9883 18.1914L15.9844 18.1875ZM11 21C13.6522 21 16.1957 19.9464 18.0711 18.0711C19.9464 16.1957 21 13.6522 21 11C21 8.34784 19.9464 5.8043 18.0711 3.92893C16.1957 2.05357 13.6522 1 11 1C8.34784 1 5.8043 2.05357 3.92893 3.92893C2.05357 5.8043 1 8.34784 1 11C1 13.6522 2.05357 16.1957 3.92893 18.0711C5.8043 19.9464 8.34784 21 11 21ZM11 11C10.5027 11 10.0258 10.8025 9.67417 10.4508C9.32254 10.0992 9.125 9.62228 9.125 9.125C9.125 8.62772 9.32254 8.15081 9.67417 7.79917C10.0258 7.44754 10.5027 7.25 11 7.25C11.4973 7.25 11.9742 7.44754 12.3258 7.79917C12.6775 8.15081 12.875 8.62772 12.875 9.125C12.875 9.62228 12.6775 10.0992 12.3258 10.4508C11.9742 10.8025 11.4973 11 11 11ZM7.875 9.125C7.875 9.9538 8.20424 10.7487 8.79029 11.3347C9.37634 11.9208 10.1712 12.25 11 12.25C11.8288 12.25 12.6237 11.9208 13.2097 11.3347C13.7958 10.7487 14.125 9.9538 14.125 9.125C14.125 8.2962 13.7958 7.50134 13.2097 6.91529C12.6237 6.32924 11.8288 6 11 6C10.1712 6 9.37634 6.32924 8.79029 6.91529C8.20424 7.50134 7.875 8.2962 7.875 9.125Z" fill="#00674E"/>
</g>
<defs>
<clipPath id="clip0_457_973">
<rect width="20" height="20" fill="white" transform="translate(1 1)"/>
</clipPath>
</defs>
</svg>
