<svg width="21" height="21" viewBox="0 0 21 21" fill="none" xmlns="http://www.w3.org/2000/svg">
<path opacity="0.4" d="M2.14771 8.97124H4.53407V17.3235H2.14771V8.97124ZM6.92043 8.46041C6.9428 8.61702 7.02856 8.76617 7.17025 8.86311C7.43872 9.05327 7.81159 8.98616 8.00175 8.71396C8.2031 8.42685 8.45665 8.17703 8.76241 7.98687L8.878 7.91229C10.1942 7.07707 11.1488 5.77948 11.5589 4.27682L11.7267 3.66531C11.8572 3.18804 12.3494 2.90839 12.8267 3.03889C13.304 3.1694 13.5836 3.66158 13.4531 4.13886L13.2853 4.75036C13.0802 5.50356 12.767 6.21574 12.3643 6.87199C12.2487 7.05469 12.245 7.28587 12.3494 7.47604C12.4538 7.6662 12.6552 7.78179 12.8714 7.78179L17.6591 7.77806C18.319 7.77806 18.8522 8.31126 18.8522 8.97124C18.8522 9.39259 18.6323 9.76545 18.3004 9.97799C18.0319 10.1495 17.9462 10.4963 18.1028 10.7722C18.1997 10.9437 18.2557 11.1451 18.2557 11.3576C18.2557 11.82 17.9947 12.2189 17.6106 12.4203C17.454 12.5023 17.3384 12.6477 17.3011 12.823C17.2638 12.9982 17.3048 13.1772 17.413 13.3152C17.5696 13.5165 17.6628 13.7701 17.6628 14.0423C17.6628 14.5717 17.3198 15.0229 16.8388 15.1758C16.5479 15.269 16.3764 15.571 16.4398 15.8693C16.4584 15.9514 16.4659 16.0371 16.4659 16.1266C16.4659 16.7866 15.9327 17.3198 15.2727 17.3198H11.9355C11.3464 17.3198 10.7722 17.1445 10.28 16.8201L8.84444 15.8619C8.50886 15.6381 8.22547 15.351 8.00921 15.0192C7.8265 14.7433 7.45736 14.6687 7.18144 14.8477C7.03229 14.9446 6.9428 15.0975 6.92043 15.2578V8.45668V8.46041Z" fill="#00674E"/>
<path d="M11.7231 3.66569C11.8536 3.18842 12.3457 2.90877 12.823 3.03927C13.3003 3.16978 13.5799 3.66196 13.4494 4.13924L13.2816 4.75074C13.0766 5.50394 12.7634 6.21612 12.3607 6.87237C12.2451 7.05507 12.2413 7.28625 12.3457 7.47642C12.4502 7.66658 12.6515 7.78217 12.8678 7.78217L17.6591 7.77844C18.3191 7.77844 18.8523 8.31164 18.8523 8.97162C18.8523 9.39297 18.6323 9.76583 18.3005 9.97837C18.032 10.1499 17.9462 10.4967 18.1028 10.7726C18.1998 10.9441 18.2557 11.1455 18.2557 11.358C18.2557 11.8203 17.9947 12.2193 17.6107 12.4207C17.4541 12.5027 17.3385 12.6481 17.3012 12.8234C17.2639 12.9986 17.3049 13.1776 17.413 13.3155C17.5696 13.5169 17.6629 13.7705 17.6629 14.0426C17.6629 14.5721 17.3198 15.0233 16.8388 15.1762C16.548 15.2694 16.3765 15.5714 16.4399 15.8697C16.4585 15.9517 16.466 16.0375 16.466 16.127C16.466 16.787 15.9327 17.3202 15.2728 17.3202H11.9356C11.3465 17.3202 10.7722 17.1449 10.2801 16.8205L8.8445 15.8622C8.50892 15.6385 8.22554 15.3514 8.00928 15.0196C7.82657 14.7436 7.45743 14.6691 7.18151 14.848C6.90558 15.027 6.83101 15.3999 7.00999 15.6758C7.31201 16.1344 7.70725 16.5371 8.1808 16.8541L9.61634 17.8124C10.3024 18.271 11.1078 18.5133 11.9319 18.5133H15.269C16.5853 18.5133 17.6554 17.4432 17.6554 16.127V16.1046C18.3676 15.6907 18.8486 14.9226 18.8486 14.0389C18.8486 13.7145 18.7815 13.4013 18.6659 13.1179C19.1469 12.6854 19.4489 12.059 19.4489 11.358C19.4489 11.1156 19.4116 10.8807 19.3445 10.6607C19.777 10.2282 20.0455 9.6316 20.0455 8.97162C20.0455 7.65539 18.9754 6.58526 17.6591 6.58526H13.8708C14.102 6.0968 14.2921 5.5897 14.4338 5.06022L14.6016 4.44872C14.9036 3.33757 14.2474 2.18913 13.1362 1.88338C12.0251 1.57762 10.8766 2.2376 10.5709 3.34875L10.4031 3.96026C10.0712 5.17581 9.29941 6.22731 8.233 6.90593L8.11741 6.9805C7.67742 7.26015 7.30828 7.61811 7.01745 8.03199C6.82728 8.30046 6.8944 8.67333 7.16659 8.86349C7.43879 9.05365 7.80793 8.98654 7.99809 8.71434C8.19944 8.42723 8.45299 8.17741 8.75874 7.98725L8.87433 7.91267C10.1906 7.07745 11.1451 5.77986 11.5553 4.2772L11.7231 3.66569ZM2.14777 8.97162H4.53414V17.3239H2.14777V8.97162ZM0.95459 8.97162V17.3239C0.95459 17.9839 1.48779 18.5171 2.14777 18.5171H4.53414C5.19411 18.5171 5.72732 17.9839 5.72732 17.3239V8.97162C5.72732 8.31164 5.19411 7.77844 4.53414 7.77844H2.14777C1.48779 7.77844 0.95459 8.31164 0.95459 8.97162Z" fill="#00674E"/>
</svg>
