<svg width="17" height="20" viewBox="0 0 17 20" fill="none" xmlns="http://www.w3.org/2000/svg">
<g id="Group 1000003056">
<path id="Vector" opacity="0.2" d="M2.1167 2.8381V17.1213C2.1167 17.3566 2.24249 17.5717 2.44943 17.6894C2.65638 17.807 2.9039 17.7989 3.10678 17.6772L14.793 10.5356C14.9878 10.4179 15.1055 10.2069 15.1055 9.97969C15.1055 9.75246 14.9878 9.54552 14.793 9.42379L3.10678 2.28219C2.90796 2.16046 2.65638 2.1564 2.44943 2.27002C2.24249 2.38363 2.1167 2.60275 2.1167 2.8381Z" fill="#00674E"/>
<path id="Vector_2" d="M3.10261 2.2822C2.90379 2.16047 2.65221 2.15641 2.44526 2.27003C2.23832 2.38364 2.11253 2.60276 2.11253 2.83811V17.1213C2.11253 17.3566 2.23832 17.5717 2.44526 17.6894C2.65221 17.8071 2.89973 17.7989 3.10261 17.6772L14.7889 10.5356C14.9836 10.4179 15.1013 10.2069 15.1013 9.9797C15.1013 9.75247 14.9836 9.54553 14.7889 9.42379L3.10261 2.2822ZM1.81226 1.13792C2.42903 0.793015 3.17971 0.809246 3.78025 1.17444L15.4665 8.31604C16.0468 8.66906 16.3998 9.29801 16.3998 9.9797C16.3998 10.6614 16.0468 11.2863 15.4665 11.6434L3.78025 18.785C3.17971 19.1542 2.42497 19.1664 1.81226 18.8215C1.19954 18.4766 0.818115 17.8273 0.818115 17.1213V2.83811C0.818115 2.13206 1.19954 1.48283 1.81226 1.13792Z" fill="#00674E"/>
</g>
</svg>
