<svg width="20" height="20" viewBox="0 0 20 20" fill="none" xmlns="http://www.w3.org/2000/svg">
<path opacity="0.2" d="M7.95447 4.3182V10C7.95447 11.2536 8.97364 12.2727 10.2272 12.2727C11.4807 12.2727 12.4999 11.2536 12.4999 10V4.3182C12.4999 3.06465 11.4807 2.04547 10.2272 2.04547C8.97364 2.04547 7.95447 3.06465 7.95447 4.3182Z" fill="#00674E"/>
<path d="M12.5 4.31821V10C12.5 11.2536 11.4808 12.2728 10.2272 12.2728C8.97368 12.2728 7.9545 11.2536 7.9545 10V4.31821C7.9545 3.06466 8.97368 2.04548 10.2272 2.04548C11.4808 2.04548 12.5 3.06466 12.5 4.31821ZM6.81814 4.31821V10C6.81814 11.8821 8.34513 13.4091 10.2272 13.4091C12.1093 13.4091 13.6363 11.8821 13.6363 10V4.31821C13.6363 2.43611 12.1093 0.909119 10.2272 0.909119C8.34513 0.909119 6.81814 2.43611 6.81814 4.31821ZM5.68177 8.29548C5.68177 7.98298 5.42609 7.7273 5.11359 7.7273C4.80109 7.7273 4.54541 7.98298 4.54541 8.29548V10C4.54541 12.9475 6.78618 15.3693 9.65905 15.6534V17.9546H7.38632C7.07382 17.9546 6.81814 18.2103 6.81814 18.5228C6.81814 18.8353 7.07382 19.0909 7.38632 19.0909H10.2272H13.0681C13.3806 19.0909 13.6363 18.8353 13.6363 18.5228C13.6363 18.2103 13.3806 17.9546 13.0681 17.9546H10.7954V15.6534C13.6683 15.3693 15.909 12.9475 15.909 10V8.29548C15.909 7.98298 15.6534 7.7273 15.3409 7.7273C15.0284 7.7273 14.7727 7.98298 14.7727 8.29548V10C14.7727 12.5107 12.7379 14.5455 10.2272 14.5455C7.71657 14.5455 5.68177 12.5107 5.68177 10V8.29548Z" fill="#00674E"/>
</svg>
