<svg width="19" height="16" viewBox="0 0 19 16" fill="none" xmlns="http://www.w3.org/2000/svg">
<path d="M9.49989 0.590942C9.74989 0.590942 9.95443 0.795488 9.95443 1.04549V14.6819C9.95443 14.9319 9.74989 15.1364 9.49989 15.1364C9.24989 15.1364 9.04534 14.9319 9.04534 14.6819V1.04549C9.04534 0.795488 9.24989 0.590942 9.49989 0.590942ZM14.9544 2.40912C15.2044 2.40912 15.409 2.61367 15.409 2.86367V12.8637C15.409 13.1137 15.2044 13.3182 14.9544 13.3182C14.7044 13.3182 14.4999 13.1137 14.4999 12.8637V2.86367C14.4999 2.61367 14.7044 2.40912 14.9544 2.40912ZM6.77262 3.31822C7.02262 3.31822 7.22716 3.52276 7.22716 3.77276V11.9546C7.22716 12.2046 7.02262 12.4091 6.77262 12.4091C6.52262 12.4091 6.31807 12.2046 6.31807 11.9546V3.77276C6.31807 3.52276 6.52262 3.31822 6.77262 3.31822ZM12.2272 4.22731C12.4772 4.22731 12.6817 4.43185 12.6817 4.68185V11.0455C12.6817 11.2955 12.4772 11.5 12.2272 11.5C11.9772 11.5 11.7726 11.2955 11.7726 11.0455V4.68185C11.7726 4.43185 11.9772 4.22731 12.2272 4.22731ZM4.04534 6.04549C4.29534 6.04549 4.49989 6.25003 4.49989 6.50003V9.22731C4.49989 9.47731 4.29534 9.68185 4.04534 9.68185C3.79534 9.68185 3.5908 9.47731 3.5908 9.22731V6.50003C3.5908 6.25003 3.79534 6.04549 4.04534 6.04549ZM1.31807 6.95458C1.56807 6.95458 1.77262 7.15912 1.77262 7.40912V8.31822C1.77262 8.56822 1.56807 8.77276 1.31807 8.77276C1.06807 8.77276 0.863525 8.56822 0.863525 8.31822V7.40912C0.863525 7.15912 1.06807 6.95458 1.31807 6.95458ZM17.6817 6.95458C17.9317 6.95458 18.1363 7.15912 18.1363 7.40912V8.31822C18.1363 8.56822 17.9317 8.77276 17.6817 8.77276C17.4317 8.77276 17.2272 8.56822 17.2272 8.31822V7.40912C17.2272 7.15912 17.4317 6.95458 17.6817 6.95458Z" fill="#00674E"/>
</svg>
