<svg width="12" height="20" viewBox="0 0 12 20" fill="none" xmlns="http://www.w3.org/2000/svg">
<g id="Group 1000003057">
<path id="Vector" opacity="0.2" d="M3.95459 4.31814V9.99995C3.95459 11.2535 4.97377 12.2727 6.22732 12.2727C7.48087 12.2727 8.50004 11.2535 8.50004 9.99995V4.31814C8.50004 3.06459 7.48087 2.04541 6.22732 2.04541C4.97377 2.04541 3.95459 3.06459 3.95459 4.31814Z" fill="#00674E"/>
<path id="Vector_2" d="M8.49996 4.31815V9.99997C8.49996 11.2535 7.48078 12.2727 6.22723 12.2727C4.97368 12.2727 3.9545 11.2535 3.9545 9.99997V4.31815C3.9545 3.0646 4.97368 2.04542 6.22723 2.04542C7.48078 2.04542 8.49996 3.0646 8.49996 4.31815ZM2.81814 4.31815V9.99997C2.81814 11.8821 4.34513 13.4091 6.22723 13.4091C8.10933 13.4091 9.63632 11.8821 9.63632 9.99997V4.31815C9.63632 2.43605 8.10933 0.909058 6.22723 0.909058C4.34513 0.909058 2.81814 2.43605 2.81814 4.31815ZM1.68177 8.29542C1.68177 7.98292 1.42609 7.72724 1.11359 7.72724C0.801092 7.72724 0.54541 7.98292 0.54541 8.29542V9.99997C0.54541 12.9474 2.78618 15.3693 5.65905 15.6534V17.9545H3.38632C3.07382 17.9545 2.81814 18.2102 2.81814 18.5227C2.81814 18.8352 3.07382 19.0909 3.38632 19.0909H6.22723H9.06814C9.38064 19.0909 9.63632 18.8352 9.63632 18.5227C9.63632 18.2102 9.38064 17.9545 9.06814 17.9545H6.79541V15.6534C9.66828 15.3693 11.909 12.9474 11.909 9.99997V8.29542C11.909 7.98292 11.6534 7.72724 11.3409 7.72724C11.0284 7.72724 10.7727 7.98292 10.7727 8.29542V9.99997C10.7727 12.5106 8.73788 14.5454 6.22723 14.5454C3.71657 14.5454 1.68177 12.5106 1.68177 9.99997V8.29542Z" fill="#00674E"/>
</g>
</svg>
