<svg width="17" height="20" viewBox="0 0 17 20" fill="none" xmlns="http://www.w3.org/2000/svg">
<path d="M14.6682 19.1655C14.0712 19.166 13.506 18.8966 13.1306 18.4324L8.56853 14.3591L4.00651 18.4324C3.75448 18.7459 3.41239 18.9745 3.02638 19.0874C2.6403 19.2003 2.22893 19.192 1.84769 19.0637C1.41858 18.9293 1.04602 18.6566 0.7881 18.2881C0.530182 17.9197 0.401468 17.4764 0.422058 17.0271V4.0131C0.408375 3.18915 0.720545 2.39312 1.29072 1.79808C1.86097 1.20308 2.64299 0.857342 3.46684 0.835938H13.6499C14.4756 0.854633 15.2602 1.19927 15.8326 1.79457C16.405 2.38982 16.7186 3.18736 16.7049 4.01306V17.0678C16.7255 17.517 16.5968 17.9604 16.3389 18.3288C16.0809 18.6972 15.7084 18.97 15.2793 19.1044C15.0803 19.1579 14.8739 19.1785 14.6683 19.1655L14.6682 19.1655ZM8.55835 12.0374C8.80584 12.0377 9.04484 12.1282 9.23044 12.292L14.5358 16.966C14.5848 17.0162 14.6291 17.0707 14.6682 17.1289V4.01311C14.6821 3.72743 14.5832 3.44762 14.3927 3.23426C14.2022 3.02089 13.9354 2.89099 13.6499 2.8726H3.4668C3.18135 2.89098 2.91453 3.02089 2.72399 3.23426C2.53353 3.44764 2.43456 3.72743 2.44849 4.01311V17.0678C2.44849 17.0067 2.51978 17.0169 2.58087 16.966L7.88627 12.292C8.07187 12.1282 8.31086 12.0377 8.55835 12.0374Z" fill="#555555"/>
</svg>
