<svg width="26" height="26" viewBox="0 0 26 26" fill="none" xmlns="http://www.w3.org/2000/svg">
<path opacity="0.2" d="M3.4585 10.6704C3.4585 11.6965 3.66059 12.7125 4.05325 13.6604C4.4459 14.6084 5.02142 15.4697 5.74695 16.1953C6.47248 16.9208 7.3338 17.4963 8.28175 17.889C9.2297 18.2816 10.2457 18.4837 11.2718 18.4837C12.2978 18.4837 13.3138 18.2816 14.2618 17.889C15.2097 17.4963 16.071 16.9208 16.7966 16.1953C17.5221 15.4697 18.0976 14.6084 18.4903 13.6604C18.8829 12.7125 19.085 11.6965 19.085 10.6704C19.085 9.64439 18.8829 8.62838 18.4903 7.68043C18.0976 6.73249 17.5221 5.87116 16.7966 5.14563C16.071 4.4201 15.2097 3.84458 14.2618 3.45193C13.3138 3.05927 12.2978 2.85718 11.2718 2.85718C10.2457 2.85718 9.2297 3.05927 8.28175 3.45193C7.3338 3.84458 6.47248 4.4201 5.74695 5.14563C5.02142 5.87116 4.4459 6.73249 4.05325 7.68043C3.66059 8.62838 3.4585 9.64439 3.4585 10.6704Z" fill="#222222"/>
<path d="M19.085 10.6704C19.085 9.64433 18.8829 8.62832 18.4902 7.68037C18.0976 6.73242 17.522 5.8711 16.7965 5.14557C16.071 4.42004 15.2097 3.84452 14.2617 3.45187C13.3138 3.05921 12.2978 2.85712 11.2717 2.85712C10.2456 2.85712 9.22964 3.05921 8.28169 3.45187C7.33374 3.84452 6.47241 4.42004 5.74689 5.14557C5.02136 5.8711 4.44584 6.73242 4.05318 7.68037C3.66053 8.62832 3.45844 9.64433 3.45844 10.6704C3.45844 11.6964 3.66053 12.7124 4.05318 13.6604C4.44584 14.6083 5.02136 15.4697 5.74689 16.1952C6.47241 16.9207 7.33374 17.4962 8.28169 17.8889C9.22964 18.2815 10.2456 18.4836 11.2717 18.4836C12.2978 18.4836 13.3138 18.2815 14.2617 17.8889C15.2097 17.4962 16.071 16.9207 16.7965 16.1952C17.522 15.4697 18.0976 14.6083 18.4902 13.6604C18.8829 12.7124 19.085 11.6964 19.085 10.6704ZM17.2781 17.6846C15.6667 19.0696 13.5668 19.9042 11.2717 19.9042C6.17088 19.9042 2.03784 15.7712 2.03784 10.6704C2.03784 5.56956 6.17088 1.43652 11.2717 1.43652C16.3725 1.43652 20.5056 5.56956 20.5056 10.6704C20.5056 12.9655 19.671 15.0653 18.2859 16.6768L24.5587 22.9541C24.8339 23.2293 24.8339 23.6821 24.5587 23.9574C24.2834 24.2326 23.8306 24.2326 23.5554 23.9574L17.2781 17.6846Z" fill="#222222"/>
</svg>
