<svg width="25" height="25" viewBox="0 0 25 25" fill="none" xmlns="http://www.w3.org/2000/svg">
<path d="M22.7616 20.892L18.7678 16.8982C20.257 15.2284 21.1822 13.0172 21.1822 10.6028C21.1822 5.39049 16.9401 1.14844 11.7278 1.14844C6.51549 1.14844 2.27344 5.39049 2.27344 10.6028C2.27344 15.8151 6.51549 20.0572 11.7278 20.0572C13.5781 20.0572 15.2929 19.5156 16.737 18.6131L20.8888 22.7648C21.137 23.0131 21.4755 23.1484 21.8139 23.1484C22.1524 23.1484 22.4909 23.0131 22.7391 22.7648C23.2806 22.2459 23.2806 21.411 22.7616 20.892ZM4.91344 10.6028C4.91344 6.85716 7.95959 3.78844 11.7278 3.78844C15.496 3.78844 18.5196 6.85716 18.5196 10.6028C18.5196 14.3484 15.4734 17.4172 11.7278 17.4172C7.98215 17.4172 4.91344 14.371 4.91344 10.6028Z" fill="black"/>
</svg>
