<svg width="21" height="21" viewBox="0 0 21 21" fill="none" xmlns="http://www.w3.org/2000/svg">
<g clip-path="url(#clip0_2041_375)">
<path opacity="0.2" d="M2.14783 8.7106C2.14783 9.57249 2.31759 10.4259 2.64742 11.2222C2.97725 12.0185 3.46068 12.742 4.07013 13.3514C4.67957 13.9609 5.40309 14.4443 6.19936 14.7742C6.99564 15.104 7.84908 15.2737 8.71097 15.2737C9.57285 15.2737 10.4263 15.104 11.2226 14.7742C12.0189 14.4443 12.7424 13.9609 13.3518 13.3514C13.9613 12.742 14.4447 12.0185 14.7745 11.2222C15.1044 10.4259 15.2741 9.57249 15.2741 8.7106C15.2741 7.84872 15.1044 6.99527 14.7745 6.199C14.4447 5.40272 13.9613 4.6792 13.3518 4.06976C12.7424 3.46032 12.0189 2.97688 11.2226 2.64705C10.4263 2.31722 9.57285 2.14746 8.71097 2.14746C7.84908 2.14746 6.99564 2.31722 6.19936 2.64705C5.40309 2.97688 4.67957 3.46032 4.07013 4.06976C3.46068 4.6792 2.97725 5.40272 2.64742 6.199C2.31759 6.99527 2.14783 7.84872 2.14783 8.7106Z" fill="#00674E"/>
<path d="M15.2741 8.71054C15.2741 7.84866 15.1043 6.99521 14.7745 6.19894C14.4447 5.40266 13.9613 4.67914 13.3518 4.0697C12.7424 3.46026 12.0189 2.97682 11.2226 2.64699C10.4263 2.31716 9.57285 2.1474 8.71097 2.1474C7.84908 2.1474 6.99564 2.31716 6.19936 2.64699C5.40309 2.97682 4.67957 3.46026 4.07013 4.0697C3.46068 4.67914 2.97725 5.40266 2.64742 6.19894C2.31759 6.99521 2.14783 7.84866 2.14783 8.71054C2.14783 9.57242 2.31759 10.4259 2.64742 11.2221C2.97725 12.0184 3.46068 12.7419 4.07013 13.3514C4.67957 13.9608 5.40309 14.4443 6.19936 14.7741C6.99564 15.1039 7.84908 15.2737 8.71097 15.2737C9.57285 15.2737 10.4263 15.1039 11.2226 14.7741C12.0189 14.4443 12.7424 13.9608 13.3518 13.3514C13.9613 12.7419 14.4447 12.0184 14.7745 11.2221C15.1043 10.4259 15.2741 9.57242 15.2741 8.71054ZM13.7564 14.6025C12.4027 15.7659 10.6389 16.467 8.71097 16.467C4.42628 16.467 0.954529 12.9952 0.954529 8.71054C0.954529 4.42585 4.42628 0.954102 8.71097 0.954102C12.9957 0.954102 16.4674 4.42585 16.4674 8.71054C16.4674 10.6385 15.7663 12.4023 14.6029 13.756L19.872 19.0288C20.1032 19.26 20.1032 19.6404 19.872 19.8716C19.6408 20.1028 19.2605 20.1028 19.0293 19.8716L13.7564 14.6025Z" fill="#00674E"/>
</g>
<defs>
<clipPath id="clip0_2041_375">
<rect width="21" height="21" fill="white"/>
</clipPath>
</defs>
</svg>
