<svg width="21" height="21" viewBox="0 0 21 21" fill="none" xmlns="http://www.w3.org/2000/svg">
<path opacity="0.2" d="M2.58869 7.33805C2.59988 7.39398 2.62598 7.44618 2.66699 7.48719L3.95339 8.82207C4.27779 9.15765 4.40829 9.60882 4.37473 10.0339C4.36355 10.1868 4.35609 10.3434 4.35609 10.5C4.35609 10.6566 4.36355 10.8132 4.37473 10.9661C4.40829 11.3911 4.27779 11.8423 3.95339 12.1779L2.66699 13.5128C2.62598 13.5538 2.59988 13.606 2.58869 13.6619C2.71174 13.9602 2.8497 14.251 3.0063 14.5344L3.16291 14.8066C3.33443 15.09 3.52086 15.3585 3.72221 15.6195C3.77441 15.6381 3.83034 15.6381 3.88627 15.6269L5.68351 15.1795C6.13841 15.0676 6.59331 15.1795 6.94753 15.4219C7.20481 15.5971 7.47328 15.7537 7.75666 15.8879C8.14071 16.0706 8.46884 16.41 8.59561 16.8611L9.10645 18.6397C9.12136 18.6956 9.15492 18.7441 9.19593 18.7814C9.56507 18.8299 9.94167 18.856 10.3257 18.856C10.7098 18.856 11.0864 18.8299 11.4555 18.7814C11.4965 18.7441 11.5264 18.6956 11.545 18.6397L12.0558 16.8611C12.1863 16.41 12.5107 16.0744 12.8948 15.8879C13.1782 15.7537 13.4466 15.5971 13.7039 15.4219C14.0544 15.1795 14.5131 15.0676 14.968 15.1795L16.7652 15.6269C16.8211 15.6418 16.877 15.6381 16.9292 15.6195C17.1306 15.3622 17.317 15.09 17.4848 14.8066L17.6414 14.5344C17.798 14.2548 17.936 13.9639 18.059 13.6619C18.0479 13.606 18.0218 13.5538 17.9807 13.5128L16.6906 12.1779C16.3662 11.8423 16.2357 11.3911 16.2693 10.9661C16.2805 10.8132 16.2879 10.6566 16.2879 10.5C16.2879 10.3434 16.2805 10.1868 16.2693 10.0339C16.2357 9.60882 16.3662 9.15765 16.6906 8.82207L17.977 7.49092C18.018 7.44991 18.0441 7.39771 18.0553 7.34177C17.9323 7.04348 17.7943 6.75264 17.6377 6.47299L17.4774 6.19707C17.3058 5.91369 17.1231 5.64522 16.9218 5.38421C16.8696 5.36557 16.8137 5.36557 16.7577 5.37675L14.9605 5.8242C14.5056 5.93606 14.0507 5.8242 13.6965 5.58183C13.4392 5.40658 13.1707 5.24998 12.8873 5.11574C12.5033 4.93304 12.1752 4.59373 12.0484 4.14256L11.5413 2.36397C11.5264 2.30804 11.4928 2.25957 11.4518 2.22228C11.0827 2.17381 10.7061 2.14771 10.322 2.14771C9.93794 2.14771 9.56135 2.17381 9.19221 2.22228C9.15119 2.25957 9.12136 2.30804 9.10272 2.36397L8.59189 4.14256C8.46138 4.59373 8.13699 4.92931 7.75293 5.11574C7.46955 5.24998 7.20108 5.40658 6.9438 5.58183C6.59331 5.8242 6.13468 5.93606 5.67978 5.8242L3.88255 5.37675C3.82662 5.36184 3.77069 5.36557 3.71848 5.38421C3.51713 5.64149 3.3307 5.91369 3.15918 6.19707L3.00257 6.46926C2.84597 6.74891 2.70801 7.03975 2.58496 7.34177L2.58869 7.33805ZM13.6032 10.5C13.6032 11.3702 13.2575 12.2048 12.6422 12.8202C12.0268 13.4355 11.1922 13.7812 10.322 13.7812C9.45176 13.7812 8.61716 13.4355 8.00181 12.8202C7.38645 12.2048 7.04075 11.3702 7.04075 10.5C7.04075 9.62974 7.38645 8.79514 8.00181 8.17978C8.61716 7.56443 9.45176 7.21873 10.322 7.21873C11.1922 7.21873 12.0268 7.56443 12.6422 8.17978C13.2575 8.79514 13.6032 9.62974 13.6032 10.5Z" fill="#00674E"/>
<path d="M9.1027 2.36404C9.11762 2.30811 9.15117 2.25963 9.19219 2.22235C9.56133 2.17387 9.93793 2.14777 10.322 2.14777C10.706 2.14777 11.0826 2.17387 11.4518 2.22235C11.4928 2.25963 11.5226 2.30811 11.5413 2.36404L12.0521 4.14262C12.1826 4.59379 12.507 4.92938 12.8911 5.11581C13.1744 5.25004 13.4429 5.40665 13.7002 5.5819C14.0507 5.82426 14.5093 5.93612 14.9642 5.82426L16.7614 5.37682C16.8174 5.36191 16.8733 5.36563 16.9255 5.38428C17.1269 5.64156 17.3133 5.91375 17.4811 6.19713L17.6414 6.47306C17.798 6.75271 17.936 7.04355 18.059 7.34184C18.0478 7.39777 18.0217 7.44997 17.9807 7.49099L16.6906 8.82213C16.3662 9.15771 16.2357 9.60889 16.2693 10.034C16.2804 10.1868 16.2879 10.3434 16.2879 10.5C16.2879 10.6566 16.2804 10.8133 16.2693 10.9661C16.2357 11.3912 16.3662 11.8424 16.6906 12.178L17.977 13.5091C18.018 13.5501 18.0441 13.6023 18.0553 13.6582C17.9322 13.9565 17.7943 14.2474 17.6377 14.5308L17.4811 14.803C17.3096 15.0863 17.1231 15.3548 16.9255 15.6158C16.8733 15.6345 16.8174 15.6345 16.7614 15.6233L14.9642 15.1758C14.5093 15.064 14.0544 15.1758 13.7002 15.4182C13.4429 15.5934 13.1744 15.75 12.8911 15.8843C12.507 16.067 12.1789 16.4063 12.0521 16.8575L11.5413 18.6361C11.5264 18.692 11.4928 18.7405 11.4518 18.7777C11.0826 18.8262 10.706 18.8523 10.322 18.8523C9.93793 18.8523 9.56133 18.8262 9.19219 18.7777C9.15117 18.7405 9.12135 18.692 9.1027 18.6361L8.59187 16.8575C8.46137 16.4063 8.13697 16.0707 7.75291 15.8843C7.46953 15.75 7.20107 15.5934 6.94379 15.4182C6.59329 15.1758 6.13466 15.064 5.67976 15.1758L3.88253 15.6233C3.8266 15.6382 3.77067 15.6345 3.71847 15.6158C3.51712 15.3548 3.33068 15.0863 3.15916 14.803L3.00256 14.5308C2.84595 14.2511 2.70799 13.9603 2.58495 13.6582C2.59613 13.6023 2.62223 13.5501 2.66325 13.5091L3.95338 12.178C4.27777 11.8424 4.40828 11.3912 4.37472 10.9661C4.36353 10.8133 4.35608 10.6566 4.35608 10.5C4.35608 10.3434 4.36353 10.1868 4.37472 10.034C4.40828 9.60889 4.27777 9.15771 3.95338 8.82213L2.66698 7.48726C2.62596 7.44624 2.59986 7.39404 2.58867 7.33811C2.71172 7.03982 2.84968 6.74898 3.00629 6.4656L3.16289 6.1934C3.33441 5.91002 3.52085 5.64156 3.7222 5.38055C3.7744 5.3619 3.83033 5.36191 3.88626 5.37309L5.68349 5.82053C6.13839 5.93239 6.59329 5.82053 6.94752 5.57817C7.2048 5.40292 7.47326 5.24632 7.75664 5.11208C8.1407 4.92938 8.46882 4.59007 8.5956 4.13889L9.10643 2.36031L9.1027 2.36404ZM10.322 0.95459C9.83725 0.95459 9.35625 0.991877 8.89017 1.06272C8.82678 1.07391 8.76339 1.09255 8.70373 1.12238C8.34951 1.30509 8.07358 1.62948 7.95799 2.03591L7.44716 3.8145C7.42479 3.89653 7.35394 3.98229 7.23836 4.03822C6.89904 4.19855 6.57465 4.38872 6.2689 4.59752C6.16449 4.66837 6.05263 4.68701 5.9706 4.66464L4.17337 4.2172C3.76694 4.11652 3.34933 4.19482 3.01375 4.40736C2.95782 4.44092 2.90934 4.48566 2.86833 4.53786C2.60359 4.86972 2.3575 5.21649 2.1375 5.5819L2.13377 5.59308L1.96971 5.87646L1.96598 5.88765C1.76463 6.25306 1.58566 6.62966 1.43278 7.02117C1.41041 7.08083 1.39549 7.14422 1.39176 7.20761C1.37312 7.61031 1.51481 8.01301 1.80938 8.31876L3.09578 9.6499C3.15544 9.71329 3.19645 9.81396 3.18527 9.94074C3.17035 10.1272 3.16289 10.3136 3.16289 10.5C3.16289 10.6865 3.17035 10.8766 3.18527 11.0593C3.19645 11.1861 3.15544 11.2905 3.09578 11.3502L1.80938 12.6851C1.51481 12.9908 1.37312 13.3935 1.39176 13.7962C1.39549 13.8596 1.41041 13.923 1.43278 13.9826C1.58566 14.3742 1.76463 14.7508 1.96598 15.1162L1.96971 15.1274L2.13377 15.4107L2.1375 15.4219C2.3575 15.7873 2.59986 16.1378 2.86833 16.4697C2.90934 16.5219 2.95782 16.5666 3.01375 16.6002C3.34933 16.8127 3.76694 16.891 4.17337 16.7903L5.9706 16.3429C6.05263 16.3205 6.16449 16.3392 6.2689 16.41C6.57465 16.6226 6.89904 16.809 7.23836 16.9693C7.35394 17.0253 7.42106 17.111 7.44716 17.193L7.95799 18.9642C8.07358 19.3669 8.34951 19.6913 8.70373 19.8777C8.76339 19.9075 8.82305 19.9299 8.89017 19.9374C9.35625 20.0082 9.83725 20.0455 10.322 20.0455C10.8067 20.0455 11.2877 20.0082 11.7538 19.9374C11.8172 19.9262 11.8806 19.9075 11.9402 19.8777C12.2945 19.695 12.5704 19.3706 12.686 18.9642L13.1968 17.1856C13.2192 17.1036 13.29 17.0178 13.4056 16.9619C13.7449 16.8015 14.0693 16.6114 14.3751 16.4026C14.4795 16.3317 14.5913 16.3131 14.6734 16.3354L16.4706 16.7829C16.877 16.8836 17.2946 16.809 17.6302 16.5927C17.6862 16.5592 17.7346 16.5144 17.7756 16.4622C18.0404 16.1304 18.2827 15.7836 18.5027 15.4182L18.5102 15.407L18.6743 15.1236L18.678 15.1124C18.8793 14.7508 19.0583 14.3704 19.2112 13.9789C19.2336 13.9193 19.2485 13.8559 19.2522 13.7925C19.2708 13.3898 19.1292 12.9871 18.8346 12.6813L17.5482 11.3502C17.4885 11.2868 17.4475 11.1861 17.4587 11.0593C17.4736 10.8729 17.4811 10.6865 17.4811 10.5C17.4811 10.3136 17.4736 10.1234 17.4587 9.94074C17.4475 9.81396 17.4885 9.70956 17.5482 9.6499L18.8346 8.31876C19.1292 8.01301 19.2708 7.61031 19.2522 7.20761C19.2485 7.14422 19.2336 7.08083 19.2112 7.02117C19.0583 6.62966 18.8793 6.25306 18.678 5.88765L18.6743 5.87646L18.5102 5.59308L18.5027 5.5819C18.2827 5.21649 18.0404 4.86599 17.7756 4.53786C17.7346 4.48566 17.6862 4.44092 17.6302 4.40736C17.2946 4.19482 16.877 4.11652 16.4706 4.2172L14.6734 4.66464C14.5913 4.68701 14.4795 4.66837 14.3751 4.59752C14.0693 4.38499 13.7449 4.19855 13.4056 4.03822C13.29 3.98229 13.2229 3.89653 13.1968 3.8145L12.686 2.03591C12.5704 1.63321 12.2945 1.30882 11.9402 1.12238C11.8806 1.09255 11.8209 1.07018 11.7538 1.06272C11.2877 0.991877 10.8067 0.95459 10.322 0.95459ZM8.23392 10.5C8.23392 9.94625 8.45391 9.41515 8.8455 9.02356C9.23709 8.63197 9.76819 8.41198 10.322 8.41198C10.8758 8.41198 11.4069 8.63197 11.7985 9.02356C12.1901 9.41515 12.4101 9.94625 12.4101 10.5C12.4101 11.0538 12.1901 11.5849 11.7985 11.9765C11.4069 12.3681 10.8758 12.5881 10.322 12.5881C9.76819 12.5881 9.23709 12.3681 8.8455 11.9765C8.45391 11.5849 8.23392 11.0538 8.23392 10.5ZM13.6032 10.5C13.6032 9.6298 13.2575 8.7952 12.6422 8.17985C12.0268 7.5645 11.1922 7.21879 10.322 7.21879C9.45174 7.21879 8.61714 7.5645 8.00179 8.17985C7.38644 8.7952 7.04073 9.6298 7.04073 10.5C7.04073 11.3703 7.38644 12.2049 8.00179 12.8202C8.61714 13.4356 9.45174 13.7813 10.322 13.7813C11.1922 13.7813 12.0268 13.4356 12.6422 12.8202C13.2575 12.2049 13.6032 11.3703 13.6032 10.5Z" fill="#00674E"/>
</svg>
