<svg width="26" height="26" viewBox="0 0 26 26" fill="none" xmlns="http://www.w3.org/2000/svg">
<path opacity="0.2" d="M3.9832 9.03591C3.99652 9.10249 4.02759 9.16464 4.07642 9.21347L5.60784 10.8026C5.99403 11.2021 6.14939 11.7392 6.10944 12.2452C6.09612 12.4272 6.08725 12.6137 6.08725 12.8001C6.08725 12.9865 6.09612 13.173 6.10944 13.355C6.14939 13.861 5.99403 14.3981 5.60784 14.7976L4.07642 16.3868C4.02759 16.4356 3.99652 16.4977 3.9832 16.5643C4.12968 16.9194 4.29392 17.2657 4.48036 17.603L4.66679 17.9271C4.87098 18.2644 5.09293 18.584 5.33263 18.8948C5.39478 18.9169 5.46136 18.9169 5.52794 18.9036L7.6675 18.371C8.20905 18.2378 8.7506 18.371 9.1723 18.6595C9.47858 18.8681 9.79818 19.0546 10.1355 19.2144C10.5928 19.4319 10.9834 19.8358 11.1343 20.3729L11.7424 22.4903C11.7602 22.5569 11.8001 22.6146 11.849 22.659C12.2884 22.7167 12.7367 22.7477 13.194 22.7477C13.6512 22.7477 14.0995 22.7167 14.5389 22.659C14.5878 22.6146 14.6233 22.5569 14.6455 22.4903L15.2536 20.3729C15.409 19.8358 15.7952 19.4363 16.2524 19.2144C16.5897 19.0546 16.9093 18.8681 17.2156 18.6595C17.6329 18.371 18.1789 18.2378 18.7204 18.371L20.86 18.9036C20.9266 18.9214 20.9931 18.9169 21.0553 18.8948C21.295 18.5885 21.5169 18.2644 21.7167 17.9271L21.9031 17.603C22.0896 17.2701 22.2538 16.9239 22.4003 16.5643C22.387 16.4977 22.3559 16.4356 22.3071 16.3868L20.7712 14.7976C20.385 14.3981 20.2296 13.861 20.2696 13.355C20.2829 13.173 20.2918 12.9865 20.2918 12.8001C20.2918 12.6137 20.2829 12.4272 20.2696 12.2452C20.2296 11.7392 20.385 11.2021 20.7712 10.8026L22.3026 9.21791C22.3514 9.16908 22.3825 9.10693 22.3958 9.04035C22.2494 8.68524 22.0851 8.339 21.8987 8.00608L21.7078 7.6776C21.5036 7.34024 21.2861 7.02064 21.0464 6.70992C20.9843 6.68772 20.9177 6.68772 20.8511 6.70104L18.7115 7.23371C18.17 7.36688 17.6284 7.23371 17.2067 6.94518C16.9005 6.73655 16.5809 6.55012 16.2435 6.39031C15.7863 6.17281 15.3957 5.76887 15.2447 5.23176L14.641 3.11439C14.6233 3.04781 14.5833 2.9901 14.5345 2.94571C14.0951 2.88801 13.6467 2.85693 13.1895 2.85693C12.7323 2.85693 12.284 2.88801 11.8445 2.94571C11.7957 2.9901 11.7602 3.04781 11.738 3.11439L11.1299 5.23176C10.9745 5.76887 10.5883 6.16837 10.1311 6.39031C9.79375 6.55012 9.47414 6.73655 9.16786 6.94518C8.7506 7.23371 8.20461 7.36688 7.66306 7.23371L5.5235 6.70104C5.45692 6.68328 5.39034 6.68772 5.32819 6.70992C5.08849 7.0162 4.86654 7.34024 4.66235 7.6776L4.47592 8.00164C4.28948 8.33456 4.12524 8.6808 3.97876 9.04035L3.9832 9.03591ZM17.0958 12.8001C17.0958 13.8361 16.6842 14.8297 15.9517 15.5623C15.2191 16.2948 14.2255 16.7064 13.1895 16.7064C12.1535 16.7064 11.1599 16.2948 10.4274 15.5623C9.69482 14.8297 9.28327 13.8361 9.28327 12.8001C9.28327 11.7641 9.69482 10.7705 10.4274 10.038C11.1599 9.30542 12.1535 8.89387 13.1895 8.89387C14.2255 8.89387 15.2191 9.30542 15.9517 10.038C16.6842 10.7705 17.0958 11.7641 17.0958 12.8001Z" fill="#222222"/>
<path d="M11.738 3.11444C11.7558 3.04785 11.7957 2.99015 11.8446 2.94576C12.284 2.88805 12.7323 2.85698 13.1895 2.85698C13.6468 2.85698 14.0951 2.88805 14.5345 2.94576C14.5834 2.99015 14.6189 3.04785 14.6411 3.11444L15.2492 5.2318C15.4046 5.76891 15.7908 6.16841 16.248 6.39036C16.5853 6.55016 16.9049 6.73659 17.2112 6.94522C17.6285 7.23375 18.1745 7.36692 18.716 7.23375L20.8556 6.70108C20.9221 6.68333 20.9887 6.68777 21.0509 6.70996C21.2906 7.01625 21.5125 7.34029 21.7123 7.67765L21.9031 8.00613C22.0896 8.33904 22.2538 8.68528 22.4003 9.04039C22.387 9.10698 22.3559 9.16912 22.3071 9.21795L20.7712 10.8026C20.385 11.2021 20.2297 11.7393 20.2696 12.2453C20.2829 12.4273 20.2918 12.6137 20.2918 12.8002C20.2918 12.9866 20.2829 13.173 20.2696 13.355C20.2297 13.8611 20.385 14.3982 20.7712 14.7977L22.3027 16.3824C22.3515 16.4312 22.3826 16.4933 22.3959 16.5599C22.2494 16.915 22.0851 17.2613 21.8987 17.5986L21.7123 17.9227C21.5081 18.26 21.2861 18.5796 21.0509 18.8904C20.9887 18.9126 20.9221 18.9126 20.8556 18.8992L18.716 18.3666C18.1745 18.2334 17.6329 18.3666 17.2112 18.6551C16.9049 18.8637 16.5853 19.0502 16.248 19.21C15.7908 19.4275 15.4001 19.8314 15.2492 20.3685L14.6411 22.4859C14.6233 22.5525 14.5834 22.6102 14.5345 22.6546C14.0951 22.7123 13.6468 22.7433 13.1895 22.7433C12.7323 22.7433 12.284 22.7123 11.8446 22.6546C11.7957 22.6102 11.7602 22.5525 11.738 22.4859L11.1299 20.3685C10.9745 19.8314 10.5883 19.4319 10.1311 19.21C9.79377 19.0502 9.47417 18.8637 9.16789 18.6551C8.75063 18.3666 8.20464 18.2334 7.66309 18.3666L5.52353 18.8992C5.45695 18.917 5.39037 18.9126 5.32822 18.8904C5.08852 18.5796 4.86657 18.26 4.66238 17.9227L4.47595 17.5986C4.28951 17.2657 4.12527 16.9195 3.97879 16.5599C3.99211 16.4933 4.02318 16.4312 4.07201 16.3824L5.60787 14.7977C5.99406 14.3982 6.14942 13.8611 6.10947 13.355C6.09615 13.173 6.08728 12.9866 6.08728 12.8002C6.08728 12.6137 6.09615 12.4273 6.10947 12.2453C6.14942 11.7393 5.99406 11.2021 5.60787 10.8026L4.07644 9.21351C4.02762 9.16468 3.99654 9.10254 3.98323 9.03595C4.12971 8.68084 4.29395 8.33461 4.48039 7.99725L4.66682 7.67321C4.87101 7.33585 5.09296 7.01625 5.33266 6.70552C5.3948 6.68333 5.46139 6.68333 5.52797 6.69664L7.66753 7.22931C8.20908 7.36248 8.75063 7.22931 9.17233 6.94078C9.47861 6.73216 9.79821 6.54572 10.1356 6.38592C10.5928 6.16841 10.9834 5.76447 11.1343 5.22736L11.7425 3.11L11.738 3.11444ZM13.1895 1.43652C12.6125 1.43652 12.0399 1.48091 11.485 1.56525C11.4095 1.57857 11.3341 1.60076 11.2631 1.63627C10.8414 1.85378 10.5129 2.23997 10.3753 2.72381L9.76714 4.84118C9.74051 4.93883 9.65617 5.04093 9.51856 5.10751C9.11462 5.29838 8.72843 5.52477 8.36444 5.77335C8.24015 5.85769 8.10699 5.87988 8.00933 5.85325L5.86977 5.32058C5.38593 5.20073 4.88877 5.29395 4.48926 5.54696C4.42268 5.58691 4.36497 5.64018 4.31615 5.70233C4.00098 6.09739 3.70801 6.51021 3.44612 6.94522L3.44168 6.95854L3.24637 7.2959L3.24193 7.30922C3.00223 7.74423 2.78916 8.19256 2.60716 8.65865C2.58053 8.72967 2.56277 8.80513 2.55833 8.88059C2.53614 9.36 2.70482 9.8394 3.05549 10.2034L4.58692 11.7881C4.65794 11.8635 4.70677 11.9834 4.69345 12.1343C4.6757 12.3563 4.66682 12.5782 4.66682 12.8002C4.66682 13.0221 4.6757 13.2485 4.69345 13.466C4.70677 13.6169 4.65794 13.7412 4.58692 13.8122L3.05549 15.4014C2.70482 15.7654 2.53614 16.2448 2.55833 16.7242C2.56277 16.7996 2.58053 16.8751 2.60716 16.9461C2.78916 17.4122 3.00223 17.8605 3.24193 18.2955L3.24637 18.3089L3.44168 18.6462L3.44612 18.6595C3.70801 19.0945 3.99654 19.5118 4.31615 19.9069C4.36497 19.969 4.42268 20.0223 4.48926 20.0622C4.88877 20.3153 5.38593 20.4085 5.86977 20.2886L8.00933 19.7559C8.10699 19.7293 8.24015 19.7515 8.36444 19.8358C8.72843 20.0889 9.11462 20.3108 9.51856 20.5017C9.65617 20.5683 9.73607 20.6704 9.76714 20.768L10.3753 22.8765C10.5129 23.3559 10.8414 23.7421 11.2631 23.964C11.3341 23.9996 11.4051 24.0262 11.485 24.0351C12.0399 24.1194 12.6125 24.1638 13.1895 24.1638C13.7666 24.1638 14.3392 24.1194 14.8941 24.0351C14.9696 24.0217 15.045 23.9996 15.116 23.964C15.5377 23.7465 15.8662 23.3604 16.0038 22.8765L16.612 20.7591C16.6386 20.6615 16.7229 20.5594 16.8605 20.4928C17.2645 20.3019 17.6507 20.0756 18.0147 19.827C18.1389 19.7426 18.2721 19.7204 18.3698 19.7471L20.5093 20.2797C20.9932 20.3996 21.4903 20.3108 21.8898 20.0534C21.9564 20.0134 22.0141 19.9601 22.063 19.898C22.3781 19.5029 22.6666 19.0901 22.9285 18.6551L22.9374 18.6418L23.1327 18.3044L23.1372 18.2911C23.3769 17.8605 23.5899 17.4078 23.7719 16.9417C23.7986 16.8706 23.8163 16.7952 23.8208 16.7197C23.843 16.2403 23.6743 15.7609 23.3236 15.3969L21.7922 13.8122C21.7212 13.7368 21.6723 13.6169 21.6856 13.466C21.7034 13.2441 21.7123 13.0221 21.7123 12.8002C21.7123 12.5782 21.7034 12.3518 21.6856 12.1343C21.6723 11.9834 21.7212 11.8591 21.7922 11.7881L23.3236 10.2034C23.6743 9.8394 23.843 9.36 23.8208 8.88059C23.8163 8.80513 23.7986 8.72967 23.7719 8.65865C23.5899 8.19256 23.3769 7.74423 23.1372 7.30922L23.1327 7.2959L22.9374 6.95854L22.9285 6.94522C22.6666 6.51021 22.3781 6.09295 22.063 5.70233C22.0141 5.64018 21.9564 5.58691 21.8898 5.54696C21.4903 5.29395 20.9932 5.20073 20.5093 5.32058L18.3698 5.85325C18.2721 5.87988 18.1389 5.85769 18.0147 5.77335C17.6507 5.52033 17.2645 5.29838 16.8605 5.10751C16.7229 5.04093 16.643 4.93883 16.612 4.84118L16.0038 2.72381C15.8662 2.24441 15.5377 1.85822 15.116 1.63627C15.045 1.60076 14.974 1.57413 14.8941 1.56525C14.3392 1.48091 13.7666 1.43652 13.1895 1.43652ZM10.7038 12.8002C10.7038 12.1409 10.9656 11.5086 11.4318 11.0424C11.898 10.5763 12.5303 10.3144 13.1895 10.3144C13.8488 10.3144 14.4811 10.5763 14.9473 11.0424C15.4134 11.5086 15.6753 12.1409 15.6753 12.8002C15.6753 13.4594 15.4134 14.0917 14.9473 14.5579C14.4811 15.0241 13.8488 15.286 13.1895 15.286C12.5303 15.286 11.898 15.0241 11.4318 14.5579C10.9656 14.0917 10.7038 13.4594 10.7038 12.8002ZM17.0958 12.8002C17.0958 11.7642 16.6842 10.7706 15.9517 10.038C15.2191 9.30546 14.2256 8.89391 13.1895 8.89391C12.1535 8.89391 11.16 9.30546 10.4274 10.038C9.69485 10.7706 9.2833 11.7642 9.2833 12.8002C9.2833 13.8362 9.69485 14.8297 10.4274 15.5623C11.16 16.2949 12.1535 16.7064 13.1895 16.7064C14.2256 16.7064 15.2191 16.2949 15.9517 15.5623C16.6842 14.8297 17.0958 13.8362 17.0958 12.8002Z" fill="#222222"/>
</svg>
