<svg width="20" height="21" viewBox="0 0 20 21" fill="none" xmlns="http://www.w3.org/2000/svg">
<path fill-rule="evenodd" clip-rule="evenodd" d="M2.14258 10.5004C2.14258 8.6923 3.60831 7.22656 5.41639 7.22656C7.22446 7.22656 8.6902 8.6923 8.6902 10.5004C8.6902 12.3084 7.22446 13.7742 5.41639 13.7742C3.60831 13.7742 2.14258 12.3084 2.14258 10.5004Z" fill="#A1ABB8"/>
<path fill-rule="evenodd" clip-rule="evenodd" d="M11.3086 16.3988C11.3086 14.5907 12.7743 13.125 14.5824 13.125C16.3905 13.125 17.8562 14.5907 17.8562 16.3988C17.8562 18.2069 16.3905 19.6726 14.5824 19.6726C12.7743 19.6726 11.3086 18.2069 11.3086 16.3988Z" fill="#A1ABB8"/>
<path fill-rule="evenodd" clip-rule="evenodd" d="M11.3086 4.60975C11.3086 2.80167 12.7743 1.33594 14.5824 1.33594C16.3905 1.33594 17.8562 2.80167 17.8562 4.60975C17.8562 6.41782 16.3905 7.88356 14.5824 7.88356C12.7743 7.88356 11.3086 6.41782 11.3086 4.60975Z" fill="#A1ABB8"/>
<path fill-rule="evenodd" clip-rule="evenodd" d="M12.932 5.66806C13.1275 5.97226 13.0393 6.37736 12.7351 6.57285L7.97171 9.63388C7.66748 9.82936 7.2624 9.74122 7.06689 9.43702C6.87141 9.13279 6.95955 8.72771 7.26378 8.5322L12.0272 5.4712C12.3314 5.27571 12.7365 5.36383 12.932 5.66806Z" fill="#A1ABB8"/>
<path fill-rule="evenodd" clip-rule="evenodd" d="M7.06689 11.5665C7.2624 11.2623 7.66748 11.1741 7.97171 11.3696L12.7351 14.4306C13.0393 14.6261 13.1275 15.0312 12.932 15.3355C12.7365 15.6397 12.3314 15.7278 12.0272 15.5323L7.26378 12.4713C6.95955 12.2758 6.87141 11.8707 7.06689 11.5665Z" fill="#A1ABB8"/>
</svg>
