<svg width="642" height="143" viewBox="0 0 642 143" fill="none" xmlns="http://www.w3.org/2000/svg">
<path d="M121 140V90.4C121 84.2667 121.2 78 121.6 71.6C122.133 65.0667 122.667 59.6 123.2 55.2C123.733 50.8 124.067 48 124.2 46.8H123.4L98 140H63.4L37.8 47H37C37.1333 48.2 37.4667 51 38 55.4C38.6667 59.6667 39.2667 65.0667 39.8 71.6C40.3333 78 40.6 84.2667 40.6 90.4V140H4.76837e-07V2.4H62.4L83.2 81.8H84L104.6 2.4H164.8V140H121ZM328.667 84.6C328.667 103.4 322.734 117.733 310.867 127.6C299.001 137.467 282.134 142.4 260.267 142.4C238.401 142.4 221.467 137.467 209.467 127.6C197.601 117.733 191.667 103.4 191.667 84.6V2.4H235.867V84C235.867 91.7333 237.934 97.9333 242.067 102.6C246.201 107.133 252.201 109.4 260.067 109.4C267.934 109.4 273.934 107.067 278.067 102.4C282.334 97.7333 284.467 91.6 284.467 84V2.4H328.667V84.6ZM416.069 -9.53674e-06C433.669 -9.53674e-06 448.135 3.59999 459.469 10.8C470.802 17.8667 476.602 28.4 476.869 42.4V44.8H435.469V44C435.469 40 434.002 36.6667 431.069 34C428.135 31.3333 423.669 30 417.669 30C411.802 30 407.269 30.8667 404.069 32.6C401.002 34.3333 399.469 36.4667 399.469 39C399.469 42.6 401.602 45.2667 405.869 47C410.135 48.7333 417.002 50.5333 426.469 52.4C437.535 54.6667 446.602 57.0667 453.669 59.6C460.869 62 467.135 66 472.469 71.6C477.802 77.2 480.535 84.8 480.669 94.4C480.669 110.667 475.135 122.733 464.069 130.6C453.135 138.467 438.469 142.4 420.069 142.4C398.602 142.4 381.869 138.8 369.869 131.6C358.002 124.4 352.069 111.667 352.069 93.4H393.869C393.869 100.333 395.669 105 399.269 107.4C402.869 109.667 408.469 110.8 416.069 110.8C421.669 110.8 426.269 110.2 429.869 109C433.602 107.8 435.469 105.333 435.469 101.6C435.469 98.2667 433.402 95.8 429.269 94.2C425.269 92.4667 418.669 90.6667 409.469 88.8C398.269 86.4 389.002 83.9333 381.669 81.4C374.335 78.7333 367.935 74.4 362.469 68.4C357.002 62.4 354.269 54.2667 354.269 44C354.269 28.9333 360.069 17.8667 371.669 10.8C383.402 3.59999 398.202 -9.53674e-06 416.069 -9.53674e-06ZM594.805 140L589.005 120.6H540.805L535.005 140H489.805L540.005 2.4H591.405L641.605 140H594.805ZM550.005 89.8H579.805L565.405 40.8H564.605L550.005 89.8Z" fill="white"/>
</svg>
