<svg width="21" height="21" viewBox="0 0 21 21" fill="none" xmlns="http://www.w3.org/2000/svg">
<g id="object-subtract-duotone-light 1" clip-path="url(#clip0_1104_271)">
<path id="Vector" opacity="0.2" d="M12.8862 15.2727V17.6591C12.8862 18.3191 12.353 18.8523 11.693 18.8523H3.34078C2.6808 18.8523 2.14759 18.3191 2.14759 17.6591V9.30683C2.14759 8.64685 2.6808 8.11365 3.34078 8.11365H5.72714V11.6932C5.72714 13.6694 7.33048 15.2727 9.30669 15.2727H12.8862Z" fill="#00674E"/>
<path id="Vector_2" d="M17.659 2.14777H16.4659V0.95459H17.659C18.9753 0.95459 20.0454 2.02472 20.0454 3.34095V4.53414H18.8522V3.34095C18.8522 2.68097 18.319 2.14777 17.659 2.14777ZM11.6931 2.14777V0.95459H15.2727V2.14777H11.6931ZM18.8522 5.72732H20.0454V9.30686H18.8522V5.72732ZM18.8522 10.5H20.0454V11.6932C20.0454 13.0095 18.9753 14.0796 17.659 14.0796H16.4659V12.8864H17.659C18.319 12.8864 18.8522 12.3532 18.8522 11.6932V10.5ZM15.2727 14.0796H14.0795H12.8863H11.6931V12.8864H12.8863H14.0795H15.2727V14.0796ZM14.0795 15.2728V17.6591C14.0795 18.9754 13.0094 20.0455 11.6931 20.0455H3.34087C2.02464 20.0455 0.954502 18.9754 0.954502 17.6591V9.30686C0.954502 7.99063 2.02464 6.9205 3.34087 6.9205H5.72723V8.11368H3.34087C2.68089 8.11368 2.14768 8.64688 2.14768 9.30686V17.6591C2.14768 18.3191 2.68089 18.8523 3.34087 18.8523H11.6931C12.3531 18.8523 12.8863 18.3191 12.8863 17.6591V15.2728H14.0795ZM6.92041 8.11368V6.9205V5.72732H8.11359V6.9205V8.11368V9.30686H6.92041V8.11368ZM6.92041 3.34095C6.92041 2.02472 7.99055 0.95459 9.30677 0.95459H10.5V2.14777H9.30677C8.6468 2.14777 8.11359 2.68097 8.11359 3.34095V4.53414H6.92041V3.34095ZM10.5 12.8864V14.0796H9.30677C7.99055 14.0796 6.92041 13.0095 6.92041 11.6932V10.5H8.11359V11.6932C8.11359 12.3532 8.6468 12.8864 9.30677 12.8864H10.5Z" fill="#00674E"/>
</g>
<defs>
<clipPath id="clip0_1104_271">
<rect width="19.0909" height="19.0909" fill="white" transform="matrix(-1 0 0 1 20.0454 0.95459)"/>
</clipPath>
</defs>
</svg>
