<svg width="21" height="21" viewBox="0 0 21 21" fill="none" xmlns="http://www.w3.org/2000/svg">
<path opacity="0.2" d="M7.16479 13.692L9.63311 13.1209C9.85101 13.0721 10.0539 12.9594 10.2117 12.7978L16.6361 6.37343L14.4796 4.2207L8.05519 10.6451C7.8974 10.8029 7.78469 11.0057 7.73209 11.2236L7.16479 13.6882V13.692Z" fill="#00674E"/>
<path d="M18.0337 2.3678L18.4882 2.82239C18.9579 3.29201 18.9579 4.05467 18.4882 4.52429L17.4851 5.52739L15.3287 3.3709L16.3318 2.3678C16.8014 1.89818 17.564 1.89818 18.0337 2.3678ZM8.05521 10.6443L14.4796 4.21997L16.6361 6.37646L10.2117 12.8008C10.0539 12.9586 9.85103 13.0713 9.63313 13.1239L7.16857 13.6912L7.73587 11.2229C7.78471 11.005 7.89742 10.8021 8.05897 10.6443H8.05521ZM15.4827 1.51497L7.20614 9.79528C6.8868 10.1146 6.66514 10.5166 6.56371 10.9562L5.7785 14.36C5.73342 14.5628 5.79353 14.7732 5.94005 14.9197C6.08657 15.0663 6.29696 15.1264 6.49984 15.0813L9.90363 14.2961C10.3432 14.1947 10.7452 13.973 11.0645 13.6537L19.3411 5.37336C20.2803 4.43412 20.2803 2.91256 19.3411 1.97332L18.8865 1.51497C17.9472 0.575738 16.4257 0.575738 15.4864 1.51497H15.4827ZM3.96014 3.07035C2.29958 3.07035 0.95459 4.41533 0.95459 6.0759V16.8959C0.95459 18.5565 2.29958 19.9015 3.96014 19.9015H14.7801C16.4407 19.9015 17.7857 18.5565 17.7857 16.8959V12.087C17.7857 11.7564 17.5152 11.4859 17.1846 11.4859C16.854 11.4859 16.5835 11.7564 16.5835 12.087V16.8959C16.5835 17.8915 15.7757 18.6992 14.7801 18.6992H3.96014C2.96455 18.6992 2.15681 17.8915 2.15681 16.8959V6.0759C2.15681 5.08031 2.96455 4.27257 3.96014 4.27257H8.76903C9.09964 4.27257 9.37014 4.00207 9.37014 3.67146C9.37014 3.34085 9.09964 3.07035 8.76903 3.07035H3.96014Z" fill="#00674E"/>
</svg>
