<svg width="21" height="21" viewBox="0 0 21 21" fill="none" xmlns="http://www.w3.org/2000/svg">
<path d="M6.78124 3.83942C6.9938 3.58584 6.95651 3.20921 6.70666 3.00038C6.45681 2.79155 6.07645 2.82511 5.86762 3.07496L3.2983 6.15516L1.97076 4.82762C1.73956 4.59641 1.35919 4.59641 1.12799 4.82762C0.896789 5.05882 0.896789 5.43918 1.12799 5.67038L2.91794 7.46033C3.03727 7.57966 3.19762 7.64305 3.36542 7.6356C3.53323 7.62814 3.68985 7.54983 3.798 7.42304L6.78124 3.84315V3.83942ZM6.78124 9.80591C6.9938 9.55233 6.95651 9.1757 6.70666 8.96687C6.45681 8.75804 6.07645 8.7916 5.86762 9.04145L3.2983 12.1217L1.97076 10.7941C1.73956 10.5629 1.35919 10.5629 1.12799 10.7941C0.896789 11.0253 0.896789 11.4057 1.12799 11.6369L2.91794 13.4268C3.03727 13.5462 3.19762 13.6095 3.36542 13.6021C3.53323 13.5946 3.68985 13.5163 3.798 13.3895L6.78124 9.80964V9.80591ZM8.11251 5.249C8.11251 5.57716 8.38101 5.84565 8.70916 5.84565H19.4488C19.777 5.84565 20.0455 5.57716 20.0455 5.249C20.0455 4.92084 19.777 4.65235 19.4488 4.65235H8.70916C8.38101 4.65235 8.11251 4.92084 8.11251 5.249ZM8.11251 11.2155C8.11251 11.5436 8.38101 11.8121 8.70916 11.8121H19.4488C19.777 11.8121 20.0455 11.5436 20.0455 11.2155C20.0455 10.8873 19.777 10.6188 19.4488 10.6188H8.70916C8.38101 10.6188 8.11251 10.8873 8.11251 11.2155ZM6.91922 17.182C6.91922 17.5101 7.18771 17.7786 7.51587 17.7786H19.4488C19.777 17.7786 20.0455 17.5101 20.0455 17.182C20.0455 16.8538 19.777 16.5853 19.4488 16.5853H7.51587C7.18771 16.5853 6.91922 16.8538 6.91922 17.182ZM4.53262 17.182C4.53262 16.8655 4.4069 16.562 4.18311 16.3382C3.95932 16.1144 3.6558 15.9887 3.33932 15.9887C3.02284 15.9887 2.71932 16.1144 2.49553 16.3382C2.27175 16.562 2.14602 16.8655 2.14602 17.182C2.14602 17.4985 2.27175 17.802 2.49553 18.0258C2.71932 18.2496 3.02284 18.3753 3.33932 18.3753C3.6558 18.3753 3.95932 18.2496 4.18311 18.0258C4.4069 17.802 4.53262 17.4985 4.53262 17.182Z" fill="#00674E"/>
</svg>
