<svg width="106" height="29" viewBox="0 0 106 29" fill="none" xmlns="http://www.w3.org/2000/svg">
<mask id="path-1-outside-1_133_1003" maskUnits="userSpaceOnUse" x="-1" y="-1" width="108" height="31" fill="black">
<rect fill="white" x="-1" y="-1" width="108" height="31"/>
<path d="M0.244641 28V0.507518H7.19631L15.0513 18.6526H15.2084L22.9848 0.507518H29.8972V28H24.5951V8.87309H24.438L17.722 24.0725H12.3413L5.70386 8.87309H5.54676V28H0.244641ZM44.1808 28.4713C42.1646 28.4713 40.3318 28.0655 38.6823 27.2538C37.0327 26.4421 35.7235 25.2246 34.7548 23.6012C33.786 21.9778 33.3016 19.9094 33.3016 17.3958V0.507518H38.6037V17.435C38.6037 18.7966 38.8263 19.9486 39.2714 20.8912C39.7165 21.8076 40.3711 22.4884 41.2351 22.9335C42.0992 23.3786 43.1203 23.6012 44.2986 23.6012C45.503 23.6012 46.5242 23.3786 47.362 22.9335C48.1999 22.4884 48.8414 21.8076 49.2865 20.8912C49.7578 19.9486 49.9934 18.7966 49.9934 17.435V0.507518H55.2956V17.3958C55.2956 19.9094 54.785 21.9778 53.7638 23.6012C52.7689 25.2246 51.4335 26.4421 49.7578 27.2538C48.0821 28.0655 46.2231 28.4713 44.1808 28.4713ZM68.3192 28.4713C66.3293 28.4713 64.5488 28.1309 62.9778 27.4502C61.433 26.7694 60.2155 25.7744 59.3252 24.4653C58.435 23.1561 57.9637 21.572 57.9113 19.713H63.5277C63.5538 20.5247 63.7502 21.2578 64.1168 21.9124C64.5095 22.567 65.0594 23.0906 65.7663 23.4834C66.4733 23.8499 67.3242 24.0332 68.3192 24.0332C69.1309 24.0332 69.8378 23.9154 70.4401 23.6798C71.0685 23.4179 71.5659 23.0514 71.9325 22.5801C72.2991 22.0826 72.4824 21.4673 72.4824 20.7341C72.4824 19.9486 72.286 19.294 71.8932 18.7704C71.5005 18.2205 70.9637 17.7623 70.283 17.3958C69.6284 17.0292 68.8691 16.7019 68.005 16.4139C67.1671 16.0997 66.29 15.7855 65.3736 15.4713C63.148 14.712 61.4461 13.7301 60.2678 12.5257C59.1158 11.3212 58.5397 9.75023 58.5397 7.81266C58.5397 6.1893 58.9325 4.80158 59.718 3.64952C60.5035 2.49745 61.6032 1.60722 63.0171 0.978819C64.431 0.35042 66.0413 0.0362202 67.8479 0.0362202C69.7069 0.0362202 71.3303 0.363511 72.718 1.01809C74.1319 1.64649 75.2447 2.56291 76.0564 3.76734C76.8942 4.97177 77.3394 6.38567 77.3917 8.00904H71.6969C71.6707 7.30209 71.4874 6.68678 71.147 6.16311C70.8328 5.63945 70.3746 5.22052 69.7724 4.90632C69.1964 4.59212 68.5156 4.43502 67.7301 4.43502C67.0493 4.40883 66.4209 4.51357 65.8449 4.74922C65.295 4.95868 64.863 5.28597 64.5488 5.73109C64.2346 6.17621 64.0775 6.73915 64.0775 7.41991C64.0775 8.0745 64.2215 8.62435 64.5095 9.06946C64.8237 9.51458 65.2558 9.90733 65.8056 10.2477C66.3816 10.5619 67.0493 10.8761 67.8086 11.1903C68.5941 11.4783 69.4713 11.7925 70.4401 12.1329C71.8278 12.6042 73.0977 13.1672 74.2497 13.8217C75.4018 14.4501 76.3182 15.2749 76.999 16.2961C77.6797 17.3172 78.0201 18.6526 78.0201 20.3021C78.0201 21.7422 77.6536 23.0906 76.9204 24.3474C76.1873 25.578 75.1007 26.573 73.6606 27.3323C72.2205 28.0916 70.4401 28.4713 68.3192 28.4713ZM79.2947 28L88.053 0.507518H96.6543L105.373 28H99.757L92.4126 3.72807H92.2947L84.8325 28H79.2947ZM83.6935 20.1843L85.1074 16.0604H99.0893L100.503 20.1843H83.6935Z"/>
</mask>
<path d="M0.244641 28V0.507518H7.19631L15.0513 18.6526H15.2084L22.9848 0.507518H29.8972V28H24.5951V8.87309H24.438L17.722 24.0725H12.3413L5.70386 8.87309H5.54676V28H0.244641ZM44.1808 28.4713C42.1646 28.4713 40.3318 28.0655 38.6823 27.2538C37.0327 26.4421 35.7235 25.2246 34.7548 23.6012C33.786 21.9778 33.3016 19.9094 33.3016 17.3958V0.507518H38.6037V17.435C38.6037 18.7966 38.8263 19.9486 39.2714 20.8912C39.7165 21.8076 40.3711 22.4884 41.2351 22.9335C42.0992 23.3786 43.1203 23.6012 44.2986 23.6012C45.503 23.6012 46.5242 23.3786 47.362 22.9335C48.1999 22.4884 48.8414 21.8076 49.2865 20.8912C49.7578 19.9486 49.9934 18.7966 49.9934 17.435V0.507518H55.2956V17.3958C55.2956 19.9094 54.785 21.9778 53.7638 23.6012C52.7689 25.2246 51.4335 26.4421 49.7578 27.2538C48.0821 28.0655 46.2231 28.4713 44.1808 28.4713ZM68.3192 28.4713C66.3293 28.4713 64.5488 28.1309 62.9778 27.4502C61.433 26.7694 60.2155 25.7744 59.3252 24.4653C58.435 23.1561 57.9637 21.572 57.9113 19.713H63.5277C63.5538 20.5247 63.7502 21.2578 64.1168 21.9124C64.5095 22.567 65.0594 23.0906 65.7663 23.4834C66.4733 23.8499 67.3242 24.0332 68.3192 24.0332C69.1309 24.0332 69.8378 23.9154 70.4401 23.6798C71.0685 23.4179 71.5659 23.0514 71.9325 22.5801C72.2991 22.0826 72.4824 21.4673 72.4824 20.7341C72.4824 19.9486 72.286 19.294 71.8932 18.7704C71.5005 18.2205 70.9637 17.7623 70.283 17.3958C69.6284 17.0292 68.8691 16.7019 68.005 16.4139C67.1671 16.0997 66.29 15.7855 65.3736 15.4713C63.148 14.712 61.4461 13.7301 60.2678 12.5257C59.1158 11.3212 58.5397 9.75023 58.5397 7.81266C58.5397 6.1893 58.9325 4.80158 59.718 3.64952C60.5035 2.49745 61.6032 1.60722 63.0171 0.978819C64.431 0.35042 66.0413 0.0362202 67.8479 0.0362202C69.7069 0.0362202 71.3303 0.363511 72.718 1.01809C74.1319 1.64649 75.2447 2.56291 76.0564 3.76734C76.8942 4.97177 77.3394 6.38567 77.3917 8.00904H71.6969C71.6707 7.30209 71.4874 6.68678 71.147 6.16311C70.8328 5.63945 70.3746 5.22052 69.7724 4.90632C69.1964 4.59212 68.5156 4.43502 67.7301 4.43502C67.0493 4.40883 66.4209 4.51357 65.8449 4.74922C65.295 4.95868 64.863 5.28597 64.5488 5.73109C64.2346 6.17621 64.0775 6.73915 64.0775 7.41991C64.0775 8.0745 64.2215 8.62435 64.5095 9.06946C64.8237 9.51458 65.2558 9.90733 65.8056 10.2477C66.3816 10.5619 67.0493 10.8761 67.8086 11.1903C68.5941 11.4783 69.4713 11.7925 70.4401 12.1329C71.8278 12.6042 73.0977 13.1672 74.2497 13.8217C75.4018 14.4501 76.3182 15.2749 76.999 16.2961C77.6797 17.3172 78.0201 18.6526 78.0201 20.3021C78.0201 21.7422 77.6536 23.0906 76.9204 24.3474C76.1873 25.578 75.1007 26.573 73.6606 27.3323C72.2205 28.0916 70.4401 28.4713 68.3192 28.4713ZM79.2947 28L88.053 0.507518H96.6543L105.373 28H99.757L92.4126 3.72807H92.2947L84.8325 28H79.2947ZM83.6935 20.1843L85.1074 16.0604H99.0893L100.503 20.1843H83.6935Z" fill="url(#paint0_linear_133_1003)"/>
<path d="M0.244641 28H-0.424109V28.6688H0.244641V28ZM0.244641 0.507519V-0.161232H-0.424109V0.507519H0.244641ZM7.19631 0.507519L7.81002 0.241842L7.63553 -0.161232H7.19631V0.507519ZM15.0513 18.6526L14.4376 18.9182L14.6121 19.3213H15.0513V18.6526ZM15.2084 18.6526V19.3213H15.6494L15.8231 18.916L15.2084 18.6526ZM22.9848 0.507519V-0.161232H22.5439L22.3702 0.244085L22.9848 0.507519ZM29.8972 0.507519H30.566V-0.161232H29.8972V0.507519ZM29.8972 28V28.6688H30.566V28H29.8972ZM24.5951 28H23.9264V28.6688H24.5951V28ZM24.5951 8.87309H25.2639V8.20434H24.5951V8.87309ZM24.438 8.87309V8.20434H24.0024L23.8263 8.6028L24.438 8.87309ZM17.722 24.0725V24.7413H18.1576L18.3337 24.3428L17.722 24.0725ZM12.3413 24.0725L11.7285 24.3401L11.9036 24.7413H12.3413V24.0725ZM5.70386 8.87309L6.31672 8.60546L6.14156 8.20434H5.70386V8.87309ZM5.54676 8.87309V8.20434H4.87801V8.87309H5.54676ZM5.54676 28V28.6688H6.21551V28H5.54676ZM0.913391 28V0.507519H-0.424109V28H0.913391ZM0.244641 1.17627H7.19631V-0.161232H0.244641V1.17627ZM6.5826 0.773194L14.4376 18.9182L15.665 18.3869L7.81002 0.241842L6.5826 0.773194ZM15.0513 19.3213H15.2084V17.9838H15.0513V19.3213ZM15.8231 18.916L23.5995 0.770952L22.3702 0.244085L14.5937 18.3891L15.8231 18.916ZM22.9848 1.17627H29.8972V-0.161232H22.9848V1.17627ZM29.2285 0.507519V28H30.566V0.507519H29.2285ZM29.8972 27.3312H24.5951V28.6688H29.8972V27.3312ZM25.2639 28V8.87309H23.9264V28H25.2639ZM24.5951 8.20434H24.438V9.54184H24.5951V8.20434ZM23.8263 8.6028L17.1103 23.8022L18.3337 24.3428L25.0497 9.14337L23.8263 8.6028ZM17.722 23.4038H12.3413V24.7413H17.722V23.4038ZM12.9542 23.8049L6.31672 8.60546L5.091 9.14072L11.7285 24.3401L12.9542 23.8049ZM5.70386 8.20434H5.54676V9.54184H5.70386V8.20434ZM4.87801 8.87309V28H6.21551V8.87309H4.87801ZM5.54676 27.3312H0.244641V28.6688H5.54676V27.3312ZM38.6823 27.2538L38.387 27.8538L38.6823 27.2538ZM34.7548 23.6012L34.1805 23.9439L34.7548 23.6012ZM33.3016 0.507519V-0.161232H32.6328V0.507519H33.3016ZM38.6037 0.507519H39.2725V-0.161232H38.6037V0.507519ZM39.2714 20.8912L38.6666 21.1768L38.6698 21.1834L39.2714 20.8912ZM47.362 22.9335L47.6758 23.5241L47.362 22.9335ZM49.2865 20.8912L48.6883 20.5921L48.685 20.5991L49.2865 20.8912ZM49.9934 0.507519V-0.161232H49.3247V0.507519H49.9934ZM55.2956 0.507519H55.9643V-0.161232H55.2956V0.507519ZM53.7638 23.6012L53.1977 23.2451L53.1937 23.2517L53.7638 23.6012ZM49.7578 27.2538L49.4663 26.6519L49.7578 27.2538ZM44.1808 27.8026C42.257 27.8026 40.5266 27.416 38.9775 26.6537L38.387 27.8538C40.137 28.7149 42.0723 29.14 44.1808 29.14V27.8026ZM38.9775 26.6537C37.4473 25.9008 36.2336 24.7743 35.329 23.2585L34.1805 23.9439C35.2135 25.6749 36.6181 26.9834 38.387 27.8538L38.9775 26.6537ZM35.329 23.2585C34.4392 21.7675 33.9703 19.8273 33.9703 17.3958H32.6328C32.6328 19.9914 33.1327 22.1882 34.1805 23.9439L35.329 23.2585ZM33.9703 17.3958V0.507519H32.6328V17.3958H33.9703ZM33.3016 1.17627H38.6037V-0.161232H33.3016V1.17627ZM37.935 0.507519V17.435H39.2725V0.507519H37.935ZM37.935 17.435C37.935 18.8663 38.1685 20.1219 38.6667 21.1768L39.8761 20.6057C39.484 19.7753 39.2725 18.7268 39.2725 17.435H37.935ZM38.6698 21.1834C39.1749 22.2232 39.9298 23.0134 40.9289 23.528L41.5414 22.339C40.8123 21.9635 40.2581 21.3921 39.8729 20.5991L38.6698 21.1834ZM40.9289 23.528C41.9057 24.0312 43.0361 24.27 44.2986 24.27V22.9325C43.2045 22.9325 42.2927 22.7261 41.5414 22.339L40.9289 23.528ZM44.2986 24.27C45.5836 24.27 46.7187 24.0325 47.6758 23.5241L47.0483 22.3429C46.3296 22.7247 45.4224 22.9325 44.2986 22.9325V24.27ZM47.6758 23.5241C48.6482 23.0075 49.3859 22.2173 49.888 21.1834L48.685 20.5991C48.2969 21.398 47.7516 21.9693 47.0483 22.3429L47.6758 23.5241ZM49.8846 21.1903C50.4139 20.1318 50.6622 18.8711 50.6622 17.435H49.3247C49.3247 18.722 49.1017 19.7655 48.6884 20.5922L49.8846 21.1903ZM50.6622 17.435V0.507519H49.3247V17.435H50.6622ZM49.9934 1.17627H55.2956V-0.161232H49.9934V1.17627ZM54.6268 0.507519V17.3958H55.9643V0.507519H54.6268ZM54.6268 17.3958C54.6268 19.8217 54.134 21.7568 53.1978 23.2451L54.3299 23.9573C55.436 22.1989 55.9643 19.997 55.9643 17.3958H54.6268ZM53.1937 23.2517C52.2639 24.7687 51.0242 25.8973 49.4663 26.6519L50.0493 27.8556C51.8429 26.9869 53.2738 25.6805 54.334 23.9507L53.1937 23.2517ZM49.4663 26.6519C47.8899 27.4154 46.132 27.8026 44.1808 27.8026V29.14C46.3141 29.14 48.2742 28.7155 50.0493 27.8556L49.4663 26.6519ZM62.9778 27.4501L62.7081 28.0621L62.7119 28.0638L62.9778 27.4501ZM59.3252 24.4653L59.8783 24.0892L59.3252 24.4653ZM57.9113 19.713V19.0442H57.2235L57.2429 19.7318L57.9113 19.713ZM63.5277 19.713L64.1961 19.6914L64.1752 19.0442H63.5277V19.713ZM64.1168 21.9124L63.5333 22.2391L63.5382 22.2479L63.5433 22.2564L64.1168 21.9124ZM65.7663 23.4834L65.4416 24.068L65.45 24.0726L65.4585 24.0771L65.7663 23.4834ZM70.4401 23.6798L70.6838 24.3025L70.6905 24.2999L70.6973 24.2971L70.4401 23.6798ZM71.9325 22.5801L72.4604 22.9906L72.4657 22.9838L72.4709 22.9768L71.9325 22.5801ZM71.8932 18.7704L71.3491 19.1591L71.3536 19.1654L71.3582 19.1716L71.8932 18.7704ZM70.283 17.3958L69.9562 17.9793L69.9659 17.9846L70.283 17.3958ZM68.005 16.4139L67.7702 17.0401L67.7818 17.0444L67.7935 17.0483L68.005 16.4139ZM65.3736 15.4713L65.5905 14.8387L65.5895 14.8384L65.3736 15.4713ZM60.2678 12.5257L59.7845 12.9879L59.7898 12.9933L60.2678 12.5257ZM59.718 3.64952L60.2705 4.02625V4.02625L59.718 3.64952ZM63.0171 0.978819L62.7455 0.367707L63.0171 0.978819ZM72.718 1.01809L72.4327 1.62293L72.4395 1.62615L72.4464 1.6292L72.718 1.01809ZM76.0564 3.76734L75.5017 4.14112L75.5074 4.14924L76.0564 3.76734ZM77.3917 8.00904V8.67779H78.0824L78.0601 7.98748L77.3917 8.00904ZM71.6969 8.00904L71.0286 8.03379L71.0524 8.67779H71.6969V8.00904ZM71.147 6.16311L70.5736 6.50718L70.5798 6.51749L70.5863 6.52757L71.147 6.16311ZM69.7724 4.90632L69.4521 5.49351L69.463 5.49922L69.7724 4.90632ZM67.7301 4.43502L67.7044 5.10327L67.7172 5.10377H67.7301V4.43502ZM65.8449 4.74922L66.083 5.37416L66.0906 5.37126L66.0981 5.36818L65.8449 4.74922ZM64.5488 5.73109L64.0025 5.34543L64.5488 5.73109ZM64.5095 9.06946L63.9481 9.43276L63.9554 9.44409L63.9632 9.45512L64.5095 9.06946ZM65.8056 10.2477L65.4536 10.8163L65.4692 10.826L65.4854 10.8348L65.8056 10.2477ZM67.8086 11.1903L67.5529 11.8082L67.5656 11.8135L67.5784 11.8182L67.8086 11.1903ZM70.4401 12.1329L70.2184 12.7639L70.225 12.7661L70.4401 12.1329ZM74.2497 13.8217L73.9193 14.4033L73.9295 14.4088L74.2497 13.8217ZM76.999 16.2961L76.4425 16.667V16.667L76.999 16.2961ZM76.9204 24.3474L77.495 24.6897L77.4981 24.6844L76.9204 24.3474ZM73.6606 27.3323L73.9725 27.9239L73.6606 27.3323ZM68.3192 27.8026C66.4061 27.8026 64.7183 27.4755 63.2437 26.8365L62.7119 28.0638C64.3794 28.7863 66.2525 29.14 68.3192 29.14V27.8026ZM63.2475 26.8382C61.8094 26.2045 60.6933 25.2878 59.8783 24.0892L58.7722 24.8413C59.7377 26.261 61.0566 27.3343 62.7081 28.0621L63.2475 26.8382ZM59.8783 24.0892C59.0716 22.903 58.6292 21.4482 58.5798 19.6942L57.2429 19.7318C57.2982 21.6958 57.7984 23.4092 58.7722 24.8413L59.8783 24.0892ZM57.9113 20.3817H63.5277V19.0442H57.9113V20.3817ZM62.8593 19.7345C62.8886 20.6443 63.1102 21.4835 63.5333 22.2391L64.7003 21.5856C64.3903 21.0321 64.2191 20.4051 64.1961 19.6914L62.8593 19.7345ZM63.5433 22.2564C64.0001 23.0177 64.6384 23.6218 65.4416 24.068L66.0911 22.8988C65.4804 22.5595 65.019 22.1163 64.6902 21.5683L63.5433 22.2564ZM65.4585 24.0771C66.2814 24.5037 67.2433 24.702 68.3192 24.702V23.3645C67.4052 23.3645 66.6652 23.1962 66.0742 22.8897L65.4585 24.0771ZM68.3192 24.702C69.1938 24.702 69.9869 24.5752 70.6838 24.3025L70.1964 23.057C69.6888 23.2556 69.068 23.3645 68.3192 23.3645V24.702ZM70.6973 24.2971C71.4171 23.9971 72.0135 23.5652 72.4604 22.9906L71.4046 22.1695C71.1184 22.5375 70.7199 22.8387 70.1828 23.0624L70.6973 24.2971ZM72.4709 22.9768C72.9371 22.3441 73.1511 21.5826 73.1511 20.7341H71.8136C71.8136 21.3519 71.6611 21.8211 71.3941 22.1834L72.4709 22.9768ZM73.1511 20.7341C73.1511 19.8337 72.9241 19.0303 72.4282 18.3691L71.3582 19.1716C71.6479 19.5578 71.8136 20.0636 71.8136 20.7341H73.1511ZM72.4374 18.3817C71.9772 17.7374 71.3578 17.215 70.6 16.8069L69.9659 17.9846C70.5697 18.3097 71.0238 18.7037 71.3491 19.1591L72.4374 18.3817ZM70.6097 16.8123C69.9116 16.4213 69.1123 16.0781 68.2165 15.7795L67.7935 17.0483C68.6258 17.3257 69.3452 17.6371 69.9562 17.9792L70.6097 16.8123ZM68.2398 15.7877C67.3956 15.4711 66.5124 15.1548 65.5905 14.8387L65.1567 16.1039C66.0676 16.4162 66.9387 16.7283 67.7702 17.0401L68.2398 15.7877ZM65.5895 14.8384C63.4261 14.1003 61.8278 13.164 60.7459 12.058L59.7898 12.9933C61.0644 14.2962 62.8699 15.3237 65.1576 16.1042L65.5895 14.8384ZM60.7511 12.0634C59.7374 11.0036 59.2085 9.60806 59.2085 7.81266H57.871C57.871 9.8924 58.4942 11.6389 59.7846 12.9879L60.7511 12.0634ZM59.2085 7.81266C59.2085 6.30103 59.5726 5.04991 60.2705 4.02625L59.1655 3.27279C58.2924 4.55326 57.871 6.07756 57.871 7.81266H59.2085ZM60.2705 4.02625C60.9785 2.98793 61.9756 2.17354 63.2887 1.58993L62.7455 0.367707C61.2308 1.04089 60.0285 2.00697 59.1655 3.27279L60.2705 4.02625ZM63.2887 1.58993C64.604 1.00537 66.1193 0.70497 67.8479 0.70497V-0.63253C65.9632 -0.63253 64.258 -0.304535 62.7455 0.367707L63.2887 1.58993ZM67.8479 0.70497C69.6288 0.70497 71.1511 1.01839 72.4327 1.62293L73.0033 0.413255C71.5095 -0.291368 69.7851 -0.63253 67.8479 -0.63253V0.70497ZM72.4464 1.6292C73.7534 2.21009 74.7649 3.04764 75.5018 4.14107L76.611 3.39361C75.7245 2.07818 74.5104 1.0829 72.9896 0.406982L72.4464 1.6292ZM75.5074 4.14924C76.2637 5.23643 76.6747 6.52204 76.7233 8.0306L78.0601 7.98748C78.0041 6.24931 77.5248 4.70711 76.6054 3.38544L75.5074 4.14924ZM77.3917 7.34029H71.6969V8.67779H77.3917V7.34029ZM72.3652 7.98429C72.3351 7.17285 72.1224 6.43666 71.7077 5.79865L70.5863 6.52757C70.8524 6.9369 71.0063 7.43134 71.0286 8.03379L72.3652 7.98429ZM71.7205 5.81904C71.3359 5.17809 70.7806 4.67804 70.0817 4.31341L69.463 5.49922C69.9686 5.76299 70.3297 6.1008 70.5736 6.50718L71.7205 5.81904ZM70.0926 4.31922C69.4007 3.94182 68.6055 3.76627 67.7301 3.76627V5.10377C68.4257 5.10377 68.992 5.24242 69.4521 5.49341L70.0926 4.31922ZM67.7558 3.76676C66.9887 3.73726 66.2642 3.85514 65.5917 4.13026L66.0981 5.36818C66.5777 5.17199 67.1099 5.08041 67.7044 5.10327L67.7558 3.76676ZM65.6068 4.12428C64.9431 4.37712 64.3995 4.78292 64.0025 5.34543L65.0952 6.11675C65.3265 5.78902 65.647 5.54025 66.083 5.37416L65.6068 4.12428ZM64.0025 5.34543C63.5907 5.92878 63.4088 6.63577 63.4088 7.41991H64.7463C64.7463 6.84252 64.8785 6.42364 65.0952 6.11675L64.0025 5.34543ZM63.4088 7.41991C63.4088 8.17307 63.5752 8.85649 63.9481 9.43276L65.071 8.70616C64.8679 8.3922 64.7463 7.97592 64.7463 7.41991H63.4088ZM63.9632 9.45512C64.338 9.98605 64.8414 10.4373 65.4536 10.8163L66.1576 9.6791C65.6701 9.37733 65.3095 9.04311 65.0559 8.68381L63.9632 9.45512ZM65.4854 10.8348C66.0868 11.1629 66.7768 11.4871 67.5529 11.8082L68.0643 10.5724C67.3218 10.2651 66.6765 9.96097 66.1258 9.66062L65.4854 10.8348ZM67.5784 11.8182C68.3673 12.1074 69.2474 12.4227 70.2184 12.7638L70.6617 11.502C69.6952 11.1624 68.821 10.8492 68.0389 10.5624L67.5784 11.8182ZM70.225 12.7661C71.5769 13.2253 72.8076 13.7715 73.9194 14.4032L74.5801 13.2403C73.3877 12.5628 72.0787 11.9832 70.6551 11.4997L70.225 12.7661ZM73.9295 14.4088C74.9933 14.9891 75.826 15.7422 76.4425 16.667L77.5554 15.9251C76.8104 14.8076 75.8103 13.9112 74.57 13.2346L73.9295 14.4088ZM76.4425 16.667C77.0288 17.5464 77.3514 18.7402 77.3514 20.3021H78.6889C78.6889 18.5649 78.3307 17.088 77.5554 15.9251L76.4425 16.667ZM77.3514 20.3021C77.3514 21.6225 77.0169 22.8548 76.3428 24.0105L77.4981 24.6844C78.2902 23.3264 78.6889 21.8619 78.6889 20.3021H77.3514ZM76.3459 24.0052C75.684 25.1163 74.6952 26.0308 73.3487 26.7408L73.9725 27.9239C75.5062 27.1152 76.6906 26.0398 77.495 24.6897L76.3459 24.0052ZM73.3487 26.7408C72.0294 27.4364 70.3632 27.8026 68.3192 27.8026V29.14C70.5169 29.14 72.4116 28.7469 73.9725 27.9239L73.3487 26.7408ZM79.2947 28L78.6575 27.797L78.3798 28.6688H79.2947V28ZM88.053 0.507519V-0.161232H87.5642L87.4158 0.304525L88.053 0.507519ZM96.6543 0.507519L97.2917 0.305352L97.1437 -0.161232H96.6543V0.507519ZM105.373 28V28.6688H106.287L106.011 27.7978L105.373 28ZM99.757 28L99.1169 28.1937L99.2606 28.6688H99.757V28ZM92.4126 3.72807L93.0526 3.53438L92.9089 3.05932H92.4126V3.72807ZM92.2947 3.72807V3.05932H91.8007L91.6555 3.53154L92.2947 3.72807ZM84.8325 28V28.6688H85.3265L85.4717 28.1965L84.8325 28ZM83.6935 20.1843L83.0609 19.9674L82.7573 20.853H83.6935V20.1843ZM85.1074 16.0604V15.3917H84.6297L84.4748 15.8435L85.1074 16.0604ZM99.0893 16.0604L99.7219 15.8435L99.567 15.3917H99.0893V16.0604ZM100.503 20.1843V20.853H101.439L101.136 19.9674L100.503 20.1843ZM79.9319 28.203L88.6902 0.710511L87.4158 0.304525L78.6575 27.797L79.9319 28.203ZM88.053 1.17627H96.6543V-0.161232H88.053V1.17627ZM96.0168 0.709684L104.736 28.2022L106.011 27.7978L97.2917 0.305352L96.0168 0.709684ZM105.373 27.3312H99.757V28.6688H105.373V27.3312ZM100.397 27.8063L93.0526 3.53438L91.7725 3.92175L99.1169 28.1937L100.397 27.8063ZM92.4126 3.05932H92.2947V4.39682H92.4126V3.05932ZM91.6555 3.53154L84.1933 27.8035L85.4717 28.1965L92.934 3.92459L91.6555 3.53154ZM84.8325 27.3312H79.2947V28.6688H84.8325V27.3312ZM84.3261 20.4012L85.74 16.2773L84.4748 15.8435L83.0609 19.9674L84.3261 20.4012ZM85.1074 16.7292H99.0893V15.3917H85.1074V16.7292ZM98.4567 16.2773L99.8706 20.4012L101.136 19.9674L99.7219 15.8435L98.4567 16.2773ZM100.503 19.5155H83.6935V20.853H100.503V19.5155Z" fill="#42AE74" mask="url(#path-1-outside-1_133_1003)"/>
<defs>
<linearGradient id="paint0_linear_133_1003" x1="52" y1="-11" x2="52" y2="40" gradientUnits="userSpaceOnUse">
<stop stop-color="#A0D998"/>
<stop offset="1" stop-color="#209F5F"/>
</linearGradient>
</defs>
</svg>
