<svg width="17" height="17" viewBox="0 0 17 17" fill="none" xmlns="http://www.w3.org/2000/svg">
<path opacity="0.2" d="M1.73853 8.49965C1.73853 10.2929 2.45088 12.0126 3.71888 13.2807C4.98688 14.5487 6.70666 15.261 8.49989 15.261C10.2931 15.261 12.0129 14.5487 13.2809 13.2807C14.5489 12.0126 15.2613 10.2929 15.2613 8.49965C15.2613 6.70642 14.5489 4.98664 13.2809 3.71864C12.0129 2.45064 10.2931 1.73828 8.49989 1.73828C6.70666 1.73828 4.98688 2.45064 3.71888 3.71864C2.45088 4.98664 1.73853 6.70642 1.73853 8.49965ZM5.26108 8.15856C5.44822 7.97141 5.7561 7.97141 5.94325 8.15856L7.53398 9.74929L11.0565 6.22674C11.2437 6.0396 11.5516 6.0396 11.7387 6.22674C11.9258 6.41389 11.9258 6.72177 11.7387 6.90891L7.87507 10.7725C7.68792 10.9597 7.38004 10.9597 7.19289 10.7725L5.26108 8.84073C5.07393 8.65359 5.07393 8.3457 5.26108 8.15856Z" fill="#5BAF9B"/>
<path d="M8.49998 1.73837C10.2932 1.73837 12.013 2.45073 13.281 3.71873C14.549 4.98673 15.2613 6.70651 15.2613 8.49973C15.2613 10.293 14.549 12.0127 13.281 13.2807C12.013 14.5487 10.2932 15.2611 8.49998 15.2611C6.70675 15.2611 4.98697 14.5487 3.71897 13.2807C2.45097 12.0127 1.73861 10.293 1.73861 8.49973C1.73861 6.70651 2.45097 4.98673 3.71897 3.71873C4.98697 2.45073 6.70675 1.73837 8.49998 1.73837ZM8.49998 16.227C10.5494 16.227 12.5148 15.4129 13.964 13.9637C15.4131 12.5146 16.2273 10.5491 16.2273 8.49973C16.2273 6.45033 15.4131 4.48487 13.964 3.03573C12.5148 1.58658 10.5494 0.772461 8.49998 0.772461C6.45058 0.772461 4.48512 1.58658 3.03597 3.03573C1.58683 4.48487 0.772705 6.45033 0.772705 8.49973C0.772705 10.5491 1.58683 12.5146 3.03597 13.9637C4.48512 15.4129 6.45058 16.227 8.49998 16.227ZM11.7388 6.909C11.9259 6.72186 11.9259 6.41397 11.7388 6.22683C11.5516 6.03968 11.2438 6.03968 11.0566 6.22683L7.53407 9.74938L5.94334 8.15865C5.75619 7.9715 5.44831 7.9715 5.26116 8.15865C5.07402 8.34579 5.07402 8.65368 5.26116 8.84082L7.19298 10.7726C7.38013 10.9598 7.68801 10.9598 7.87516 10.7726L11.7388 6.909Z" fill="#5BAF9B"/>
</svg>
