<svg width="20" height="20" viewBox="0 0 20 20" fill="none" xmlns="http://www.w3.org/2000/svg">
<g id="upload-duotone-light 1" clip-path="url(#clip0_1104_394)">
<path id="Vector" opacity="0.2" d="M1.25 15C1.25 14.3086 1.80859 13.75 2.5 13.75H8.125V12.5H9.375V14.375C9.375 14.7188 9.65625 15 10 15C10.3438 15 10.625 14.7188 10.625 14.375V12.5H11.875V13.75H17.5C18.1914 13.75 18.75 14.3086 18.75 15V17.5C18.75 18.1914 18.1914 18.75 17.5 18.75H2.5C1.80859 18.75 1.25 18.1914 1.25 17.5V15ZM15 16.25C15 16.4986 15.0988 16.7371 15.2746 16.9129C15.4504 17.0887 15.6889 17.1875 15.9375 17.1875C16.1861 17.1875 16.4246 17.0887 16.6004 16.9129C16.7762 16.7371 16.875 16.4986 16.875 16.25C16.875 16.0014 16.7762 15.7629 16.6004 15.5871C16.4246 15.4113 16.1861 15.3125 15.9375 15.3125C15.6889 15.3125 15.4504 15.4113 15.2746 15.5871C15.0988 15.7629 15 16.0014 15 16.25Z" fill="#00674E"/>
<path id="Vector_2" d="M10.625 2.13306V14.3752C10.625 14.719 10.3438 15.0002 10 15.0002C9.65625 15.0002 9.375 14.719 9.375 14.3752V2.13306L5.44141 6.06665C5.19922 6.30884 4.80078 6.30884 4.55859 6.06665C4.31641 5.82446 4.31641 5.42602 4.55859 5.18384L9.55859 0.183838C9.80078 -0.0583496 10.1992 -0.0583496 10.4414 0.183838L15.4414 5.18384C15.6836 5.42602 15.6836 5.82446 15.4414 6.06665C15.1992 6.30884 14.8008 6.30884 14.5586 6.06665L10.625 2.13306ZM8.125 13.7502H2.5C1.80859 13.7502 1.25 14.3088 1.25 15.0002V17.5002C1.25 18.1917 1.80859 18.7502 2.5 18.7502H17.5C18.1914 18.7502 18.75 18.1917 18.75 17.5002V15.0002C18.75 14.3088 18.1914 13.7502 17.5 13.7502H11.875V12.5002H17.5C18.8789 12.5002 20 13.6213 20 15.0002V17.5002C20 18.8792 18.8789 20.0002 17.5 20.0002H2.5C1.12109 20.0002 0 18.8792 0 17.5002V15.0002C0 13.6213 1.12109 12.5002 2.5 12.5002H8.125V13.7502ZM15 16.2502C15 16.0016 15.0988 15.7631 15.2746 15.5873C15.4504 15.4115 15.6889 15.3127 15.9375 15.3127C16.1861 15.3127 16.4246 15.4115 16.6004 15.5873C16.7762 15.7631 16.875 16.0016 16.875 16.2502C16.875 16.4989 16.7762 16.7373 16.6004 16.9132C16.4246 17.089 16.1861 17.1877 15.9375 17.1877C15.6889 17.1877 15.4504 17.089 15.2746 16.9132C15.0988 16.7373 15 16.4989 15 16.2502Z" fill="#00674E"/>
</g>
<defs>
<clipPath id="clip0_1104_394">
<rect width="20" height="20" fill="white"/>
</clipPath>
</defs>
</svg>
