<svg width="20" height="21" viewBox="0 0 20 21" fill="none" xmlns="http://www.w3.org/2000/svg">
<g clip-path="url(#clip0_566_825)">
<path opacity="0.2" d="M1.25 16C1.25 15.3086 1.80859 14.75 2.5 14.75H8.125V13.5H9.375V15.375C9.375 15.7188 9.65625 16 10 16C10.3438 16 10.625 15.7188 10.625 15.375V13.5H11.875V14.75H17.5C18.1914 14.75 18.75 15.3086 18.75 16V18.5C18.75 19.1914 18.1914 19.75 17.5 19.75H2.5C1.80859 19.75 1.25 19.1914 1.25 18.5V16ZM15 17.25C15 17.4986 15.0988 17.7371 15.2746 17.9129C15.4504 18.0887 15.6889 18.1875 15.9375 18.1875C16.1861 18.1875 16.4246 18.0887 16.6004 17.9129C16.7762 17.7371 16.875 17.4986 16.875 17.25C16.875 17.0014 16.7762 16.7629 16.6004 16.5871C16.4246 16.4113 16.1861 16.3125 15.9375 16.3125C15.6889 16.3125 15.4504 16.4113 15.2746 16.5871C15.0988 16.7629 15 17.0014 15 17.25Z" fill="#00674E"/>
<path d="M10.625 3.133V15.3752C10.625 15.7189 10.3438 16.0002 10 16.0002C9.65625 16.0002 9.375 15.7189 9.375 15.3752V3.133L5.44141 7.06659C5.19922 7.30878 4.80078 7.30878 4.55859 7.06659C4.31641 6.8244 4.31641 6.42596 4.55859 6.18378L9.55859 1.18378C9.80078 0.941589 10.1992 0.941589 10.4414 1.18378L15.4414 6.18378C15.6836 6.42596 15.6836 6.8244 15.4414 7.06659C15.1992 7.30878 14.8008 7.30878 14.5586 7.06659L10.625 3.133ZM8.125 14.7502H2.5C1.80859 14.7502 1.25 15.3088 1.25 16.0002V18.5002C1.25 19.1916 1.80859 19.7502 2.5 19.7502H17.5C18.1914 19.7502 18.75 19.1916 18.75 18.5002V16.0002C18.75 15.3088 18.1914 14.7502 17.5 14.7502H11.875V13.5002H17.5C18.8789 13.5002 20 14.6213 20 16.0002V18.5002C20 19.8791 18.8789 21.0002 17.5 21.0002H2.5C1.12109 21.0002 0 19.8791 0 18.5002V16.0002C0 14.6213 1.12109 13.5002 2.5 13.5002H8.125V14.7502ZM15 17.2502C15 17.0015 15.0988 16.7631 15.2746 16.5873C15.4504 16.4115 15.6889 16.3127 15.9375 16.3127C16.1861 16.3127 16.4246 16.4115 16.6004 16.5873C16.7762 16.7631 16.875 17.0015 16.875 17.2502C16.875 17.4988 16.7762 17.7373 16.6004 17.9131C16.4246 18.0889 16.1861 18.1877 15.9375 18.1877C15.6889 18.1877 15.4504 18.0889 15.2746 17.9131C15.0988 17.7373 15 17.4988 15 17.2502Z" fill="#00674E"/>
</g>
<defs>
<clipPath id="clip0_566_825">
<rect width="20" height="20" fill="white" transform="translate(0 1)"/>
</clipPath>
</defs>
</svg>
