<svg width="22" height="22" viewBox="0 0 22 22" fill="none" xmlns="http://www.w3.org/2000/svg">
<path opacity="0.2" d="M3.25 19.75C3.29688 16.6367 5.83594 14.125 8.96484 14.125H12.5352C15.6602 14.125 18.1992 16.6367 18.25 19.75H3.25ZM14.5 6C14.5 6.49246 14.403 6.98009 14.2145 7.43506C14.0261 7.89003 13.7499 8.30343 13.4017 8.65165C13.0534 8.99987 12.64 9.27609 12.1851 9.46455C11.7301 9.653 11.2425 9.75 10.75 9.75C10.2575 9.75 9.76991 9.653 9.31494 9.46455C8.85997 9.27609 8.44657 8.99987 8.09835 8.65165C7.75013 8.30343 7.47391 7.89003 7.28545 7.43506C7.097 6.98009 7 6.49246 7 6C7 5.50754 7.097 5.01991 7.28545 4.56494C7.47391 4.10997 7.75013 3.69657 8.09835 3.34835C8.44657 3.00013 8.85997 2.72391 9.31494 2.53545C9.76991 2.347 10.2575 2.25 10.75 2.25C11.2425 2.25 11.7301 2.347 12.1851 2.53545C12.64 2.72391 13.0534 3.00013 13.4017 3.34835C13.7499 3.69657 14.0261 4.10997 14.2145 4.56494C14.403 5.01991 14.5 5.50754 14.5 6Z" fill="#00674E"/>
<path d="M14.5 6C14.5 5.50754 14.403 5.01991 14.2145 4.56494C14.0261 4.10997 13.7499 3.69657 13.4017 3.34835C13.0534 3.00013 12.64 2.72391 12.1851 2.53545C11.7301 2.347 11.2425 2.25 10.75 2.25C10.2575 2.25 9.76991 2.347 9.31494 2.53545C8.85997 2.72391 8.44657 3.00013 8.09835 3.34835C7.75013 3.69657 7.47391 4.10997 7.28545 4.56494C7.097 5.01991 7 5.50754 7 6C7 6.49246 7.097 6.98009 7.28545 7.43506C7.47391 7.89003 7.75013 8.30343 8.09835 8.65165C8.44657 8.99987 8.85997 9.27609 9.31494 9.46455C9.76991 9.653 10.2575 9.75 10.75 9.75C11.2425 9.75 11.7301 9.653 12.1851 9.46455C12.64 9.27609 13.0534 8.99987 13.4017 8.65165C13.7499 8.30343 14.0261 7.89003 14.2145 7.43506C14.403 6.98009 14.5 6.49246 14.5 6ZM5.75 6C5.75 4.67392 6.27678 3.40215 7.21447 2.46447C8.15215 1.52678 9.42392 1 10.75 1C12.0761 1 13.3479 1.52678 14.2855 2.46447C15.2232 3.40215 15.75 4.67392 15.75 6C15.75 7.32608 15.2232 8.59785 14.2855 9.53553C13.3479 10.4732 12.0761 11 10.75 11C9.42392 11 8.15215 10.4732 7.21447 9.53553C6.27678 8.59785 5.75 7.32608 5.75 6ZM3.25 19.75H18.25C18.2031 16.6367 15.6641 14.125 12.5352 14.125H8.96484C5.83984 14.125 3.30078 16.6367 3.25 19.75ZM2 19.8398C2 15.9922 5.11719 12.875 8.96484 12.875H12.5352C16.3828 12.875 19.5 15.9922 19.5 19.8398C19.5 20.4805 18.9805 21 18.3398 21H3.16016C2.51953 21 2 20.4805 2 19.8398Z" fill="#00674E"/>
</svg>
